<svg xmlns="http://www.w3.org/2000/svg" width="113.728" height="113.731" viewBox="0 0 113.728 113.731">
  <g id="wallet" transform="translate(-0.007 0)">
    <g id="Group_293" data-name="Group 293" transform="translate(50.566 74.168)">
      <g id="Group_292" data-name="Group 292">
        <path id="Path_250" data-name="Path 250" d="M233.39,333.891a5.775,5.775,0,1,0,5.775,5.775A5.782,5.782,0,0,0,233.39,333.891Zm0,7.108a1.333,1.333,0,1,1,1.333-1.333A1.334,1.334,0,0,1,233.39,341Z" transform="translate(-227.615 -333.891)" fill="#2e266f"/>
      </g>
    </g>
    <g id="Group_295" data-name="Group 295" transform="translate(70.378 66.155)">
      <g id="Group_294" data-name="Group 294">
        <path id="Path_251" data-name="Path 251" d="M320.6,298.47a2.22,2.22,0,1,0,.651,1.57A2.238,2.238,0,0,0,320.6,298.47Z" transform="translate(-316.808 -297.819)" fill="#2e266f"/>
      </g>
    </g>
    <g id="Group_297" data-name="Group 297" transform="translate(0.007 0)">
      <g id="Group_296" data-name="Group 296" transform="translate(0 0)">
        <path id="Path_252" data-name="Path 252" d="M102.629,31.984h-2.395L68.9.651a2.221,2.221,0,0,0-3.141,0L57.733,8.679,25.63.077a2.221,2.221,0,0,0-2.721,1.571L14.781,31.984H9.336A9.34,9.34,0,0,0,.007,41.313c0,.123,0,.246.009.368-.005.061-.009.122-.009.185v60.759a11.119,11.119,0,0,0,11.106,11.106h79.52l.1,0h11.892a11.119,11.119,0,0,0,11.106-11.106V43.09A11.118,11.118,0,0,0,102.629,31.984Zm-1.985,4.442h1.985a6.671,6.671,0,0,1,6.664,6.664v17.8a5.271,5.271,0,0,1-5.265,5.265H101.74V57.306a11.117,11.117,0,0,0-10.875-11.1Zm-40.677-23.7h0l7.363-7.363L96.378,34.41,84.66,46.128H80.6l5.315-5.315a2.221,2.221,0,0,0,0-3.141,4.617,4.617,0,0,1,0-6.522,2.222,2.222,0,0,0,0-3.142L73.733,15.829a2.222,2.222,0,0,0-3.142,0,4.616,4.616,0,0,1-6.522,0,2.221,2.221,0,0,0-3.141,0l-30.3,30.3H26.566ZM53.43,37.783a10.616,10.616,0,0,0-10.356,8.345H36.912L62.694,20.346a9.086,9.086,0,0,0,9.274,0l9.427,9.427a9.087,9.087,0,0,0,0,9.274l-7.081,7.081H63.786A10.616,10.616,0,0,0,53.43,37.783Zm5.728,8.345H47.7a6.154,6.154,0,0,1,11.455,0Zm-34.94-3.935L30.1,20.239A9.081,9.081,0,0,0,38.135,15.6l10,2.679L33.625,32.787Zm2.407-37.25,27.48,7.363L51.76,14.652,37.4,10.805a2.221,2.221,0,0,0-2.72,1.571,4.612,4.612,0,0,1-5.648,3.261,2.221,2.221,0,0,0-2.72,1.571L18.545,46.2H15.57ZM9.336,36.427H13.59L10.971,46.2H9.336a4.887,4.887,0,1,1,0-9.774Zm99.956,66.2a6.671,6.671,0,0,1-6.664,6.664H99.515a11.047,11.047,0,0,0,2.225-6.661V93.7h1.333a10.6,10.6,0,0,0,6.219-2.01Zm0-19.584a6.227,6.227,0,0,1-6.219,6.219H56.427a9.329,9.329,0,0,1,0-18.659h6.732a2.221,2.221,0,1,0,0-4.443H56.427a13.772,13.772,0,1,0,0,27.543H97.3v8.924a6.673,6.673,0,0,1-6.561,6.664H15.111V84.274a2.221,2.221,0,0,0-4.443,0v25a6.671,6.671,0,0,1-6.219-6.647V49.256a9.271,9.271,0,0,0,4.887,1.387h81.3A6.671,6.671,0,0,1,97.3,57.306v8.851H81.237a2.221,2.221,0,1,0,0,4.443h22.791a9.646,9.646,0,0,0,5.265-1.558v14Z" transform="translate(-0.007 0)" fill="#2e266f"/>
      </g>
    </g>
    <g id="Group_299" data-name="Group 299" transform="translate(10.669 73.39)">
      <g id="Group_298" data-name="Group 298">
        <path id="Path_253" data-name="Path 253" d="M51.8,331.039a2.22,2.22,0,1,0,.651,1.57A2.239,2.239,0,0,0,51.8,331.039Z" transform="translate(-48.006 -330.388)" fill="#2e266f"/>
      </g>
    </g>
  </g>
</svg>
