<svg xmlns="http://www.w3.org/2000/svg" width="31.472" height="40.644" viewBox="0 0 31.472 40.644">
  <path id="take-away" d="M31.3,12.014a.656.656,0,0,0-.485-.214h-.656V8.522a.656.656,0,0,0-.656-.656H26.224V.655A.656.656,0,0,0,25.569,0H21.635a.656.656,0,0,0-.656.656V4.589H18.358V.655A.656.656,0,0,0,17.7,0H13.769a.656.656,0,0,0-.656.656V2.622H10.491V.655A.656.656,0,0,0,9.836,0H5.9a.656.656,0,0,0-.656.656V5.9H1.969a.656.656,0,0,0-.656.656V11.8H.658A.656.656,0,0,0,0,12.521L2.625,40.054a.656.656,0,0,0,.656.59H28.191a.655.655,0,0,0,.656-.593l2.622-27.533A.66.66,0,0,0,31.3,12.014Zm-2.142,10.93H2.315l-.936-9.833h5.2a9.178,9.178,0,0,0,18.31,0h5.2Zm-.876,9.2a.71.71,0,0,0-.089-.018H3.28a.694.694,0,0,0-.089.018L2.44,24.255h26.59Zm.566-22.962V11.8H26.224V9.177ZM22.291,1.311h2.622V11.8h-.656a.656.656,0,0,0-.656.656,7.816,7.816,0,0,1-1.311,4.339ZM20.98,5.9V18.3a7.862,7.862,0,0,1-2.622,1.561V5.9ZM14.424,1.311h2.622V20.2a7.292,7.292,0,0,1-2.622,0ZM13.113,3.933v15.93A7.865,7.865,0,0,1,10.491,18.3V3.933ZM6.558,1.311H9.18V16.794a7.819,7.819,0,0,1-1.311-4.339.656.656,0,0,0-.656-.656H6.558Zm-3.933,5.9H5.247V11.8H2.625ZM3.876,39.332l-.562-5.9H28.159l-.562,5.9Zm0,0" transform="translate(0.001 0)" fill="#707070"/>
</svg>
