<svg xmlns="http://www.w3.org/2000/svg" width="8.907" height="15.08" viewBox="0 0 8.907 15.08">
  <g id="download" transform="translate(0 15.08) rotate(-90)">
    <g id="Group_1" data-name="Group 1">
      <path id="Path_1" data-name="Path 1" d="M14.839,8.163l-.494.5a.827.827,0,0,1-1.167,0L7.543,3.025,1.9,8.666a.827.827,0,0,1-1.167,0L.241,8.172a.826.826,0,0,1,0-1.167L6.958.265A.843.843,0,0,1,7.543,0h0a.843.843,0,0,1,.583.265l6.71,6.723a.833.833,0,0,1,.241.589A.825.825,0,0,1,14.839,8.163Z" fill="#ff2d58"/>
    </g>
  </g>
</svg>
