<svg xmlns="http://www.w3.org/2000/svg" width="15.292" height="25.89" viewBox="0 0 15.292 25.89">
  <g id="Group_359" data-name="Group 359" transform="translate(-32 -27)">
    <g id="download" transform="translate(32 52.89) rotate(-90)">
      <g id="Group_1" data-name="Group 1" transform="translate(0)">
        <path id="Path_1" data-name="Path 1" d="M25.476,14.014l-.848.854a1.42,1.42,0,0,1-2,0L12.951,5.193,3.266,14.879a1.42,1.42,0,0,1-2,0L.414,14.03a1.418,1.418,0,0,1,0-2L11.946.454a1.448,1.448,0,0,1,1-.454h0a1.447,1.447,0,0,1,1,.454L25.476,12a1.43,1.43,0,0,1,.414,1.012A1.416,1.416,0,0,1,25.476,14.014Z" fill="#fff"/>
      </g>
    </g>
  </g>
</svg>
