<svg xmlns="http://www.w3.org/2000/svg" width="11.858" height="20.077" viewBox="0 0 11.858 20.077">
  <g id="download" transform="translate(11.858) rotate(90)">
    <g id="Group_1" data-name="Group 1">
      <path id="Path_1" data-name="Path 1" d="M19.756,10.867l-.658.662a1.1,1.1,0,0,1-1.553,0l-7.5-7.5L2.532,11.538a1.1,1.1,0,0,1-1.553,0L.321,10.88a1.1,1.1,0,0,1,0-1.553L9.263.352A1.123,1.123,0,0,1,10.042,0h0a1.122,1.122,0,0,1,.776.352L19.756,9.3a1.109,1.109,0,0,1,.321.784A1.1,1.1,0,0,1,19.756,10.867Z" fill="#2e266f"/>
    </g>
  </g>
</svg>
