<svg xmlns="http://www.w3.org/2000/svg" width="15.292" height="25.89" viewBox="0 0 15.292 25.89">
  <g id="download" transform="translate(-30.709 25.846) rotate(-90)">
    <g id="Group_1" data-name="Group 1" transform="translate(-0.045 30.709)">
      <path id="Path_1" data-name="Path 1" d="M25.476,1.278,24.628.424a1.42,1.42,0,0,0-2,0L12.951,10.1,3.266.413a1.42,1.42,0,0,0-2,0l-.848.849a1.418,1.418,0,0,0,0,2L11.946,14.838a1.448,1.448,0,0,0,1,.454h0a1.447,1.447,0,0,0,1-.454L25.476,3.3a1.43,1.43,0,0,0,.414-1.012A1.416,1.416,0,0,0,25.476,1.278Z" fill="#fff"/>
    </g>
  </g>
</svg>
