<svg xmlns="http://www.w3.org/2000/svg" width="40.38" height="38.444" viewBox="0 0 40.38 38.444">
  <g id="bill" transform="translate(0 -0.39)">
    <path id="Path_212" data-name="Path 212" d="M348.533,42.037l.053,0a.654.654,0,0,0,.09-.007,1.462,1.462,0,0,1,1.432,1.46.654.654,0,0,0,1.308,0,2.774,2.774,0,0,0-2.177-2.705v-.629a.654.654,0,0,0-1.308,0v.658a2.77,2.77,0,0,0,.716,5.446,1.462,1.462,0,1,1-1.461,1.462.654.654,0,0,0-1.308,0,2.774,2.774,0,0,0,2.054,2.676v.717a.654.654,0,0,0,1.308,0V50.43a2.77,2.77,0,0,0-.593-5.475,1.461,1.461,0,0,1-.114-2.917Zm0,0" transform="translate(-317.593 -35.915)" fill="#2e266f"/>
    <path id="Path_213" data-name="Path 213" d="M31.092.39a9.387,9.387,0,0,0-8.746,6.143H6.108a.684.684,0,0,0-.654.684L5.3,30.166H.671A.643.643,0,0,0,0,30.79V33.7A5.139,5.139,0,0,0,4.906,38.82v.014h20.2v-.019c.164.006.231.019.334.019h.014A5.139,5.139,0,0,0,30.584,33.7V18.971c.164.009.337.014.506.014a9.3,9.3,0,0,0,0-18.595ZM5.155,37.526h0A3.848,3.848,0,0,1,1.308,33.7V31.475H20.28v2.211A5.132,5.132,0,0,0,21.8,37.323c.069.069.154.122.226.2ZM29.276,33.7a3.83,3.83,0,0,1-3.823,3.831h-.012a3.859,3.859,0,0,1-3.852-3.839v-2.9a.6.6,0,0,0-.625-.624H6.608l.15-22.325H21.983A9.83,9.83,0,0,0,21.8,9.658a9.225,9.225,0,0,0,.79,3.744H16.414a.654.654,0,1,0,0,1.308H23.3a9.232,9.232,0,0,0,5.973,4.1Zm1.816-16.019a7.98,7.98,0,1,1,7.98-7.98A7.98,7.98,0,0,1,31.092,17.677Zm0,0" fill="#2e266f"/>
    <path id="Path_214" data-name="Path 214" d="M125.855,212.746a2.029,2.029,0,1,0,2.094,2.027A2.064,2.064,0,0,0,125.855,212.746Zm0,2.747a.722.722,0,1,1,.786-.719A.755.755,0,0,1,125.855,215.493Zm0,0" transform="translate(-113.641 -194.99)" fill="#2e266f"/>
    <path id="Path_215" data-name="Path 215" d="M192.719,230.158a.654.654,0,0,0,.654.654H202.1a.654.654,0,0,0,0-1.308h-8.722A.654.654,0,0,0,192.719,230.158Zm0,0" transform="translate(-176.959 -210.377)" fill="#2e266f"/>
    <path id="Path_216" data-name="Path 216" d="M125.855,143.2a2.029,2.029,0,1,0,2.094,2.028A2.064,2.064,0,0,0,125.855,143.2Zm0,2.747a.722.722,0,1,1,.786-.719.755.755,0,0,1-.786.719Zm0,0" transform="translate(-113.641 -131.134)" fill="#2e266f"/>
    <path id="Path_217" data-name="Path 217" d="M125.855,282.281a2.029,2.029,0,1,0,2.094,2.027A2.064,2.064,0,0,0,125.855,282.281Zm0,2.747a.722.722,0,1,1,.786-.719A.755.755,0,0,1,125.855,285.028Zm0,0" transform="translate(-113.641 -258.839)" fill="#2e266f"/>
    <path id="Path_218" data-name="Path 218" d="M202.1,299.5h-8.722a.654.654,0,1,0,0,1.308H202.1a.654.654,0,1,0,0-1.308Zm0,0" transform="translate(-176.959 -274.653)" fill="#2e266f"/>
  </g>
</svg>
