<svg xmlns="http://www.w3.org/2000/svg" width="40.181" height="32.961" viewBox="0 0 40.181 32.961">
  <path id="Path_116" data-name="Path 116" d="M40.181,70.328a2.357,2.357,0,0,0-2.354-2.354h-.785V65.445c.032-.028.065-.055.1-.084a3.986,3.986,0,0,1,2.267-.77.785.785,0,0,0-.01-1.569h-.01a5.99,5.99,0,0,0-2.344.554V61.518A2.351,2.351,0,0,0,38.5,59.051,14.923,14.923,0,0,0,23.7,46H16.48a14.923,14.923,0,0,0-14.8,13.051,2.351,2.351,0,0,0,1.454,2.467v2.022a5.88,5.88,0,0,0-2.365-.52.785.785,0,0,0,.01,1.569H.8a3.9,3.9,0,0,1,2.322.767l.022.019v2.6H2.354a2.354,2.354,0,0,0-.386,4.676,2.232,2.232,0,0,0-.027,1.516,7.062,7.062,0,0,0,6.691,4.795H31.548a7.062,7.062,0,0,0,6.691-4.8,2.231,2.231,0,0,0-.027-1.515A2.354,2.354,0,0,0,40.181,70.328ZM3.242,59.245A13.351,13.351,0,0,1,16.48,47.57H23.7A13.351,13.351,0,0,1,36.939,59.246a.793.793,0,0,1-.734.878h-.016l-.04,0H4.032A.8.8,0,0,1,3.242,59.245ZM32.43,64.2a4.114,4.114,0,0,0-5.766,0,2.549,2.549,0,0,1-3.651,0,4.114,4.114,0,0,0-5.766,0,2.549,2.549,0,0,1-3.651,0,4.114,4.114,0,0,0-5.767,0,2.5,2.5,0,0,1-3.12.4V61.7H35.472v2.947A2.513,2.513,0,0,1,32.43,64.2Zm3.042,2.144v1.629H4.709V66.321A3.949,3.949,0,0,0,6,66.542,4.268,4.268,0,0,0,8.887,65.36a2.549,2.549,0,0,1,3.651,0,4.113,4.113,0,0,0,5.766,0,2.549,2.549,0,0,1,3.651,0,4.113,4.113,0,0,0,5.766,0,2.549,2.549,0,0,1,3.651,0A4.124,4.124,0,0,0,35.472,66.345Zm1.281,7.317a5.493,5.493,0,0,1-5.2,3.729H8.633a5.493,5.493,0,0,1-5.2-3.729.777.777,0,0,1,.767-.98h31.79A.778.778,0,0,1,36.753,73.662Zm1.074-2.549H2.354a.785.785,0,0,1,0-1.57H37.827a.785.785,0,1,1,0,1.57Z" transform="translate(0 -46)" fill="#707070"/>
</svg>
