<svg xmlns="http://www.w3.org/2000/svg" width="33.581" height="40.551" viewBox="0 0 33.581 40.551">
  <g id="checklist" transform="translate(-44.001)">
    <g id="Group_324" data-name="Group 324" transform="translate(60 12.039)">
      <g id="Group_323" data-name="Group 323">
        <path id="Path_278" data-name="Path 278" d="M258.2,152H246.793a.792.792,0,0,0,0,1.584H258.2a.792.792,0,1,0,0-1.584Z" transform="translate(-246.001 -152)" fill="#fff"/>
      </g>
    </g>
    <g id="Group_326" data-name="Group 326" transform="translate(68.073 15.84)">
      <g id="Group_325" data-name="Group 325">
        <path id="Path_279" data-name="Path 279" d="M349.293,200.233a.792.792,0,1,0,.232.56A.8.8,0,0,0,349.293,200.233Z" transform="translate(-347.941 -200.001)" fill="#fff"/>
      </g>
    </g>
    <g id="Group_328" data-name="Group 328" transform="translate(59.999 3.406)">
      <g id="Group_327" data-name="Group 327" transform="translate(0)">
        <path id="Path_280" data-name="Path 280" d="M247.343,43.233a.792.792,0,1,0,.232.56A.8.8,0,0,0,247.343,43.233Z" transform="translate(-245.991 -43.001)" fill="#fff"/>
      </g>
    </g>
    <g id="Group_330" data-name="Group 330" transform="translate(60 15.84)">
      <g id="Group_329" data-name="Group 329">
        <path id="Path_281" data-name="Path 281" d="M251.535,200h-4.742a.792.792,0,1,0,0,1.584h4.742a.792.792,0,1,0,0-1.584Z" transform="translate(-246.001 -200)" fill="#fff"/>
      </g>
    </g>
    <g id="Group_332" data-name="Group 332" transform="translate(60 20.592)">
      <g id="Group_331" data-name="Group 331">
        <path id="Path_282" data-name="Path 282" d="M258.2,260H246.793a.792.792,0,0,0,0,1.584H258.2a.792.792,0,1,0,0-1.584Z" transform="translate(-246.001 -260)" fill="#fff"/>
      </g>
    </g>
    <g id="Group_334" data-name="Group 334" transform="translate(68.073 24.394)">
      <g id="Group_333" data-name="Group 333">
        <path id="Path_283" data-name="Path 283" d="M349.293,308.233a.792.792,0,1,0,.232.56A.8.8,0,0,0,349.293,308.233Z" transform="translate(-347.941 -308.001)" fill="#fff"/>
      </g>
    </g>
    <g id="Group_336" data-name="Group 336" transform="translate(60 24.394)">
      <g id="Group_335" data-name="Group 335">
        <path id="Path_284" data-name="Path 284" d="M251.535,308h-4.742a.792.792,0,0,0,0,1.584h4.742a.792.792,0,0,0,0-1.584Z" transform="translate(-246.001 -308)" fill="#fff"/>
      </g>
    </g>
    <g id="Group_338" data-name="Group 338" transform="translate(60 29.146)">
      <g id="Group_337" data-name="Group 337">
        <path id="Path_285" data-name="Path 285" d="M258.2,368H246.793a.792.792,0,0,0,0,1.584H258.2a.792.792,0,1,0,0-1.584Z" transform="translate(-246.001 -368)" fill="#fff"/>
      </g>
    </g>
    <g id="Group_340" data-name="Group 340" transform="translate(68.073 32.948)">
      <g id="Group_339" data-name="Group 339">
        <path id="Path_286" data-name="Path 286" d="M349.293,416.233a.792.792,0,1,0,.232.56A.8.8,0,0,0,349.293,416.233Z" transform="translate(-347.941 -416.001)" fill="#fff"/>
      </g>
    </g>
    <g id="Group_342" data-name="Group 342" transform="translate(60 32.948)">
      <g id="Group_341" data-name="Group 341">
        <path id="Path_287" data-name="Path 287" d="M251.535,416h-4.742a.792.792,0,1,0,0,1.584h4.742a.792.792,0,1,0,0-1.584Z" transform="translate(-246.001 -416)" fill="#fff"/>
      </g>
    </g>
    <g id="Group_344" data-name="Group 344" transform="translate(44.001)">
      <g id="Group_343" data-name="Group 343">
        <path id="Path_288" data-name="Path 288" d="M73.72,3.089H67.671a4.853,4.853,0,0,0-3.357-1.346H63.62a3.168,3.168,0,0,0-5.658,0h-.7A4.852,4.852,0,0,0,53.91,3.089H47.863A3.866,3.866,0,0,0,44,6.951V36.689a3.866,3.866,0,0,0,3.862,3.862H73.72a3.866,3.866,0,0,0,3.862-3.862V6.951A3.866,3.866,0,0,0,73.72,3.089Zm-16.453.238H58.5a.792.792,0,0,0,.763-.581,1.584,1.584,0,0,1,3.053,0,.792.792,0,0,0,.763.581h1.233a3.291,3.291,0,0,1,3.275,3.01h-13.6A3.291,3.291,0,0,1,57.267,3.326ZM76,36.689a2.28,2.28,0,0,1-2.278,2.278H47.863a2.28,2.28,0,0,1-2.278-2.278V6.951a2.28,2.28,0,0,1,2.278-2.278H52.8a4.842,4.842,0,0,0-.4,1.94v.515a.792.792,0,0,0,.792.792h15.2a.792.792,0,0,0,.792-.792V6.613a4.842,4.842,0,0,0-.4-1.94h4.94A2.28,2.28,0,0,1,76,6.951Z" transform="translate(-44.001)" fill="#fff"/>
      </g>
    </g>
    <g id="Group_346" data-name="Group 346" transform="translate(48.853 11.616)">
      <g id="Group_345" data-name="Group 345" transform="translate(0)">
        <path id="Path_289" data-name="Path 289" d="M112.163,146.9a.792.792,0,0,0-1.12,0l-3.387,3.387-1.043-1.043a.792.792,0,0,0-1.12,1.12l1.6,1.6a.792.792,0,0,0,1.12,0l3.947-3.947A.792.792,0,0,0,112.163,146.9Z" transform="translate(-105.261 -146.667)" fill="#fff"/>
      </g>
    </g>
    <g id="Group_348" data-name="Group 348" transform="translate(49.228 29.146)">
      <g id="Group_347" data-name="Group 347" transform="translate(0)">
        <path id="Path_290" data-name="Path 290" d="M114.595,368h-3.8a.792.792,0,0,0-.792.792v3.8a.792.792,0,0,0,.792.792h3.8a.792.792,0,0,0,.792-.792v-3.8A.792.792,0,0,0,114.595,368Zm-.792,3.8h-2.218v-2.218H113.8Z" transform="translate(-110.001 -368)" fill="#fff"/>
      </g>
    </g>
    <g id="Group_350" data-name="Group 350" transform="translate(49.228 20.592)">
      <g id="Group_349" data-name="Group 349" transform="translate(0)">
        <path id="Path_291" data-name="Path 291" d="M114.595,260h-3.8a.792.792,0,0,0-.792.792v3.8a.792.792,0,0,0,.792.792h3.8a.792.792,0,0,0,.792-.792v-3.8A.792.792,0,0,0,114.595,260Zm-.792,3.8h-2.218v-2.218H113.8Z" transform="translate(-110.001 -260)" fill="#fff"/>
      </g>
    </g>
  </g>
</svg>
