<svg xmlns="http://www.w3.org/2000/svg" width="130.677" height="107.101" viewBox="0 0 130.677 107.101">
  <g id="comment_1_" data-name="comment (1)" transform="translate(0 -46.185)">
    <g id="Group_306" data-name="Group 306" transform="translate(0 46.185)">
      <g id="Group_305" data-name="Group 305">
        <path id="Path_259" data-name="Path 259" d="M111.508,46.185H19.166A19.189,19.189,0,0,0,0,65.353v42.829a19.2,19.2,0,0,0,16.6,19v23.544a2.562,2.562,0,0,0,4.374,1.812l25.185-25.185h65.345a19.19,19.19,0,0,0,19.168-19.168V65.353A19.19,19.19,0,0,0,111.508,46.185Zm14.044,62a14.06,14.06,0,0,1-14.044,14.044H45.1a2.563,2.563,0,0,0-1.812.75L21.728,144.538v-19.75a2.562,2.562,0,0,0-2.562-2.562A14.058,14.058,0,0,1,5.124,108.182V65.353A14.058,14.058,0,0,1,19.166,51.309h92.342a14.06,14.06,0,0,1,14.044,14.044v42.829Z" transform="translate(0 -46.185)" fill="#2e266f"/>
      </g>
    </g>
    <g id="Group_308" data-name="Group 308" transform="translate(88.007 76.64)">
      <g id="Group_307" data-name="Group 307">
        <path id="Path_260" data-name="Path 260" d="M354.943,165.511a10.127,10.127,0,1,0,10.129,10.129A10.139,10.139,0,0,0,354.943,165.511Zm0,15.13a5,5,0,1,1,5-5A5.007,5.007,0,0,1,354.943,180.641Z" transform="translate(-344.817 -165.511)" fill="#2e266f"/>
      </g>
    </g>
    <g id="Group_310" data-name="Group 310" transform="translate(55.21 76.64)">
      <g id="Group_309" data-name="Group 309">
        <path id="Path_261" data-name="Path 261" d="M226.444,165.511A10.127,10.127,0,1,0,236.57,175.64,10.14,10.14,0,0,0,226.444,165.511Zm0,15.13a5,5,0,1,1,5-5A5.009,5.009,0,0,1,226.444,180.641Z" transform="translate(-216.315 -165.511)" fill="#2e266f"/>
      </g>
    </g>
    <g id="Group_312" data-name="Group 312" transform="translate(22.412 76.64)">
      <g id="Group_311" data-name="Group 311">
        <path id="Path_262" data-name="Path 262" d="M97.942,165.511A10.127,10.127,0,1,0,108.07,175.64,10.14,10.14,0,0,0,97.942,165.511Zm0,15.13a5,5,0,1,1,5-5A5.009,5.009,0,0,1,97.942,180.641Z" transform="translate(-87.813 -165.511)" fill="#2e266f"/>
      </g>
    </g>
    <g id="Group_314" data-name="Group 314" transform="translate(76.64 58.996)">
      <g id="Group_313" data-name="Group 313" transform="translate(0 0)">
        <path id="Path_263" data-name="Path 263" d="M326.67,96.381H302.842a2.562,2.562,0,0,0,0,5.124H326.67a2.562,2.562,0,1,0,0-5.124Z" transform="translate(-300.28 -96.381)" fill="#2e266f"/>
      </g>
    </g>
    <g id="Group_316" data-name="Group 316" transform="translate(110.266 58.996)">
      <g id="Group_315" data-name="Group 315" transform="translate(0 0)">
        <path id="Path_264" data-name="Path 264" d="M434.5,96.381c-3.3,0-3.3,5.124,0,5.124S437.806,96.381,434.5,96.381Z" transform="translate(-432.029 -96.381)" fill="#2e266f"/>
      </g>
    </g>
  </g>
</svg>
