<svg xmlns="http://www.w3.org/2000/svg" width="20.924" height="25.763" viewBox="0 0 20.924 25.763">
  <g id="Group_363" data-name="Group 363" transform="translate(-15 -12)">
    <g id="bin" transform="translate(15.003 12.001)">
      <path id="Path_221" data-name="Path 221" d="M223,154.7a.6.6,0,0,0-.6.6v11.4a.6.6,0,0,0,1.207,0v-11.4A.6.6,0,0,0,223,154.7Zm0,0" transform="translate(-208.983 -145.371)" fill="#fff"/>
      <path id="Path_222" data-name="Path 222" d="M105,154.7a.6.6,0,0,0-.6.6v11.4a.6.6,0,1,0,1.207,0v-11.4A.6.6,0,0,0,105,154.7Zm0,0" transform="translate(-98.102 -145.371)" fill="#fff"/>
      <path id="Path_223" data-name="Path 223" d="M1.71,7.668V22.533a3.329,3.329,0,0,0,.885,2.3,2.971,2.971,0,0,0,2.156.932H16.166a2.97,2.97,0,0,0,2.156-.932,3.329,3.329,0,0,0,.885-2.3V7.668a2.3,2.3,0,0,0-.591-4.532H15.527V2.382A2.37,2.37,0,0,0,13.137,0H7.78A2.37,2.37,0,0,0,5.391,2.382v.754H2.3A2.3,2.3,0,0,0,1.71,7.668ZM16.166,24.554H4.751a1.911,1.911,0,0,1-1.834-2.021V7.721H18V22.533a1.911,1.911,0,0,1-1.834,2.021ZM6.6,2.382A1.162,1.162,0,0,1,7.78,1.205h5.357A1.162,1.162,0,0,1,14.32,2.382v.754H6.6ZM2.3,4.343H18.616a1.086,1.086,0,0,1,0,2.172H2.3a1.086,1.086,0,0,1,0-2.172Zm0,0" transform="translate(0 0)" fill="#fff"/>
      <path id="Path_224" data-name="Path 224" d="M164,154.7a.6.6,0,0,0-.6.6v11.4a.6.6,0,0,0,1.207,0v-11.4A.6.6,0,0,0,164,154.7Zm0,0" transform="translate(-153.543 -145.371)" fill="#fff"/>
    </g>
  </g>
</svg>
