<svg xmlns="http://www.w3.org/2000/svg" width="129.591" height="120.49" viewBox="0 0 129.591 120.49">
  <g id="like_1_" data-name="like (1)" transform="translate(0 -1.826)">
    <path id="Path_254" data-name="Path 254" d="M129.377,37.755C127.486,16.934,112.749,1.828,94.306,1.828A34.862,34.862,0,0,0,64.438,19.038C58.165,8.3,47.376,1.826,35.286,1.826,16.845,1.826,2.106,16.932.216,37.752c-.15.92-.763,5.76,1.1,13.653A58.56,58.56,0,0,0,19.26,81.345l45.148,40.971,45.923-40.968a58.567,58.567,0,0,0,17.942-29.942C130.137,43.515,129.524,38.675,129.377,37.755Zm-5.957,12.509A53.558,53.558,0,0,1,107,77.642l-42.558,37.97L22.61,77.652A53.6,53.6,0,0,1,6.171,50.261C4.406,42.792,5.131,38.572,5.134,38.545l.037-.252C6.791,20.052,19.455,6.811,35.286,6.811c11.681,0,21.965,7.178,26.845,18.73l2.3,5.441,2.3-5.441A30.109,30.109,0,0,1,94.308,6.813c15.829,0,28.494,13.242,30.147,31.719C124.46,38.572,125.185,42.794,123.421,50.264Z" transform="translate(0)" fill="#2e266f"/>
    <path id="Path_255" data-name="Path 255" d="M30.922,7.9A24.951,24.951,0,0,0,6,32.827a2.492,2.492,0,1,0,4.985,0A19.962,19.962,0,0,1,30.922,12.889a2.492,2.492,0,1,0,0-4.985Z" transform="translate(8.952 9.07)" fill="#2e266f"/>
  </g>
</svg>
