<svg xmlns="http://www.w3.org/2000/svg" width="19.827" height="25.66" viewBox="0 0 19.827 25.66">
  <g id="Group_313" data-name="Group 313" transform="translate(-291.516 -52)">
    <g id="filter" transform="translate(291.516 52)">
      <g id="Group_85" data-name="Group 85" transform="translate(0.421 4.511)">
        <g id="Group_84" data-name="Group 84">
          <path id="Path_55" data-name="Path 55" d="M85.88,93.939A1,1,0,0,0,85,93.408H82.149a2.856,2.856,0,0,0-5.624,0H73.641a2.205,2.205,0,1,0-3.694,0H67.6a1,1,0,0,0-.832,1.562l6.726,10v5.677a.5.5,0,0,0,.7.459L78.8,109.1a.5.5,0,0,0,.3-.459v-3.67l6.725-10A1,1,0,0,0,85.88,93.939Zm-6.544-1.884a1.857,1.857,0,0,1,1.785,1.353h-3.57A1.857,1.857,0,0,1,79.337,92.055ZM71.794,91a1.2,1.2,0,1,1-1.2,1.2A1.2,1.2,0,0,1,71.794,91Zm6.391,13.536a.5.5,0,0,0-.085.28v3.494l-3.608,1.571v-4.564H76.3a.5.5,0,0,0,0-1H74.257l-5.044-7.5H79.337a.5.5,0,1,0,0-1h-10.8l-.944-1.4H85Z" transform="translate(-66.593 -90)" fill="#ff2d58"/>
        </g>
      </g>
      <g id="Group_87" data-name="Group 87" transform="translate(9.629)">
        <g id="Group_86" data-name="Group 86">
          <path id="Path_56" data-name="Path 56" d="M252.529,0a2.205,2.205,0,1,0,2.205,2.205A2.208,2.208,0,0,0,252.529,0Zm0,3.408a1.2,1.2,0,1,1,1.2-1.2A1.2,1.2,0,0,1,252.529,3.408Z" transform="translate(-250.324)" fill="#ff2d58"/>
        </g>
      </g>
      <g id="Group_89" data-name="Group 89" transform="translate(16.689 2.422)">
        <g id="Group_88" data-name="Group 88">
          <path id="Path_57" data-name="Path 57" d="M391.7,48.333a.5.5,0,0,0-.5.5v2.848a.5.5,0,1,0,1,0V48.834A.5.5,0,0,0,391.7,48.333Z" transform="translate(-391.197 -48.333)" fill="#ff2d58"/>
        </g>
      </g>
      <g id="Group_91" data-name="Group 91" transform="translate(16.689 0.777)">
        <g id="Group_90" data-name="Group 90">
          <path id="Path_58" data-name="Path 58" d="M392.052,15.647A.5.5,0,1,0,392.2,16,.505.505,0,0,0,392.052,15.647Z" transform="translate(-391.197 -15.5)" fill="#ff2d58"/>
        </g>
      </g>
      <g id="Group_93" data-name="Group 93" transform="translate(6.825 0.639)">
        <g id="Group_92" data-name="Group 92">
          <path id="Path_59" data-name="Path 59" d="M194.876,12.755a.5.5,0,0,0-.5.5v2.055a.5.5,0,1,0,1,0V13.256A.5.5,0,0,0,194.876,12.755Z" transform="translate(-194.375 -12.755)" fill="#ff2d58"/>
        </g>
      </g>
      <g id="Group_95" data-name="Group 95">
        <g id="Group_94" data-name="Group 94">
          <path id="Path_60" data-name="Path 60" d="M58.7,0a.5.5,0,0,0-.5.5V3.767a.5.5,0,1,0,1,0V.5A.5.5,0,0,0,58.7,0Z" transform="translate(-58.197 0)" fill="#ff2d58"/>
        </g>
      </g>
      <g id="Group_97" data-name="Group 97" transform="translate(0 5.146)">
        <g id="Group_96" data-name="Group 96">
          <path id="Path_61" data-name="Path 61" d="M59.052,102.817a.5.5,0,1,0,.147.354A.5.5,0,0,0,59.052,102.817Z" transform="translate(-58.197 -102.67)" fill="#ff2d58"/>
        </g>
      </g>
      <g id="Group_99" data-name="Group 99" transform="translate(14.892 10.324)">
        <g id="Group_98" data-name="Group 98">
          <path id="Path_62" data-name="Path 62" d="M356.2,206.147a.5.5,0,1,0,.147.354A.5.5,0,0,0,356.2,206.147Z" transform="translate(-355.347 -206)" fill="#ff2d58"/>
        </g>
      </g>
    </g>
  </g>
</svg>
