<svg xmlns="http://www.w3.org/2000/svg" width="20" height="39.556" viewBox="0 0 20 39.556">
  <g id="Group_358" data-name="Group 358" transform="translate(-126.565)">
    <path id="Path_132" data-name="Path 132" d="M136.565,0c-5.514,0-10,4.785-10,10.666,0,3.163,1.277,5.494,2.512,7.749,1.327,2.423,2.7,4.928,2.7,8.693a.773.773,0,0,0,.773.773h1.111v5.087a3.33,3.33,0,1,0,2.9,5.741,3.329,3.329,0,1,0,2.9-5.741V27.88h1.111a.773.773,0,0,0,.773-.773,14.568,14.568,0,0,1,.137-2.014.773.773,0,1,0-1.53-.215c-.067.475-.111.962-.134,1.456H133.3a18.832,18.832,0,0,0-2.872-8.663c-1.194-2.18-2.322-4.239-2.322-7.006,0-5.029,3.793-9.12,8.455-9.12s8.455,4.091,8.455,9.12c0,2.768-1.128,4.827-2.322,7.007-.335.611-.68,1.242-1.008,1.9a.773.773,0,1,0,1.383.689c.314-.63.652-1.248.98-1.846,1.235-2.255,2.512-4.586,2.512-7.749C146.565,4.785,142.079,0,136.565,0Zm-2.157,34.442a.773.773,0,0,0,.8-.772V27.88h2.718v5.789a.773.773,0,0,0,.8.772h.057a1.785,1.785,0,1,1-1.546,2.674l0,0a1.778,1.778,0,0,1-.232-.875V36.2a.773.773,0,0,0-1.545-.03c0,.022,0,.045,0,.067a3.325,3.325,0,0,0,.218,1.184,1.784,1.784,0,1,1-1.321-2.98Z" fill="#707070"/>
    <g id="Group_184" data-name="Group 184" transform="translate(130.005 4.574)">
      <g id="Group_183" data-name="Group 183" transform="translate(0)">
        <path id="Path_134" data-name="Path 134" d="M175.42,59.585a.773.773,0,0,0-1.056-.281,6.56,6.56,0,0,0-3.022,7.464.773.773,0,1,0,1.487-.421,5.015,5.015,0,0,1,2.31-5.706A.773.773,0,0,0,175.42,59.585Z" transform="translate(-171.093 -59.2)" fill="#707070"/>
      </g>
    </g>
  </g>
</svg>
