<svg xmlns="http://www.w3.org/2000/svg" width="40" height="40" viewBox="0 0 40 40">
  <path id="global" d="M20,0A20,20,0,1,0,40,20,20,20,0,0,0,20,0ZM37.3,27.006l-5.688.981a29.846,29.846,0,0,0,1.047-7.321H38.65a18.543,18.543,0,0,1-1.353,6.34ZM1.35,20.667H7.344a29.846,29.846,0,0,0,1.047,7.321L2.7,27.007a18.543,18.543,0,0,1-1.353-6.34ZM2.7,12.993l5.688-.981a29.846,29.846,0,0,0-1.047,7.321H1.35A18.543,18.543,0,0,1,2.7,12.993ZM20.667,10.7a45.862,45.862,0,0,1,7.147.653l2.353.406a28.616,28.616,0,0,1,1.157,7.571H20.667Zm7.374-.661a47.256,47.256,0,0,0-7.374-.672v-8c3.822.367,7.142,3.867,9.023,8.959Zm-8.707-.672a47.247,47.247,0,0,0-7.373.672l-1.65.285c1.882-5.094,5.2-8.595,9.023-8.96Zm-7.146,1.986a45.85,45.85,0,0,1,7.146-.653v8.629H8.677a28.617,28.617,0,0,1,1.157-7.571Zm-3.51,9.31H19.333V29.3a45.862,45.862,0,0,1-7.147-.653l-2.353-.406a28.616,28.616,0,0,1-1.157-7.571Zm3.283,9.291a47.414,47.414,0,0,0,7.374.675v8c-3.822-.368-7.142-3.867-9.023-8.96Zm8.707.675a47.41,47.41,0,0,0,7.373-.675l1.65-.285c-1.882,5.094-5.2,8.595-9.023,8.96Zm7.146-1.99a45.851,45.851,0,0,1-7.146.653V20.667H31.323a28.617,28.617,0,0,1-1.157,7.571Zm4.843-9.31a29.846,29.846,0,0,0-1.047-7.321l5.688.981a18.543,18.543,0,0,1,1.353,6.34Zm3.967-7.809-5.452-.941a18.384,18.384,0,0,0-5.3-8.3,18.755,18.755,0,0,1,10.756,9.241ZM14.133,2.283a18.384,18.384,0,0,0-5.3,8.3l-5.452.941A18.755,18.755,0,0,1,14.133,2.283ZM3.377,28.476l5.452.941a18.384,18.384,0,0,0,5.3,8.3A18.755,18.755,0,0,1,3.377,28.476Zm22.489,9.241a18.384,18.384,0,0,0,5.3-8.3l5.452-.941a18.755,18.755,0,0,1-10.756,9.241Zm0,0" fill="#ff2d58"/>
</svg>
