<svg xmlns="http://www.w3.org/2000/svg" width="30.498" height="26.813" viewBox="0 0 30.498 26.813">
  <path id="Path_106" data-name="Path 106" d="M28.035,30.99A8.445,8.445,0,0,0,16.093,31l-.834.834-.847-.847A8.437,8.437,0,0,0,2.47,30.971a8.437,8.437,0,0,0,.013,11.942L14.626,55.055a.866.866,0,0,0,1.228.006L28.022,42.939a8.46,8.46,0,0,0,.013-11.948ZM26.794,41.7,15.24,53.212,3.712,41.684a6.693,6.693,0,1,1,9.466-9.466l1.461,1.461a.87.87,0,0,0,1.235,0l1.448-1.448A6.7,6.7,0,0,1,26.794,41.7Z" transform="translate(0 -28.501)" fill="#707070"/>
</svg>
