<svg xmlns="http://www.w3.org/2000/svg" xmlns:xlink="http://www.w3.org/1999/xlink" width="558" height="456" viewBox="0 0 558 456">
  <defs>
    <clipPath id="clip-path">
      <rect width="558" height="456" fill="none"/>
    </clipPath>
  </defs>
  <g id="Group_360" data-name="Group 360" transform="translate(-1233 -3255)">
    <g id="Group_359" data-name="Group 359">
      <g id="Group_358" data-name="Group 358">
        <g id="Repeat_Grid_10" data-name="Repeat Grid 10" transform="translate(1233 3255)" opacity="0.2" clip-path="url(#clip-path)">
          <g transform="translate(-530 -178)">
            <circle id="Ellipse_1" data-name="Ellipse 1" cx="5" cy="5" r="5" transform="translate(530 178)" fill="#acacac"/>
          </g>
          <g transform="translate(-492 -178)">
            <circle id="Ellipse_1-2" data-name="Ellipse 1" cx="5" cy="5" r="5" transform="translate(530 178)" fill="#acacac"/>
          </g>
          <g transform="translate(-454 -178)">
            <circle id="Ellipse_1-3" data-name="Ellipse 1" cx="5" cy="5" r="5" transform="translate(530 178)" fill="#acacac"/>
          </g>
          <g transform="translate(-416 -178)">
            <circle id="Ellipse_1-4" data-name="Ellipse 1" cx="5" cy="5" r="5" transform="translate(530 178)" fill="#acacac"/>
          </g>
          <g transform="translate(-378 -178)">
            <circle id="Ellipse_1-5" data-name="Ellipse 1" cx="5" cy="5" r="5" transform="translate(530 178)" fill="#acacac"/>
          </g>
          <g transform="translate(-340 -178)">
            <circle id="Ellipse_1-6" data-name="Ellipse 1" cx="5" cy="5" r="5" transform="translate(530 178)" fill="#acacac"/>
          </g>
          <g transform="translate(-302 -178)">
            <circle id="Ellipse_1-7" data-name="Ellipse 1" cx="5" cy="5" r="5" transform="translate(530 178)" fill="#acacac"/>
          </g>
          <g transform="translate(-264 -178)">
            <circle id="Ellipse_1-8" data-name="Ellipse 1" cx="5" cy="5" r="5" transform="translate(530 178)" fill="#acacac"/>
          </g>
          <g transform="translate(-226 -178)">
            <circle id="Ellipse_1-9" data-name="Ellipse 1" cx="5" cy="5" r="5" transform="translate(530 178)" fill="#acacac"/>
          </g>
          <g transform="translate(-188 -178)">
            <circle id="Ellipse_1-10" data-name="Ellipse 1" cx="5" cy="5" r="5" transform="translate(530 178)" fill="#acacac"/>
          </g>
          <g transform="translate(-150 -178)">
            <circle id="Ellipse_1-11" data-name="Ellipse 1" cx="5" cy="5" r="5" transform="translate(530 178)" fill="#acacac"/>
          </g>
          <g transform="translate(-112 -178)">
            <circle id="Ellipse_1-12" data-name="Ellipse 1" cx="5" cy="5" r="5" transform="translate(530 178)" fill="#acacac"/>
          </g>
          <g transform="translate(-74 -178)">
            <circle id="Ellipse_1-13" data-name="Ellipse 1" cx="5" cy="5" r="5" transform="translate(530 178)" fill="#acacac"/>
          </g>
          <g transform="translate(-36 -178)">
            <circle id="Ellipse_1-14" data-name="Ellipse 1" cx="5" cy="5" r="5" transform="translate(530 178)" fill="#acacac"/>
          </g>
          <g transform="translate(2 -178)">
            <circle id="Ellipse_1-15" data-name="Ellipse 1" cx="5" cy="5" r="5" transform="translate(530 178)" fill="#acacac"/>
          </g>
          <g transform="translate(-530 -140)">
            <circle id="Ellipse_1-16" data-name="Ellipse 1" cx="5" cy="5" r="5" transform="translate(530 178)" fill="#acacac"/>
          </g>
          <g transform="translate(-492 -140)">
            <circle id="Ellipse_1-17" data-name="Ellipse 1" cx="5" cy="5" r="5" transform="translate(530 178)" fill="#acacac"/>
          </g>
          <g transform="translate(-454 -140)">
            <circle id="Ellipse_1-18" data-name="Ellipse 1" cx="5" cy="5" r="5" transform="translate(530 178)" fill="#acacac"/>
          </g>
          <g transform="translate(-416 -140)">
            <circle id="Ellipse_1-19" data-name="Ellipse 1" cx="5" cy="5" r="5" transform="translate(530 178)" fill="#acacac"/>
          </g>
          <g transform="translate(-378 -140)">
            <circle id="Ellipse_1-20" data-name="Ellipse 1" cx="5" cy="5" r="5" transform="translate(530 178)" fill="#acacac"/>
          </g>
          <g transform="translate(-340 -140)">
            <circle id="Ellipse_1-21" data-name="Ellipse 1" cx="5" cy="5" r="5" transform="translate(530 178)" fill="#acacac"/>
          </g>
          <g transform="translate(-302 -140)">
            <circle id="Ellipse_1-22" data-name="Ellipse 1" cx="5" cy="5" r="5" transform="translate(530 178)" fill="#acacac"/>
          </g>
          <g transform="translate(-264 -140)">
            <circle id="Ellipse_1-23" data-name="Ellipse 1" cx="5" cy="5" r="5" transform="translate(530 178)" fill="#acacac"/>
          </g>
          <g transform="translate(-226 -140)">
            <circle id="Ellipse_1-24" data-name="Ellipse 1" cx="5" cy="5" r="5" transform="translate(530 178)" fill="#acacac"/>
          </g>
          <g transform="translate(-188 -140)">
            <circle id="Ellipse_1-25" data-name="Ellipse 1" cx="5" cy="5" r="5" transform="translate(530 178)" fill="#acacac"/>
          </g>
          <g transform="translate(-150 -140)">
            <circle id="Ellipse_1-26" data-name="Ellipse 1" cx="5" cy="5" r="5" transform="translate(530 178)" fill="#acacac"/>
          </g>
          <g transform="translate(-112 -140)">
            <circle id="Ellipse_1-27" data-name="Ellipse 1" cx="5" cy="5" r="5" transform="translate(530 178)" fill="#acacac"/>
          </g>
          <g transform="translate(-74 -140)">
            <circle id="Ellipse_1-28" data-name="Ellipse 1" cx="5" cy="5" r="5" transform="translate(530 178)" fill="#acacac"/>
          </g>
          <g transform="translate(-36 -140)">
            <circle id="Ellipse_1-29" data-name="Ellipse 1" cx="5" cy="5" r="5" transform="translate(530 178)" fill="#acacac"/>
          </g>
          <g transform="translate(2 -140)">
            <circle id="Ellipse_1-30" data-name="Ellipse 1" cx="5" cy="5" r="5" transform="translate(530 178)" fill="#acacac"/>
          </g>
          <g transform="translate(-530 -102)">
            <circle id="Ellipse_1-31" data-name="Ellipse 1" cx="5" cy="5" r="5" transform="translate(530 178)" fill="#acacac"/>
          </g>
          <g transform="translate(-492 -102)">
            <circle id="Ellipse_1-32" data-name="Ellipse 1" cx="5" cy="5" r="5" transform="translate(530 178)" fill="#acacac"/>
          </g>
          <g transform="translate(-454 -102)">
            <circle id="Ellipse_1-33" data-name="Ellipse 1" cx="5" cy="5" r="5" transform="translate(530 178)" fill="#acacac"/>
          </g>
          <g transform="translate(-416 -102)">
            <circle id="Ellipse_1-34" data-name="Ellipse 1" cx="5" cy="5" r="5" transform="translate(530 178)" fill="#acacac"/>
          </g>
          <g transform="translate(-378 -102)">
            <circle id="Ellipse_1-35" data-name="Ellipse 1" cx="5" cy="5" r="5" transform="translate(530 178)" fill="#acacac"/>
          </g>
          <g transform="translate(-340 -102)">
            <circle id="Ellipse_1-36" data-name="Ellipse 1" cx="5" cy="5" r="5" transform="translate(530 178)" fill="#acacac"/>
          </g>
          <g transform="translate(-302 -102)">
            <circle id="Ellipse_1-37" data-name="Ellipse 1" cx="5" cy="5" r="5" transform="translate(530 178)" fill="#acacac"/>
          </g>
          <g transform="translate(-264 -102)">
            <circle id="Ellipse_1-38" data-name="Ellipse 1" cx="5" cy="5" r="5" transform="translate(530 178)" fill="#acacac"/>
          </g>
          <g transform="translate(-226 -102)">
            <circle id="Ellipse_1-39" data-name="Ellipse 1" cx="5" cy="5" r="5" transform="translate(530 178)" fill="#acacac"/>
          </g>
          <g transform="translate(-188 -102)">
            <circle id="Ellipse_1-40" data-name="Ellipse 1" cx="5" cy="5" r="5" transform="translate(530 178)" fill="#acacac"/>
          </g>
          <g transform="translate(-150 -102)">
            <circle id="Ellipse_1-41" data-name="Ellipse 1" cx="5" cy="5" r="5" transform="translate(530 178)" fill="#acacac"/>
          </g>
          <g transform="translate(-112 -102)">
            <circle id="Ellipse_1-42" data-name="Ellipse 1" cx="5" cy="5" r="5" transform="translate(530 178)" fill="#acacac"/>
          </g>
          <g transform="translate(-74 -102)">
            <circle id="Ellipse_1-43" data-name="Ellipse 1" cx="5" cy="5" r="5" transform="translate(530 178)" fill="#acacac"/>
          </g>
          <g transform="translate(-36 -102)">
            <circle id="Ellipse_1-44" data-name="Ellipse 1" cx="5" cy="5" r="5" transform="translate(530 178)" fill="#acacac"/>
          </g>
          <g transform="translate(2 -102)">
            <circle id="Ellipse_1-45" data-name="Ellipse 1" cx="5" cy="5" r="5" transform="translate(530 178)" fill="#acacac"/>
          </g>
          <g transform="translate(-530 -64)">
            <circle id="Ellipse_1-46" data-name="Ellipse 1" cx="5" cy="5" r="5" transform="translate(530 178)" fill="#acacac"/>
          </g>
          <g transform="translate(-492 -64)">
            <circle id="Ellipse_1-47" data-name="Ellipse 1" cx="5" cy="5" r="5" transform="translate(530 178)" fill="#acacac"/>
          </g>
          <g transform="translate(-454 -64)">
            <circle id="Ellipse_1-48" data-name="Ellipse 1" cx="5" cy="5" r="5" transform="translate(530 178)" fill="#acacac"/>
          </g>
          <g transform="translate(-416 -64)">
            <circle id="Ellipse_1-49" data-name="Ellipse 1" cx="5" cy="5" r="5" transform="translate(530 178)" fill="#acacac"/>
          </g>
          <g transform="translate(-378 -64)">
            <circle id="Ellipse_1-50" data-name="Ellipse 1" cx="5" cy="5" r="5" transform="translate(530 178)" fill="#acacac"/>
          </g>
          <g transform="translate(-340 -64)">
            <circle id="Ellipse_1-51" data-name="Ellipse 1" cx="5" cy="5" r="5" transform="translate(530 178)" fill="#acacac"/>
          </g>
          <g transform="translate(-302 -64)">
            <circle id="Ellipse_1-52" data-name="Ellipse 1" cx="5" cy="5" r="5" transform="translate(530 178)" fill="#acacac"/>
          </g>
          <g transform="translate(-264 -64)">
            <circle id="Ellipse_1-53" data-name="Ellipse 1" cx="5" cy="5" r="5" transform="translate(530 178)" fill="#acacac"/>
          </g>
          <g transform="translate(-226 -64)">
            <circle id="Ellipse_1-54" data-name="Ellipse 1" cx="5" cy="5" r="5" transform="translate(530 178)" fill="#acacac"/>
          </g>
          <g transform="translate(-188 -64)">
            <circle id="Ellipse_1-55" data-name="Ellipse 1" cx="5" cy="5" r="5" transform="translate(530 178)" fill="#acacac"/>
          </g>
          <g transform="translate(-150 -64)">
            <circle id="Ellipse_1-56" data-name="Ellipse 1" cx="5" cy="5" r="5" transform="translate(530 178)" fill="#acacac"/>
          </g>
          <g transform="translate(-112 -64)">
            <circle id="Ellipse_1-57" data-name="Ellipse 1" cx="5" cy="5" r="5" transform="translate(530 178)" fill="#acacac"/>
          </g>
          <g transform="translate(-74 -64)">
            <circle id="Ellipse_1-58" data-name="Ellipse 1" cx="5" cy="5" r="5" transform="translate(530 178)" fill="#acacac"/>
          </g>
          <g transform="translate(-36 -64)">
            <circle id="Ellipse_1-59" data-name="Ellipse 1" cx="5" cy="5" r="5" transform="translate(530 178)" fill="#acacac"/>
          </g>
          <g transform="translate(2 -64)">
            <circle id="Ellipse_1-60" data-name="Ellipse 1" cx="5" cy="5" r="5" transform="translate(530 178)" fill="#acacac"/>
          </g>
          <g transform="translate(-530 -26)">
            <circle id="Ellipse_1-61" data-name="Ellipse 1" cx="5" cy="5" r="5" transform="translate(530 178)" fill="#acacac"/>
          </g>
          <g transform="translate(-492 -26)">
            <circle id="Ellipse_1-62" data-name="Ellipse 1" cx="5" cy="5" r="5" transform="translate(530 178)" fill="#acacac"/>
          </g>
          <g transform="translate(-454 -26)">
            <circle id="Ellipse_1-63" data-name="Ellipse 1" cx="5" cy="5" r="5" transform="translate(530 178)" fill="#acacac"/>
          </g>
          <g transform="translate(-416 -26)">
            <circle id="Ellipse_1-64" data-name="Ellipse 1" cx="5" cy="5" r="5" transform="translate(530 178)" fill="#acacac"/>
          </g>
          <g transform="translate(-378 -26)">
            <circle id="Ellipse_1-65" data-name="Ellipse 1" cx="5" cy="5" r="5" transform="translate(530 178)" fill="#acacac"/>
          </g>
          <g transform="translate(-340 -26)">
            <circle id="Ellipse_1-66" data-name="Ellipse 1" cx="5" cy="5" r="5" transform="translate(530 178)" fill="#acacac"/>
          </g>
          <g transform="translate(-302 -26)">
            <circle id="Ellipse_1-67" data-name="Ellipse 1" cx="5" cy="5" r="5" transform="translate(530 178)" fill="#acacac"/>
          </g>
          <g transform="translate(-264 -26)">
            <circle id="Ellipse_1-68" data-name="Ellipse 1" cx="5" cy="5" r="5" transform="translate(530 178)" fill="#acacac"/>
          </g>
          <g transform="translate(-226 -26)">
            <circle id="Ellipse_1-69" data-name="Ellipse 1" cx="5" cy="5" r="5" transform="translate(530 178)" fill="#acacac"/>
          </g>
          <g transform="translate(-188 -26)">
            <circle id="Ellipse_1-70" data-name="Ellipse 1" cx="5" cy="5" r="5" transform="translate(530 178)" fill="#acacac"/>
          </g>
          <g transform="translate(-150 -26)">
            <circle id="Ellipse_1-71" data-name="Ellipse 1" cx="5" cy="5" r="5" transform="translate(530 178)" fill="#acacac"/>
          </g>
          <g transform="translate(-112 -26)">
            <circle id="Ellipse_1-72" data-name="Ellipse 1" cx="5" cy="5" r="5" transform="translate(530 178)" fill="#acacac"/>
          </g>
          <g transform="translate(-74 -26)">
            <circle id="Ellipse_1-73" data-name="Ellipse 1" cx="5" cy="5" r="5" transform="translate(530 178)" fill="#acacac"/>
          </g>
          <g transform="translate(-36 -26)">
            <circle id="Ellipse_1-74" data-name="Ellipse 1" cx="5" cy="5" r="5" transform="translate(530 178)" fill="#acacac"/>
          </g>
          <g transform="translate(2 -26)">
            <circle id="Ellipse_1-75" data-name="Ellipse 1" cx="5" cy="5" r="5" transform="translate(530 178)" fill="#acacac"/>
          </g>
          <g transform="translate(-530 12)">
            <circle id="Ellipse_1-76" data-name="Ellipse 1" cx="5" cy="5" r="5" transform="translate(530 178)" fill="#acacac"/>
          </g>
          <g transform="translate(-492 12)">
            <circle id="Ellipse_1-77" data-name="Ellipse 1" cx="5" cy="5" r="5" transform="translate(530 178)" fill="#acacac"/>
          </g>
          <g transform="translate(-454 12)">
            <circle id="Ellipse_1-78" data-name="Ellipse 1" cx="5" cy="5" r="5" transform="translate(530 178)" fill="#acacac"/>
          </g>
          <g transform="translate(-416 12)">
            <circle id="Ellipse_1-79" data-name="Ellipse 1" cx="5" cy="5" r="5" transform="translate(530 178)" fill="#acacac"/>
          </g>
          <g transform="translate(-378 12)">
            <circle id="Ellipse_1-80" data-name="Ellipse 1" cx="5" cy="5" r="5" transform="translate(530 178)" fill="#acacac"/>
          </g>
          <g transform="translate(-340 12)">
            <circle id="Ellipse_1-81" data-name="Ellipse 1" cx="5" cy="5" r="5" transform="translate(530 178)" fill="#acacac"/>
          </g>
          <g transform="translate(-302 12)">
            <circle id="Ellipse_1-82" data-name="Ellipse 1" cx="5" cy="5" r="5" transform="translate(530 178)" fill="#acacac"/>
          </g>
          <g transform="translate(-264 12)">
            <circle id="Ellipse_1-83" data-name="Ellipse 1" cx="5" cy="5" r="5" transform="translate(530 178)" fill="#acacac"/>
          </g>
          <g transform="translate(-226 12)">
            <circle id="Ellipse_1-84" data-name="Ellipse 1" cx="5" cy="5" r="5" transform="translate(530 178)" fill="#acacac"/>
          </g>
          <g transform="translate(-188 12)">
            <circle id="Ellipse_1-85" data-name="Ellipse 1" cx="5" cy="5" r="5" transform="translate(530 178)" fill="#acacac"/>
          </g>
          <g transform="translate(-150 12)">
            <circle id="Ellipse_1-86" data-name="Ellipse 1" cx="5" cy="5" r="5" transform="translate(530 178)" fill="#acacac"/>
          </g>
          <g transform="translate(-112 12)">
            <circle id="Ellipse_1-87" data-name="Ellipse 1" cx="5" cy="5" r="5" transform="translate(530 178)" fill="#acacac"/>
          </g>
          <g transform="translate(-74 12)">
            <circle id="Ellipse_1-88" data-name="Ellipse 1" cx="5" cy="5" r="5" transform="translate(530 178)" fill="#acacac"/>
          </g>
          <g transform="translate(-36 12)">
            <circle id="Ellipse_1-89" data-name="Ellipse 1" cx="5" cy="5" r="5" transform="translate(530 178)" fill="#acacac"/>
          </g>
          <g transform="translate(2 12)">
            <circle id="Ellipse_1-90" data-name="Ellipse 1" cx="5" cy="5" r="5" transform="translate(530 178)" fill="#acacac"/>
          </g>
          <g transform="translate(-530 50)">
            <circle id="Ellipse_1-91" data-name="Ellipse 1" cx="5" cy="5" r="5" transform="translate(530 178)" fill="#acacac"/>
          </g>
          <g transform="translate(-492 50)">
            <circle id="Ellipse_1-92" data-name="Ellipse 1" cx="5" cy="5" r="5" transform="translate(530 178)" fill="#acacac"/>
          </g>
          <g transform="translate(-454 50)">
            <circle id="Ellipse_1-93" data-name="Ellipse 1" cx="5" cy="5" r="5" transform="translate(530 178)" fill="#acacac"/>
          </g>
          <g transform="translate(-416 50)">
            <circle id="Ellipse_1-94" data-name="Ellipse 1" cx="5" cy="5" r="5" transform="translate(530 178)" fill="#acacac"/>
          </g>
          <g transform="translate(-378 50)">
            <circle id="Ellipse_1-95" data-name="Ellipse 1" cx="5" cy="5" r="5" transform="translate(530 178)" fill="#acacac"/>
          </g>
          <g transform="translate(-340 50)">
            <circle id="Ellipse_1-96" data-name="Ellipse 1" cx="5" cy="5" r="5" transform="translate(530 178)" fill="#acacac"/>
          </g>
          <g transform="translate(-302 50)">
            <circle id="Ellipse_1-97" data-name="Ellipse 1" cx="5" cy="5" r="5" transform="translate(530 178)" fill="#acacac"/>
          </g>
          <g transform="translate(-264 50)">
            <circle id="Ellipse_1-98" data-name="Ellipse 1" cx="5" cy="5" r="5" transform="translate(530 178)" fill="#acacac"/>
          </g>
          <g transform="translate(-226 50)">
            <circle id="Ellipse_1-99" data-name="Ellipse 1" cx="5" cy="5" r="5" transform="translate(530 178)" fill="#acacac"/>
          </g>
          <g transform="translate(-188 50)">
            <circle id="Ellipse_1-100" data-name="Ellipse 1" cx="5" cy="5" r="5" transform="translate(530 178)" fill="#acacac"/>
          </g>
          <g transform="translate(-150 50)">
            <circle id="Ellipse_1-101" data-name="Ellipse 1" cx="5" cy="5" r="5" transform="translate(530 178)" fill="#acacac"/>
          </g>
          <g transform="translate(-112 50)">
            <circle id="Ellipse_1-102" data-name="Ellipse 1" cx="5" cy="5" r="5" transform="translate(530 178)" fill="#acacac"/>
          </g>
          <g transform="translate(-74 50)">
            <circle id="Ellipse_1-103" data-name="Ellipse 1" cx="5" cy="5" r="5" transform="translate(530 178)" fill="#acacac"/>
          </g>
          <g transform="translate(-36 50)">
            <circle id="Ellipse_1-104" data-name="Ellipse 1" cx="5" cy="5" r="5" transform="translate(530 178)" fill="#acacac"/>
          </g>
          <g transform="translate(2 50)">
            <circle id="Ellipse_1-105" data-name="Ellipse 1" cx="5" cy="5" r="5" transform="translate(530 178)" fill="#acacac"/>
          </g>
          <g transform="translate(-530 88)">
            <circle id="Ellipse_1-106" data-name="Ellipse 1" cx="5" cy="5" r="5" transform="translate(530 178)" fill="#acacac"/>
          </g>
          <g transform="translate(-492 88)">
            <circle id="Ellipse_1-107" data-name="Ellipse 1" cx="5" cy="5" r="5" transform="translate(530 178)" fill="#acacac"/>
          </g>
          <g transform="translate(-454 88)">
            <circle id="Ellipse_1-108" data-name="Ellipse 1" cx="5" cy="5" r="5" transform="translate(530 178)" fill="#acacac"/>
          </g>
          <g transform="translate(-416 88)">
            <circle id="Ellipse_1-109" data-name="Ellipse 1" cx="5" cy="5" r="5" transform="translate(530 178)" fill="#acacac"/>
          </g>
          <g transform="translate(-378 88)">
            <circle id="Ellipse_1-110" data-name="Ellipse 1" cx="5" cy="5" r="5" transform="translate(530 178)" fill="#acacac"/>
          </g>
          <g transform="translate(-340 88)">
            <circle id="Ellipse_1-111" data-name="Ellipse 1" cx="5" cy="5" r="5" transform="translate(530 178)" fill="#acacac"/>
          </g>
          <g transform="translate(-302 88)">
            <circle id="Ellipse_1-112" data-name="Ellipse 1" cx="5" cy="5" r="5" transform="translate(530 178)" fill="#acacac"/>
          </g>
          <g transform="translate(-264 88)">
            <circle id="Ellipse_1-113" data-name="Ellipse 1" cx="5" cy="5" r="5" transform="translate(530 178)" fill="#acacac"/>
          </g>
          <g transform="translate(-226 88)">
            <circle id="Ellipse_1-114" data-name="Ellipse 1" cx="5" cy="5" r="5" transform="translate(530 178)" fill="#acacac"/>
          </g>
          <g transform="translate(-188 88)">
            <circle id="Ellipse_1-115" data-name="Ellipse 1" cx="5" cy="5" r="5" transform="translate(530 178)" fill="#acacac"/>
          </g>
          <g transform="translate(-150 88)">
            <circle id="Ellipse_1-116" data-name="Ellipse 1" cx="5" cy="5" r="5" transform="translate(530 178)" fill="#acacac"/>
          </g>
          <g transform="translate(-112 88)">
            <circle id="Ellipse_1-117" data-name="Ellipse 1" cx="5" cy="5" r="5" transform="translate(530 178)" fill="#acacac"/>
          </g>
          <g transform="translate(-74 88)">
            <circle id="Ellipse_1-118" data-name="Ellipse 1" cx="5" cy="5" r="5" transform="translate(530 178)" fill="#acacac"/>
          </g>
          <g transform="translate(-36 88)">
            <circle id="Ellipse_1-119" data-name="Ellipse 1" cx="5" cy="5" r="5" transform="translate(530 178)" fill="#acacac"/>
          </g>
          <g transform="translate(2 88)">
            <circle id="Ellipse_1-120" data-name="Ellipse 1" cx="5" cy="5" r="5" transform="translate(530 178)" fill="#acacac"/>
          </g>
          <g transform="translate(-530 126)">
            <circle id="Ellipse_1-121" data-name="Ellipse 1" cx="5" cy="5" r="5" transform="translate(530 178)" fill="#acacac"/>
          </g>
          <g transform="translate(-492 126)">
            <circle id="Ellipse_1-122" data-name="Ellipse 1" cx="5" cy="5" r="5" transform="translate(530 178)" fill="#acacac"/>
          </g>
          <g transform="translate(-454 126)">
            <circle id="Ellipse_1-123" data-name="Ellipse 1" cx="5" cy="5" r="5" transform="translate(530 178)" fill="#acacac"/>
          </g>
          <g transform="translate(-416 126)">
            <circle id="Ellipse_1-124" data-name="Ellipse 1" cx="5" cy="5" r="5" transform="translate(530 178)" fill="#acacac"/>
          </g>
          <g transform="translate(-378 126)">
            <circle id="Ellipse_1-125" data-name="Ellipse 1" cx="5" cy="5" r="5" transform="translate(530 178)" fill="#acacac"/>
          </g>
          <g transform="translate(-340 126)">
            <circle id="Ellipse_1-126" data-name="Ellipse 1" cx="5" cy="5" r="5" transform="translate(530 178)" fill="#acacac"/>
          </g>
          <g transform="translate(-302 126)">
            <circle id="Ellipse_1-127" data-name="Ellipse 1" cx="5" cy="5" r="5" transform="translate(530 178)" fill="#acacac"/>
          </g>
          <g transform="translate(-264 126)">
            <circle id="Ellipse_1-128" data-name="Ellipse 1" cx="5" cy="5" r="5" transform="translate(530 178)" fill="#acacac"/>
          </g>
          <g transform="translate(-226 126)">
            <circle id="Ellipse_1-129" data-name="Ellipse 1" cx="5" cy="5" r="5" transform="translate(530 178)" fill="#acacac"/>
          </g>
          <g transform="translate(-188 126)">
            <circle id="Ellipse_1-130" data-name="Ellipse 1" cx="5" cy="5" r="5" transform="translate(530 178)" fill="#acacac"/>
          </g>
          <g transform="translate(-150 126)">
            <circle id="Ellipse_1-131" data-name="Ellipse 1" cx="5" cy="5" r="5" transform="translate(530 178)" fill="#acacac"/>
          </g>
          <g transform="translate(-112 126)">
            <circle id="Ellipse_1-132" data-name="Ellipse 1" cx="5" cy="5" r="5" transform="translate(530 178)" fill="#acacac"/>
          </g>
          <g transform="translate(-74 126)">
            <circle id="Ellipse_1-133" data-name="Ellipse 1" cx="5" cy="5" r="5" transform="translate(530 178)" fill="#acacac"/>
          </g>
          <g transform="translate(-36 126)">
            <circle id="Ellipse_1-134" data-name="Ellipse 1" cx="5" cy="5" r="5" transform="translate(530 178)" fill="#acacac"/>
          </g>
          <g transform="translate(2 126)">
            <circle id="Ellipse_1-135" data-name="Ellipse 1" cx="5" cy="5" r="5" transform="translate(530 178)" fill="#acacac"/>
          </g>
          <g transform="translate(-530 164)">
            <circle id="Ellipse_1-136" data-name="Ellipse 1" cx="5" cy="5" r="5" transform="translate(530 178)" fill="#acacac"/>
          </g>
          <g transform="translate(-492 164)">
            <circle id="Ellipse_1-137" data-name="Ellipse 1" cx="5" cy="5" r="5" transform="translate(530 178)" fill="#acacac"/>
          </g>
          <g transform="translate(-454 164)">
            <circle id="Ellipse_1-138" data-name="Ellipse 1" cx="5" cy="5" r="5" transform="translate(530 178)" fill="#acacac"/>
          </g>
          <g transform="translate(-416 164)">
            <circle id="Ellipse_1-139" data-name="Ellipse 1" cx="5" cy="5" r="5" transform="translate(530 178)" fill="#acacac"/>
          </g>
          <g transform="translate(-378 164)">
            <circle id="Ellipse_1-140" data-name="Ellipse 1" cx="5" cy="5" r="5" transform="translate(530 178)" fill="#acacac"/>
          </g>
          <g transform="translate(-340 164)">
            <circle id="Ellipse_1-141" data-name="Ellipse 1" cx="5" cy="5" r="5" transform="translate(530 178)" fill="#acacac"/>
          </g>
          <g transform="translate(-302 164)">
            <circle id="Ellipse_1-142" data-name="Ellipse 1" cx="5" cy="5" r="5" transform="translate(530 178)" fill="#acacac"/>
          </g>
          <g transform="translate(-264 164)">
            <circle id="Ellipse_1-143" data-name="Ellipse 1" cx="5" cy="5" r="5" transform="translate(530 178)" fill="#acacac"/>
          </g>
          <g transform="translate(-226 164)">
            <circle id="Ellipse_1-144" data-name="Ellipse 1" cx="5" cy="5" r="5" transform="translate(530 178)" fill="#acacac"/>
          </g>
          <g transform="translate(-188 164)">
            <circle id="Ellipse_1-145" data-name="Ellipse 1" cx="5" cy="5" r="5" transform="translate(530 178)" fill="#acacac"/>
          </g>
          <g transform="translate(-150 164)">
            <circle id="Ellipse_1-146" data-name="Ellipse 1" cx="5" cy="5" r="5" transform="translate(530 178)" fill="#acacac"/>
          </g>
          <g transform="translate(-112 164)">
            <circle id="Ellipse_1-147" data-name="Ellipse 1" cx="5" cy="5" r="5" transform="translate(530 178)" fill="#acacac"/>
          </g>
          <g transform="translate(-74 164)">
            <circle id="Ellipse_1-148" data-name="Ellipse 1" cx="5" cy="5" r="5" transform="translate(530 178)" fill="#acacac"/>
          </g>
          <g transform="translate(-36 164)">
            <circle id="Ellipse_1-149" data-name="Ellipse 1" cx="5" cy="5" r="5" transform="translate(530 178)" fill="#acacac"/>
          </g>
          <g transform="translate(2 164)">
            <circle id="Ellipse_1-150" data-name="Ellipse 1" cx="5" cy="5" r="5" transform="translate(530 178)" fill="#acacac"/>
          </g>
          <g transform="translate(-530 202)">
            <circle id="Ellipse_1-151" data-name="Ellipse 1" cx="5" cy="5" r="5" transform="translate(530 178)" fill="#acacac"/>
          </g>
          <g transform="translate(-492 202)">
            <circle id="Ellipse_1-152" data-name="Ellipse 1" cx="5" cy="5" r="5" transform="translate(530 178)" fill="#acacac"/>
          </g>
          <g transform="translate(-454 202)">
            <circle id="Ellipse_1-153" data-name="Ellipse 1" cx="5" cy="5" r="5" transform="translate(530 178)" fill="#acacac"/>
          </g>
          <g transform="translate(-416 202)">
            <circle id="Ellipse_1-154" data-name="Ellipse 1" cx="5" cy="5" r="5" transform="translate(530 178)" fill="#acacac"/>
          </g>
          <g transform="translate(-378 202)">
            <circle id="Ellipse_1-155" data-name="Ellipse 1" cx="5" cy="5" r="5" transform="translate(530 178)" fill="#acacac"/>
          </g>
          <g transform="translate(-340 202)">
            <circle id="Ellipse_1-156" data-name="Ellipse 1" cx="5" cy="5" r="5" transform="translate(530 178)" fill="#acacac"/>
          </g>
          <g transform="translate(-302 202)">
            <circle id="Ellipse_1-157" data-name="Ellipse 1" cx="5" cy="5" r="5" transform="translate(530 178)" fill="#acacac"/>
          </g>
          <g transform="translate(-264 202)">
            <circle id="Ellipse_1-158" data-name="Ellipse 1" cx="5" cy="5" r="5" transform="translate(530 178)" fill="#acacac"/>
          </g>
          <g transform="translate(-226 202)">
            <circle id="Ellipse_1-159" data-name="Ellipse 1" cx="5" cy="5" r="5" transform="translate(530 178)" fill="#acacac"/>
          </g>
          <g transform="translate(-188 202)">
            <circle id="Ellipse_1-160" data-name="Ellipse 1" cx="5" cy="5" r="5" transform="translate(530 178)" fill="#acacac"/>
          </g>
          <g transform="translate(-150 202)">
            <circle id="Ellipse_1-161" data-name="Ellipse 1" cx="5" cy="5" r="5" transform="translate(530 178)" fill="#acacac"/>
          </g>
          <g transform="translate(-112 202)">
            <circle id="Ellipse_1-162" data-name="Ellipse 1" cx="5" cy="5" r="5" transform="translate(530 178)" fill="#acacac"/>
          </g>
          <g transform="translate(-74 202)">
            <circle id="Ellipse_1-163" data-name="Ellipse 1" cx="5" cy="5" r="5" transform="translate(530 178)" fill="#acacac"/>
          </g>
          <g transform="translate(-36 202)">
            <circle id="Ellipse_1-164" data-name="Ellipse 1" cx="5" cy="5" r="5" transform="translate(530 178)" fill="#acacac"/>
          </g>
          <g transform="translate(2 202)">
            <circle id="Ellipse_1-165" data-name="Ellipse 1" cx="5" cy="5" r="5" transform="translate(530 178)" fill="#acacac"/>
          </g>
          <g transform="translate(-530 240)">
            <circle id="Ellipse_1-166" data-name="Ellipse 1" cx="5" cy="5" r="5" transform="translate(530 178)" fill="#acacac"/>
          </g>
          <g transform="translate(-492 240)">
            <circle id="Ellipse_1-167" data-name="Ellipse 1" cx="5" cy="5" r="5" transform="translate(530 178)" fill="#acacac"/>
          </g>
          <g transform="translate(-454 240)">
            <circle id="Ellipse_1-168" data-name="Ellipse 1" cx="5" cy="5" r="5" transform="translate(530 178)" fill="#acacac"/>
          </g>
          <g transform="translate(-416 240)">
            <circle id="Ellipse_1-169" data-name="Ellipse 1" cx="5" cy="5" r="5" transform="translate(530 178)" fill="#acacac"/>
          </g>
          <g transform="translate(-378 240)">
            <circle id="Ellipse_1-170" data-name="Ellipse 1" cx="5" cy="5" r="5" transform="translate(530 178)" fill="#acacac"/>
          </g>
          <g transform="translate(-340 240)">
            <circle id="Ellipse_1-171" data-name="Ellipse 1" cx="5" cy="5" r="5" transform="translate(530 178)" fill="#acacac"/>
          </g>
          <g transform="translate(-302 240)">
            <circle id="Ellipse_1-172" data-name="Ellipse 1" cx="5" cy="5" r="5" transform="translate(530 178)" fill="#acacac"/>
          </g>
          <g transform="translate(-264 240)">
            <circle id="Ellipse_1-173" data-name="Ellipse 1" cx="5" cy="5" r="5" transform="translate(530 178)" fill="#acacac"/>
          </g>
          <g transform="translate(-226 240)">
            <circle id="Ellipse_1-174" data-name="Ellipse 1" cx="5" cy="5" r="5" transform="translate(530 178)" fill="#acacac"/>
          </g>
          <g transform="translate(-188 240)">
            <circle id="Ellipse_1-175" data-name="Ellipse 1" cx="5" cy="5" r="5" transform="translate(530 178)" fill="#acacac"/>
          </g>
          <g transform="translate(-150 240)">
            <circle id="Ellipse_1-176" data-name="Ellipse 1" cx="5" cy="5" r="5" transform="translate(530 178)" fill="#acacac"/>
          </g>
          <g transform="translate(-112 240)">
            <circle id="Ellipse_1-177" data-name="Ellipse 1" cx="5" cy="5" r="5" transform="translate(530 178)" fill="#acacac"/>
          </g>
          <g transform="translate(-74 240)">
            <circle id="Ellipse_1-178" data-name="Ellipse 1" cx="5" cy="5" r="5" transform="translate(530 178)" fill="#acacac"/>
          </g>
          <g transform="translate(-36 240)">
            <circle id="Ellipse_1-179" data-name="Ellipse 1" cx="5" cy="5" r="5" transform="translate(530 178)" fill="#acacac"/>
          </g>
          <g transform="translate(2 240)">
            <circle id="Ellipse_1-180" data-name="Ellipse 1" cx="5" cy="5" r="5" transform="translate(530 178)" fill="#acacac"/>
          </g>
        </g>
      </g>
    </g>
  </g>
</svg>
