<svg xmlns="http://www.w3.org/2000/svg" width="165.208" height="199.497" viewBox="0 0 165.208 199.497">
  <g id="Group_361" data-name="Group 361" transform="translate(-878 -404)">
    <g id="checklist" transform="translate(833.999 404)">
      <path id="Path_292" data-name="Path 292" d="M10.1,0H15.42L6.893,15.9H83.3L79.338,1.512h29.146C114.06,1.512,121.2,4.477,121.2,10V155a10.048,10.048,0,0,1-10.1,10H10.1A10.048,10.048,0,0,1,0,155V10A10.048,10.048,0,0,1,10.1,0Z" transform="translate(80.8 18)" fill="#ff2d58"/>
      <g id="Group_324" data-name="Group 324" transform="translate(122.709 59.226)">
        <g id="Group_323" data-name="Group 323">
          <path id="Path_278" data-name="Path 278" d="M306.007,152H249.9a3.9,3.9,0,1,0,0,7.793h56.109a3.9,3.9,0,1,0,0-7.793Z" transform="translate(-246.001 -152)" fill="#fff"/>
        </g>
      </g>
      <g id="Group_326" data-name="Group 326" transform="translate(162.429 77.929)">
        <g id="Group_325" data-name="Group 325">
          <path id="Path_279" data-name="Path 279" d="M354.592,201.143a3.894,3.894,0,1,0,1.142,2.755A3.926,3.926,0,0,0,354.592,201.143Z" transform="translate(-347.941 -200.001)" fill="#fff"/>
        </g>
      </g>
      <g id="Group_328" data-name="Group 328" transform="translate(122.705 16.755)">
        <g id="Group_327" data-name="Group 327" transform="translate(0)">
          <path id="Path_280" data-name="Path 280" d="M252.642,44.143a3.894,3.894,0,1,0,1.142,2.755A3.926,3.926,0,0,0,252.642,44.143Z" transform="translate(-245.991 -43.001)" fill="#fff"/>
        </g>
      </g>
      <g id="Group_330" data-name="Group 330" transform="translate(122.709 77.928)">
        <g id="Group_329" data-name="Group 329">
          <path id="Path_281" data-name="Path 281" d="M273.228,200H249.9a3.9,3.9,0,1,0,0,7.793h23.331a3.9,3.9,0,1,0,0-7.793Z" transform="translate(-246.001 -200)" fill="#fff"/>
        </g>
      </g>
      <g id="Group_332" data-name="Group 332" transform="translate(122.709 101.307)">
        <g id="Group_331" data-name="Group 331">
          <path id="Path_282" data-name="Path 282" d="M306.007,260H249.9a3.9,3.9,0,0,0,0,7.793h56.109a3.9,3.9,0,0,0,0-7.793Z" transform="translate(-246.001 -260)" fill="#fff"/>
        </g>
      </g>
      <g id="Group_334" data-name="Group 334" transform="translate(162.429 120.01)">
        <g id="Group_333" data-name="Group 333">
          <path id="Path_283" data-name="Path 283" d="M354.592,309.143a3.894,3.894,0,1,0,1.142,2.755A3.926,3.926,0,0,0,354.592,309.143Z" transform="translate(-347.941 -308.001)" fill="#fff"/>
        </g>
      </g>
      <g id="Group_336" data-name="Group 336" transform="translate(122.709 120.01)">
        <g id="Group_335" data-name="Group 335">
          <path id="Path_284" data-name="Path 284" d="M273.228,308H249.9a3.9,3.9,0,0,0,0,7.793h23.331a3.9,3.9,0,1,0,0-7.793Z" transform="translate(-246.001 -308)" fill="#fff"/>
        </g>
      </g>
      <g id="Group_338" data-name="Group 338" transform="translate(122.709 143.388)">
        <g id="Group_337" data-name="Group 337">
          <path id="Path_285" data-name="Path 285" d="M306.007,368H249.9a3.9,3.9,0,0,0,0,7.793h56.109a3.9,3.9,0,0,0,0-7.793Z" transform="translate(-246.001 -368)" fill="#fff"/>
        </g>
      </g>
      <g id="Group_340" data-name="Group 340" transform="translate(162.429 162.091)">
        <g id="Group_339" data-name="Group 339">
          <path id="Path_286" data-name="Path 286" d="M354.592,417.143a3.894,3.894,0,1,0,1.142,2.755A3.926,3.926,0,0,0,354.592,417.143Z" transform="translate(-347.941 -416.001)" fill="#fff"/>
        </g>
      </g>
      <g id="Group_342" data-name="Group 342" transform="translate(122.709 162.091)">
        <g id="Group_341" data-name="Group 341">
          <path id="Path_287" data-name="Path 287" d="M273.228,416H249.9a3.9,3.9,0,0,0,0,7.793h23.331a3.9,3.9,0,1,0,0-7.793Z" transform="translate(-246.001 -416)" fill="#fff"/>
        </g>
      </g>
      <g id="Group_344" data-name="Group 344" transform="translate(44.001)">
        <g id="Group_343" data-name="Group 343">
          <path id="Path_288" data-name="Path 288" d="M190.211,15.2h-29.76a23.873,23.873,0,0,0-16.515-6.624h-3.413a15.584,15.584,0,0,0-27.835,0h-3.421A23.872,23.872,0,0,0,92.751,15.2H63a19.02,19.02,0,0,0-19,19V180.5a19.02,19.02,0,0,0,19,19H190.211a19.02,19.02,0,0,0,19-19V34.195A19.019,19.019,0,0,0,190.211,15.2Zm-80.945,1.169h6.073a3.9,3.9,0,0,0,3.756-2.859,7.793,7.793,0,0,1,15.02,0,3.9,3.9,0,0,0,3.756,2.859h6.065a16.193,16.193,0,0,1,16.113,14.807h-66.9A16.193,16.193,0,0,1,109.266,16.365ZM201.416,180.5A11.218,11.218,0,0,1,190.211,191.7H63A11.218,11.218,0,0,1,51.794,180.5V34.195A11.218,11.218,0,0,1,63,22.989H87.292A23.821,23.821,0,0,0,85.3,32.536v2.533a3.9,3.9,0,0,0,3.9,3.9H164a3.9,3.9,0,0,0,3.9-3.9V32.536a23.822,23.822,0,0,0-1.989-9.546h24.3a11.218,11.218,0,0,1,11.205,11.205Z" transform="translate(-44.001)" fill="#fff"/>
        </g>
      </g>
      <g id="Group_346" data-name="Group 346" transform="translate(67.871 57.148)">
        <g id="Group_345" data-name="Group 345" transform="translate(0)">
          <path id="Path_289" data-name="Path 289" d="M139.218,147.808a3.9,3.9,0,0,0-5.51,0L117.046,164.47l-5.133-5.133a3.9,3.9,0,0,0-5.511,5.511l7.888,7.888a3.9,3.9,0,0,0,5.51,0l19.417-19.417A3.9,3.9,0,0,0,139.218,147.808Z" transform="translate(-105.261 -146.667)" fill="#fff"/>
        </g>
      </g>
      <g id="Group_348" data-name="Group 348" transform="translate(69.717 143.388)">
        <g id="Group_347" data-name="Group 347" transform="translate(0)">
          <path id="Path_290" data-name="Path 290" d="M132.6,368H113.9a3.9,3.9,0,0,0-3.9,3.9v18.7a3.9,3.9,0,0,0,3.9,3.9h18.7a3.9,3.9,0,0,0,3.9-3.9V371.9A3.9,3.9,0,0,0,132.6,368Zm-3.9,18.7h-10.91v-10.91H128.7Z" transform="translate(-110.001 -368)" fill="#fff"/>
        </g>
      </g>
      <g id="Group_350" data-name="Group 350" transform="translate(69.717 101.307)">
        <g id="Group_349" data-name="Group 349" transform="translate(0)">
          <path id="Path_291" data-name="Path 291" d="M132.6,260H113.9a3.9,3.9,0,0,0-3.9,3.9v18.7a3.9,3.9,0,0,0,3.9,3.9h18.7a3.9,3.9,0,0,0,3.9-3.9V263.9A3.9,3.9,0,0,0,132.6,260Zm-3.9,18.7h-10.91v-10.91H128.7Z" transform="translate(-110.001 -260)" fill="#fff"/>
        </g>
      </g>
    </g>
  </g>
</svg>
