<svg xmlns="http://www.w3.org/2000/svg" width="39.371" height="40.387" viewBox="0 0 39.371 40.387">
  <g id="Group_357" data-name="Group 357" transform="translate(-1614 -282)">
    <g id="cook" transform="translate(1614.002 282)">
      <path id="Path_293" data-name="Path 293" d="M13.477,121.256,2.564,118.31a1.974,1.974,0,0,0-.538-.072,2.019,2.019,0,0,0-.526,3.972l10.679,2.883a7.412,7.412,0,0,0,5.462,7.059l10.4,2.807a7.4,7.4,0,0,0,9.078-5.217l.263-.976c.272-1.01-.789-2.062-3.344-3.314a47.869,47.869,0,0,0-8.212-2.947c-1.1-.3-9.633-2.537-12.349-1.248Zm-11.624-.349a.674.674,0,0,1,.355-1.3l10.4,2.807-.176.65c-.059.219-.1.439-.143.66Zm26.539,12.748-10.4-2.807a6.042,6.042,0,0,1-4.025-3.586,27.471,27.471,0,0,0,4.38,2.028.689.689,0,0,0,.237.043.673.673,0,0,0,.237-1.3,17.691,17.691,0,0,1-5.267-2.721c-.008-.008-.018-.01-.026-.017a6.044,6.044,0,0,1,.09-1.369,19.355,19.355,0,0,0,5.148,2.657l.282.105q.262.1.522.192c1.125.41,2.334.808,3.6,1.17.514.151.9.256,1.077.305q.673.181,1.335.344c.1.026.2.049.306.073q.538.131,1.068.248l.24.052q.6.135,1.179.244l.082.016c1.318.255,2.558.441,3.675.551l.035,0c.223.021.447.044.659.058.128.01.245.014.367.021h.035c.337.019.665.032.962.032a8.829,8.829,0,0,0,1.469-.109,6.058,6.058,0,0,1-7.263,3.769Zm2.031-5.351c-.342-.052-.69-.109-1.047-.173l-.186-.032q-.688-.126-1.407-.278l-.119-.026c-.428-.092-.864-.191-1.3-.3l-.292-.067c-.487-.118-.978-.243-1.473-.377s-.982-.273-1.463-.416l-.284-.086c-.432-.13-.858-.264-1.274-.4l-.121-.039q-.695-.229-1.351-.467l-.185-.067q-.5-.186-.982-.375l-.218-.086a54.178,54.178,0,0,1,6.053,1.289,53.923,53.923,0,0,1,5.88,1.937Zm5.621.1a3.775,3.775,0,0,1-1.6.243,42.673,42.673,0,0,0-9.323-3.543,42.083,42.083,0,0,0-9.838-1.636,3.813,3.813,0,0,1-1.259-1.014c.747-.461,4.953-.4,11.448,1.351s10.158,3.826,10.57,4.6Zm0,0" transform="translate(0 -108.29)" fill="#fff"/>
      <path id="Path_294" data-name="Path 294" d="M245.374,245.012q-.65-.192-1.274-.39a.673.673,0,1,0-.408,1.283q.637.2,1.3.4a.7.7,0,0,0,.19.028.673.673,0,0,0,.19-1.319Zm0,0" transform="translate(-222.761 -224.011)" fill="#fff"/>
      <path id="Path_295" data-name="Path 295" d="M291.678,257.981c-.424-.1-.857-.2-1.295-.305a.673.673,0,0,0-.324,1.306q.673.167,1.326.313a.691.691,0,0,0,.147.016.673.673,0,0,0,.145-1.33Zm0,0" transform="translate(-265.199 -235.98)" fill="#fff"/>
      <path id="Path_296" data-name="Path 296" d="M283.727,2.356a2.356,2.356,0,0,0,1.346,2.119V6.731a.673.673,0,0,0,.673.673h2.692a.673.673,0,0,0,.673-.673V4.476A2.35,2.35,0,0,0,288.1,0h-2.019a2.356,2.356,0,0,0-2.356,2.356Zm2.692,3.7V4.712h1.346V6.058Zm2.692-3.7a1.01,1.01,0,0,1-1.01,1.01h-2.019a1.01,1.01,0,1,1,0-2.019H288.1A1.01,1.01,0,0,1,289.112,2.356Zm0,0" transform="translate(-259.857 0)" fill="#fff"/>
      <path id="Path_297" data-name="Path 297" d="M369.712,67.069a.678.678,0,0,0-.148-.494l-2.126-2.609a.673.673,0,0,0-.454-.244.653.653,0,0,0-.493.147L363.883,66a.672.672,0,0,0-.1.947l2.126,2.609a.674.674,0,0,0,.453.245.571.571,0,0,0,.067,0,.674.674,0,0,0,.426-.152l2.609-2.126A.672.672,0,0,0,369.712,67.069Zm-3.182,1.111-1.279-1.565,1.564-1.279,1.279,1.565Zm0,0" transform="translate(-333.041 -58.357)" fill="#fff"/>
      <path id="Path_298" data-name="Path 298" d="M225.112,42.692a2.692,2.692,0,1,0-2.692,2.692A2.692,2.692,0,0,0,225.112,42.692Zm-2.692,1.346a1.346,1.346,0,1,1,1.346-1.346A1.346,1.346,0,0,1,222.419,44.039Zm0,0" transform="translate(-201.242 -36.635)" fill="#fff"/>
      <path id="Path_299" data-name="Path 299" d="M243.727,120h1.346v1.346h-1.346Zm0,0" transform="translate(-223.222 -109.904)" fill="#fff"/>
      <path id="Path_300" data-name="Path 300" d="M315.727,104h1.346v1.346h-1.346Zm0,0" transform="translate(-289.164 -95.25)" fill="#fff"/>
      <path id="Path_301" data-name="Path 301" d="M315.727,136h1.346v2.019h-1.346Zm0,0" transform="translate(-289.164 -124.557)" fill="#fff"/>
      <path id="Path_302" data-name="Path 302" d="M403.727,144h1.346v1.346h-1.346Zm0,0" transform="translate(-369.76 -131.884)" fill="#fff"/>
      <path id="Path_303" data-name="Path 303" d="M403.727,176h1.346v1.346h-1.346Zm0,0" transform="translate(-369.76 -161.192)" fill="#fff"/>
      <path id="Path_304" data-name="Path 304" d="M155.094,350.805l1.5-2.692,1.177.654-1.5,2.692Zm0,0" transform="translate(-142.047 -318.823)" fill="#fff"/>
      <path id="Path_305" data-name="Path 305" d="M137.452,401.627l.639-.213-.638.213.644,1.932,1.279-.425-.644-1.932a4.383,4.383,0,0,1,.326-3.508l-1.177-.654A5.733,5.733,0,0,0,137.452,401.627Zm0,0" transform="translate(-125.622 -363.633)" fill="#fff"/>
      <path id="Path_306" data-name="Path 306" d="M186.953,333l.643-1.932a5.731,5.731,0,0,0-.426-4.588l-2.288-4.117a.673.673,0,0,0-1.259.327v3.7c0,.121-.006.242-.015.363a6.729,6.729,0,0,0-.6-1.472l-2.745-4.94a.673.673,0,0,0-1.261.327v4.443a5.416,5.416,0,0,1-1.077,3.231,6.692,6.692,0,0,0-.649,1.069c-.084-.134-.17-.269-.265-.394a4.419,4.419,0,0,1-.875-2.625v-3.7a.673.673,0,0,0-1.261-.326l-2.289,4.118a5.73,5.73,0,0,0-.427,4.587L172.8,333a.673.673,0,0,0,.638.46h12.876a.673.673,0,0,0,.639-.46Zm-13.522-2.356a4.389,4.389,0,0,1,.326-3.507l1.027-1.848v1.1a5.783,5.783,0,0,0,1.144,3.433,4.162,4.162,0,0,1,.726,1.538,6.8,6.8,0,0,0-.067.749h-2.665Zm4.5,1.47a5.421,5.421,0,0,1,1.07-2.962,6.767,6.767,0,0,0,1.346-4.039v-1.846l1.481,2.67a5.4,5.4,0,0,1,.559,3.725.673.673,0,0,0,1.232.491l.067-.117a1.989,1.989,0,0,1,.135-.211,5.76,5.76,0,0,0,1.144-3.433v-1.1l1.031,1.845a4.387,4.387,0,0,1,.326,3.509l-.49,1.472Zm0,0" transform="translate(-157.405 -293.073)" fill="#fff"/>
      <path id="Path_307" data-name="Path 307" d="M346.141,348.767l1.177-.654.9,1.626-1.177.654Zm0,0" transform="translate(-317.019 -318.824)" fill="#fff"/>
      <path id="Path_308" data-name="Path 308" d="M366.767,383.119l-.711-1.279-1.177.654.711,1.279a4.381,4.381,0,0,1,.551,2.266l1.346.043a5.723,5.723,0,0,0-.72-2.963Zm0,0" transform="translate(-334.181 -349.712)" fill="#fff"/>
      <path id="Path_309" data-name="Path 309" d="M369.555,454.819l.449-1.346,1.277.426-.449,1.346Zm0,0" transform="translate(-338.463 -415.318)" fill="#fff"/>
      <path id="Path_310" data-name="Path 310" d="M180.715,317.772l.673-1.346,1.2.6-.673,1.346Zm0,0" transform="translate(-165.512 -289.802)" fill="#fff"/>
      <path id="Path_311" data-name="Path 311" d="M446.25,79.781a3,3,0,0,0,.374-3.78l-.29-.435-1.12.746.29.436a1.653,1.653,0,0,1-.206,2.08Zm0,0" transform="translate(-407.757 -69.208)" fill="#fff"/>
    </g>
  </g>
</svg>
