<svg xmlns="http://www.w3.org/2000/svg" width="40.561" height="40.56" viewBox="0 0 40.561 40.56">
  <g id="Group_358" data-name="Group 358" transform="translate(-1614 -282)">
    <g id="car" transform="translate(1614 281.999)">
      <path id="Path_312" data-name="Path 312" d="M1.352,494.934H.676a.676.676,0,1,0,0,1.352h.676a.676.676,0,1,0,0-1.352Zm0,0" transform="translate(0 -455.725)" fill="#fff"/>
      <path id="Path_313" data-name="Path 313" d="M274.419,496.286a.676.676,0,1,0,0-1.352h-.676a.676.676,0,1,0,0,1.352Zm0,0" transform="translate(-251.434 -455.724)" fill="#fff"/>
      <path id="Path_314" data-name="Path 314" d="M103.078,147.193a.676.676,0,0,0,.478-.2l.676-.676a.676.676,0,0,0-.956-.956l-.676.676a.676.676,0,0,0,.478,1.154Zm0,0" transform="translate(-94.29 -133.672)" fill="#fff"/>
      <path id="Path_315" data-name="Path 315" d="M171.345,130.126a.676.676,0,0,0,.478-.2l.676-.676a.676.676,0,0,0-.956-.956l-.676.676a.676.676,0,0,0,.478,1.154Zm0,0" transform="translate(-157.149 -117.957)" fill="#fff"/>
      <path id="Path_316" data-name="Path 316" d="M299.346,130.126a.676.676,0,0,0,.478-.2l.676-.676a.676.676,0,0,0-.956-.956l-.676.676a.676.676,0,0,0,.478,1.154Zm0,0" transform="translate(-275.009 -117.957)" fill="#fff"/>
      <path id="Path_317" data-name="Path 317" d="M231.078,189.859a.678.678,0,0,0,.478-.2l.676-.676a.676.676,0,0,0-.956-.956l-.676.676a.676.676,0,0,0,.478,1.154Zm0,0" transform="translate(-212.15 -172.958)" fill="#fff"/>
      <path id="Path_318" data-name="Path 318" d="M154.572,189.661a.676.676,0,0,0,.956-.956l-.676-.676a.676.676,0,0,0-.956.956Zm0,0" transform="translate(-141.529 -172.958)" fill="#fff"/>
      <path id="Path_319" data-name="Path 319" d="M69.238,198.2a.676.676,0,0,0,.956-.956l-.676-.676a.676.676,0,0,0-.956.956Zm0,0" transform="translate(-62.956 -180.816)" fill="#fff"/>
      <path id="Path_320" data-name="Path 320" d="M367.9,138.462a.676.676,0,0,0,.956-.956l-.676-.676a.676.676,0,0,0-.956.956Zm0,0" transform="translate(-337.962 -125.815)" fill="#fff"/>
      <path id="Path_321" data-name="Path 321" d="M307.4,187.933a.676.676,0,0,0,0,.956l.676.676a.676.676,0,0,0,.956-.956l-.676-.676A.676.676,0,0,0,307.4,187.933Zm0,0" transform="translate(-282.866 -172.862)" fill="#fff"/>
      <path id="Path_322" data-name="Path 322" d="M401.746,198.393a.675.675,0,0,0,.478-.2l.676-.676a.676.676,0,0,0-.956-.956l-.676.676a.676.676,0,0,0,.478,1.154Zm0,0" transform="translate(-369.297 -180.816)" fill="#fff"/>
      <path id="Path_323" data-name="Path 323" d="M38.747,21.554a2.01,2.01,0,0,0,.462-1.272v-.676A11.5,11.5,0,0,0,27.717,8.113h-8.6L17.388,4.427l-.008-.016L15.481.389a.676.676,0,0,0-.913-.317l-5.408,2.7a.676.676,0,0,0,.182,1.27L16.3,5.309l1.323,2.8H12.844A11.505,11.505,0,0,0,1.352,19.605v.676a2.013,2.013,0,0,0,.462,1.272A3.862,3.862,0,0,0,0,24.824V25.2a3.869,3.869,0,0,0,2.307,3.535,2.006,2.006,0,0,0-.279,1.008v2.7a3.384,3.384,0,0,0,3.38,3.38h.06a4.1,4.1,0,0,0-.06.666,4.037,4.037,0,0,0,1.041,2.7H4.056a.676.676,0,0,0,0,1.352H9.464a4.032,4.032,0,0,0,4-4.722H27.1a3.981,3.981,0,0,0,.982,3.37H25.688a.676.676,0,0,0,0,1.352H31.1a4.032,4.032,0,0,0,4-4.722h.059a3.385,3.385,0,0,0,3.38-3.38v-2.7a2.009,2.009,0,0,0-.279-1.008A3.869,3.869,0,0,0,40.561,25.2v-.379a3.862,3.862,0,0,0-1.814-3.27ZM11.582,3.078l2.974-1.487L15.6,3.806ZM2.7,19.605a10.152,10.152,0,0,1,10.14-10.14h5.418l.953,2.028h-.287a.676.676,0,0,0,0,1.352h2.7a.676.676,0,1,0,0-1.352H20.71l-.954-2.028h7.961a10.151,10.151,0,0,1,10.14,10.14v.676a.676.676,0,0,1-.676.676H3.38a.676.676,0,0,1-.676-.676Zm23.66,7.436a.676.676,0,1,0-1.352,0v2.028a.676.676,0,1,1-1.352,0v-6.76h4.056v8.112a.676.676,0,1,1-1.352,0ZM9.214,22.309l.712.608L8.52,24.324a.676.676,0,0,1-.921.032L5.205,22.309Zm2.075,0h5.329L14.6,24.326a.68.68,0,0,1-.918.036Zm7.241,0h3.778v1.072l-.947.946a.676.676,0,0,1-.92.033l-2.129-1.833ZM1.352,25.2v-.379A2.513,2.513,0,0,1,3.235,22.4l3.486,2.987a2.038,2.038,0,0,0,1.324.492,2.016,2.016,0,0,0,1.431-.6l1.48-1.48,1.85,1.586a2.037,2.037,0,0,0,2.754-.106l1.795-1.795,2.21,1.9a2.039,2.039,0,0,0,1.324.492,2.015,2.015,0,0,0,1.42-.587v2.426H3.867A2.518,2.518,0,0,1,1.352,25.2Zm8.112,14a2.7,2.7,0,1,1,2.7-2.7,2.7,2.7,0,0,1-2.7,2.7Zm21.632,0a2.7,2.7,0,1,1,2.7-2.7A2.7,2.7,0,0,1,31.1,39.2Zm6.084-6.75a2.028,2.028,0,0,1-2.028,2.028h-.541a4.047,4.047,0,0,0-7.03,0h-14.6a4.047,4.047,0,0,0-7.03,0H5.408A2.028,2.028,0,0,1,3.38,32.449v-2.7a.676.676,0,0,1,.676-.676H22.308a2.021,2.021,0,0,0,2.782,1.879,2.023,2.023,0,0,0,3.978-.527V29.069H36.5a.676.676,0,0,1,.676.676ZM39.209,25.2a2.517,2.517,0,0,1-2.515,2.515H29.068V22.309h7.626a2.517,2.517,0,0,1,2.515,2.515Zm0,0" transform="translate(0)" fill="#fff"/>
      <path id="Path_324" data-name="Path 324" d="M63.114,9.887a.676.676,0,0,0,0-1.352h-2.7a.676.676,0,0,0,0,1.352Zm0,0" transform="translate(-55.002 -7.858)" fill="#fff"/>
      <path id="Path_325" data-name="Path 325" d="M18.418,8.535h-.676a.676.676,0,1,0,0,1.352h.676a.676.676,0,1,0,0-1.352Zm0,0" transform="translate(-15.714 -7.858)" fill="#fff"/>
      <path id="Path_326" data-name="Path 326" d="M42.668,43.344a.676.676,0,0,0,.676.676h2.7a.676.676,0,0,0,0-1.352h-2.7A.676.676,0,0,0,42.668,43.344Zm0,0" transform="translate(-39.288 -39.287)" fill="#fff"/>
      <path id="Path_327" data-name="Path 327" d="M.676,42.668a.676.676,0,1,0,0,1.352h.676a.676.676,0,1,0,0-1.352Zm0,0" transform="translate(0 -39.287)" fill="#fff"/>
    </g>
  </g>
</svg>
