<svg xmlns="http://www.w3.org/2000/svg" width="40.128" height="25.752" viewBox="0 0 40.128 25.752">
  <g id="Group_360" data-name="Group 360" transform="translate(-1614 -289)">
    <path id="pizza_2_" data-name="pizza (2)" d="M38.895,6.664H36.946c0-.019,0-.038,0-.057V1.734A1.236,1.236,0,0,0,35.715.5h-23.5a.588.588,0,0,0,0,1.177h4.377L17.64,3.429a1.248,1.248,0,0,0,1.077.577h6.045a1.249,1.249,0,0,0,1.078-.577l1.05-1.752h8.824a.057.057,0,0,1,.058.057V6.606a.057.057,0,0,1-.058.058H7.765a.058.058,0,0,1-.058-.057V1.734a.058.058,0,0,1,.058-.057H9.61A.588.588,0,1,0,9.61.5H7.765A1.235,1.235,0,0,0,6.531,1.734V6.607A1.235,1.235,0,0,0,7.765,7.841H9.713c0,.019,0,.038,0,.057v4.873c0,.04,0,.08.006.119A1.236,1.236,0,0,0,8.741,14.1v2.2a.878.878,0,0,0-.34-.069H7.151a.9.9,0,0,0-.884-.724H.9a.9.9,0,0,0-.9.9v1.03a.588.588,0,0,0,1.177,0v-.755H5.992V24.4H1.178V20.131a.588.588,0,0,0-1.177,0v4.546a.9.9,0,0,0,.9.9H6.268a.9.9,0,0,0,.884-.724H8.4a.886.886,0,0,0,.671-.308c1.139.6,3.3,1.342,7.3,1.682q.294.025.589.025a6.96,6.96,0,0,0,2.459-.446,21.685,21.685,0,0,0,7.3-5.126,2.235,2.235,0,0,0,.351-.477H37.925a1.236,1.236,0,0,0,1.234-1.234V14.1c0-.04,0-.08-.006-.119a1.236,1.236,0,0,0,.975-1.206V7.9a1.235,1.235,0,0,0-1.234-1.234ZM24.838,2.812a.157.157,0,0,1-.075.017H18.717a.157.157,0,0,1-.075-.017l-.681-1.136h7.557ZM8.113,23.623v.054H7.169V17.406h.944ZM28.7,7.841l-.681,1.135a.154.154,0,0,1-.075.017H21.9a.155.155,0,0,1-.075-.017l-.681-1.135ZM25.872,19.862A20.505,20.505,0,0,1,19,24.706a5.8,5.8,0,0,1-2.531.349c-3.3-.28-5.883-.909-7.181-1.739V17.777H9.7a10.151,10.151,0,0,0,2.865-.412l4.868-1.432a.757.757,0,0,1,.577,1.389l-1.108.608a.864.864,0,0,0,.157,1.582l1.242.389a3.447,3.447,0,0,0,2.3-.086l4.134-1.645a1.041,1.041,0,0,1,1.133,1.691Zm12.111-.894a.058.058,0,0,1-.058.058H27.34a2.212,2.212,0,0,0-.516-1.312h0a2.214,2.214,0,0,0-2.52-.636l-4.134,1.645a2.269,2.269,0,0,1-1.512.057l-.543-.17.465-.255A1.933,1.933,0,0,0,17.1,14.8l-4.868,1.431a8.96,8.96,0,0,1-2.318.361V14.1a.057.057,0,0,1,.058-.057H18.8l1.05,1.752a1.248,1.248,0,0,0,1.078.577h6.045a1.248,1.248,0,0,0,1.077-.577L29.1,14.039h8.824a.057.057,0,0,1,.058.057v4.872Zm-17.811-4.93h7.557l-.681,1.135a.154.154,0,0,1-.075.017H20.928a.155.155,0,0,1-.075-.017Zm18.78-1.268a.057.057,0,0,1-.057.057H10.945a.057.057,0,0,1-.058-.057V7.9a.058.058,0,0,1,.058-.058h8.824l1.05,1.752a1.249,1.249,0,0,0,1.078.577h6.045a1.249,1.249,0,0,0,1.078-.577l1.05-1.752h8.824a.057.057,0,0,1,.058.057Zm0,0" transform="translate(1614 288.5)" fill="#fff"/>
  </g>
</svg>
