<svg xmlns="http://www.w3.org/2000/svg" width="200.717" height="200.717" viewBox="0 0 200.717 200.717">
  <g id="Group_363" data-name="Group 363" transform="translate(-860 -403)">
    <g id="car" transform="translate(860 402.999)">
      <path id="Path_334" data-name="Path 334" d="M40.144,164.366c5.52-24.116,0-24.116,0-24.116h13V115.719l7.068,3.327,4.158,4.157h10.4l16.637-16.637h93.13a20.644,20.644,0,0,1,8.731,9.152c3.326,6.653,4.989,19.957-8.731,24.531.416.416,2.911,10.812,2.911,17.048s2.079,9.146-2.911,11.642a155.217,155.217,0,0,1-14.968,5.821s1.248,16.216-5.821,19.126-22.869-9.979-17.047-24.947-7.484,2.079-7.484,2.079l-7.9,3.742H64.374L56.89,193.887l-9.147,2.079S34.625,188.482,40.144,164.366Z" fill="#ff2d58"/>
      <path id="Path_335" data-name="Path 335" d="M-7359.785,9321.036s-33.263,15.384-37,62.367c0,.832,162.156,0,162.156,0s7.9-6.237,6.236-10.811-5.405-32.431-16.631-39.5-22.868-11.226-33.678-12.058S-7359.785,9321.036-7359.785,9321.036Z" transform="translate(7420 -9275.999)" fill="#ff2d58"/>
      <path id="Path_312" data-name="Path 312" d="M6.69,494.934H3.346a3.345,3.345,0,1,0,0,6.69H6.69a3.345,3.345,0,1,0,0-6.69Zm0,0" transform="translate(0 -300.907)" fill="#fff"/>
      <path id="Path_313" data-name="Path 313" d="M279.757,501.624a3.345,3.345,0,1,0,0-6.691h-3.344a3.345,3.345,0,1,0,0,6.691Zm0,0" transform="translate(-166.018 -300.907)" fill="#fff"/>
      <path id="Path_314" data-name="Path 314" d="M105.747,155.168a3.346,3.346,0,0,0,2.366-.98l3.344-3.346a3.345,3.345,0,0,0-4.73-4.729l-3.344,3.344a3.345,3.345,0,0,0,2.364,5.71Zm0,0" transform="translate(-62.258 -88.261)" fill="#fff"/>
      <path id="Path_315" data-name="Path 315" d="M174.013,138.1a3.344,3.344,0,0,0,2.366-.98l3.344-3.346a3.345,3.345,0,0,0-4.73-4.73l-3.344,3.346a3.346,3.346,0,0,0,2.364,5.71Zm0,0" transform="translate(-103.763 -77.885)" fill="#fff"/>
      <path id="Path_316" data-name="Path 316" d="M302.014,138.1a3.344,3.344,0,0,0,2.366-.98l3.344-3.346a3.345,3.345,0,0,0-4.73-4.73l-3.344,3.346a3.346,3.346,0,0,0,2.365,5.71Zm0,0" transform="translate(-181.584 -77.885)" fill="#fff"/>
      <path id="Path_317" data-name="Path 317" d="M233.747,197.835a3.353,3.353,0,0,0,2.366-.98l3.344-3.346a3.345,3.345,0,0,0-4.73-4.73l-3.344,3.346a3.345,3.345,0,0,0,2.364,5.71Zm0,0" transform="translate(-140.079 -114.201)" fill="#fff"/>
      <path id="Path_318" data-name="Path 318" d="M157.99,196.854a3.345,3.345,0,0,0,4.73-4.73l-3.344-3.346a3.345,3.345,0,0,0-4.73,4.73Zm0,0" transform="translate(-93.449 -114.201)" fill="#fff"/>
      <path id="Path_319" data-name="Path 319" d="M72.657,205.388a3.345,3.345,0,0,0,4.73-4.73l-3.346-3.344a3.345,3.345,0,0,0-4.729,4.73Zm0,0" transform="translate(-41.569 -119.39)" fill="#fff"/>
      <path id="Path_320" data-name="Path 320" d="M371.324,145.654a3.345,3.345,0,0,0,4.73-4.729l-3.346-3.346a3.345,3.345,0,0,0-4.73,4.73Zm0,0" transform="translate(-223.15 -83.073)" fill="#fff"/>
      <path id="Path_321" data-name="Path 321" d="M308.181,188.715a3.348,3.348,0,0,0,0,4.73l3.346,3.346a3.345,3.345,0,0,0,4.73-4.73l-3.346-3.346A3.345,3.345,0,0,0,308.181,188.715Zm0,0" transform="translate(-186.772 -114.138)" fill="#fff"/>
      <path id="Path_322" data-name="Path 322" d="M404.415,206.368a3.34,3.34,0,0,0,2.364-.98l3.346-3.345a3.345,3.345,0,0,0-4.73-4.73l-3.346,3.344a3.345,3.345,0,0,0,2.366,5.71Zm0,0" transform="translate(-243.84 -119.39)" fill="#fff"/>
      <path id="Path_323" data-name="Path 323" d="M191.741,106.656a9.945,9.945,0,0,0,2.285-6.3V97.015a56.933,56.933,0,0,0-56.869-56.869H94.619L86.045,21.9,86,21.823l-9.4-19.9A3.345,3.345,0,0,0,72.088.353L45.325,13.734a3.346,3.346,0,0,0,.9,6.286l34.457,6.248,6.547,13.877H63.56A56.934,56.934,0,0,0,6.691,97.015v3.344a9.963,9.963,0,0,0,2.285,6.3A19.109,19.109,0,0,0,0,122.839v1.874a19.146,19.146,0,0,0,11.415,17.493,9.925,9.925,0,0,0-1.378,4.988v13.381A16.747,16.747,0,0,0,26.762,177.3h.3a20.293,20.293,0,0,0-.3,3.294,19.978,19.978,0,0,0,5.153,13.382H20.072a3.345,3.345,0,0,0,0,6.69H46.835A19.954,19.954,0,0,0,66.612,177.3h67.494a19.7,19.7,0,0,0,4.857,16.676H127.12a3.345,3.345,0,0,0,0,6.69h26.763A19.954,19.954,0,0,0,173.661,177.3h.294a16.75,16.75,0,0,0,16.727-16.727V147.194a9.941,9.941,0,0,0-1.378-4.988,19.147,19.147,0,0,0,11.413-17.493v-1.874a19.109,19.109,0,0,0-8.975-16.183ZM57.315,15.228l14.719-7.36L77.2,18.832ZM13.381,97.015A50.237,50.237,0,0,1,63.56,46.835H90.373L95.091,56.87H93.668a3.346,3.346,0,0,0,0,6.692h13.381a3.346,3.346,0,1,0,0-6.692h-4.566l-4.72-10.035h39.394a50.235,50.235,0,0,1,50.179,50.179v3.344a3.345,3.345,0,0,1-3.344,3.346H16.727a3.345,3.345,0,0,1-3.346-3.346Zm117.085,36.8a3.345,3.345,0,1,0-6.69,0v10.035a3.345,3.345,0,1,1-6.69,0V110.4h20.071v40.143a3.345,3.345,0,1,1-6.69,0ZM45.6,110.4l3.524,3.011-6.958,6.958a3.345,3.345,0,0,1-4.556.161L25.759,110.4Zm10.271,0H82.238l-9.98,9.978a3.364,3.364,0,0,1-4.542.178Zm35.83,0h18.7V115.7l-4.684,4.683a3.345,3.345,0,0,1-4.553.164L90.624,111.48ZM6.691,124.714v-1.874a12.437,12.437,0,0,1,9.32-12l17.249,14.782a10.088,10.088,0,0,0,6.553,2.435,9.978,9.978,0,0,0,7.079-2.954l7.323-7.323,9.156,7.848A10.083,10.083,0,0,0,77,125.1l8.882-8.882,10.938,9.4a10.091,10.091,0,0,0,6.553,2.435,9.972,9.972,0,0,0,7.026-2.907v12.006H19.136A12.459,12.459,0,0,1,6.691,124.714Zm40.144,69.265A13.382,13.382,0,1,1,60.216,180.6a13.382,13.382,0,0,1-13.381,13.382Zm107.049,0A13.382,13.382,0,1,1,167.264,180.6,13.382,13.382,0,0,1,153.883,193.978Zm30.108-33.4a10.038,10.038,0,0,1-10.036,10.036h-2.677a20.028,20.028,0,0,0-34.791,0H64.229a20.028,20.028,0,0,0-34.791,0H26.762a10.036,10.036,0,0,1-10.035-10.036V147.194a3.345,3.345,0,0,1,3.344-3.346h90.323a10,10,0,0,0,13.768,9.3,10.012,10.012,0,0,0,19.684-2.609v-6.69h36.8a3.346,3.346,0,0,1,3.346,3.346Zm10.035-35.861a12.457,12.457,0,0,1-12.444,12.444H143.847V110.4h37.735a12.457,12.457,0,0,1,12.444,12.444Zm0,0" transform="translate(0 0)" fill="#fff"/>
      <path id="Path_324" data-name="Path 324" d="M76.461,15.226a3.345,3.345,0,0,0,0-6.69H63.079a3.345,3.345,0,0,0,0,6.69Zm0,0" transform="translate(-36.317 -5.189)" fill="#fff"/>
      <path id="Path_325" data-name="Path 325" d="M23.757,8.535H20.412a3.345,3.345,0,1,0,0,6.69h3.344a3.345,3.345,0,1,0,0-6.69Zm0,0" transform="translate(-10.376 -5.189)" fill="#fff"/>
      <path id="Path_326" data-name="Path 326" d="M42.668,46.014a3.345,3.345,0,0,0,3.344,3.344H59.395a3.345,3.345,0,0,0,0-6.69H46.012A3.345,3.345,0,0,0,42.668,46.014Zm0,0" transform="translate(-25.941 -25.941)" fill="#fff"/>
      <path id="Path_327" data-name="Path 327" d="M3.346,42.668a3.345,3.345,0,1,0,0,6.69H6.69a3.345,3.345,0,1,0,0-6.69Zm0,0" transform="translate(0 -25.941)" fill="#fff"/>
    </g>
  </g>
</svg>
