<svg xmlns="http://www.w3.org/2000/svg" width="200.892" height="128.924" viewBox="0 0 200.892 128.924">
  <g id="Group_365" data-name="Group 365" transform="translate(-859.618 -439.414)">
    <path id="Path_336" data-name="Path 336" d="M-7367.264,11829.034v20.789s17.879,7.9,35.757,6.652,40.331-24.115,40.331-24.115h61.952v-22.036h-138.04Z" transform="translate(8280 -11305)" fill="#ff2d58"/>
    <path id="Path_337" data-name="Path 337" d="M-7361.443,11747.956l7.484,15.8s0,6.237,13.305,6.237h101.867v6.652l-122.656,2.5,7.484,14.552s.832,6.5,13.305,7.821,116.835,1,116.835,1l2.91-.09v-23.283h-17.878v-31.185Z" transform="translate(8280 -11305)" fill="#ff2d58"/>
    <g id="Group_364" data-name="Group 364">
      <path id="pizza_2_" data-name="pizza (2)" d="M194.716,31.359h-9.754c0-.1.014-.19.014-.287V6.678A6.186,6.186,0,0,0,178.8.5H61.135a2.946,2.946,0,1,0,0,5.892H83.048l5.26,8.773A6.246,6.246,0,0,0,93.7,18.052h30.263a6.25,6.25,0,0,0,5.4-2.888l5.259-8.773H178.8a.287.287,0,0,1,.288.287V31.071a.288.288,0,0,1-.288.288H38.871a.288.288,0,0,1-.288-.287V6.678a.288.288,0,0,1,.288-.287h9.238a2.946,2.946,0,1,0,0-5.892H38.871a6.185,6.185,0,0,0-6.178,6.178V31.073a6.185,6.185,0,0,0,6.178,6.178h9.754c0,.1-.014.19-.014.287V61.932c0,.2.011.4.029.595a6.188,6.188,0,0,0-4.882,6.04V79.589a4.4,4.4,0,0,0-1.7-.345H35.8a4.518,4.518,0,0,0-4.423-3.623H4.511A4.517,4.517,0,0,0,0,80.133V85.29a2.946,2.946,0,0,0,5.892,0V81.512H30v38.644H5.892V98.776a2.946,2.946,0,0,0-5.892,0v22.761a4.515,4.515,0,0,0,4.511,4.511H31.375a4.518,4.518,0,0,0,4.423-3.623h6.261a4.435,4.435,0,0,0,3.36-1.543c5.7,3,16.536,6.721,36.535,8.419q1.471.124,2.947.124a34.846,34.846,0,0,0,12.311-2.235c16.132-6.114,29.82-18.7,36.544-25.663a11.187,11.187,0,0,0,1.76-2.386h54.346a6.187,6.187,0,0,0,6.18-6.18V68.567c0-.2-.012-.4-.031-.6a6.187,6.187,0,0,0,4.882-6.039V37.539a6.184,6.184,0,0,0-6.177-6.18ZM124.342,12.075a.788.788,0,0,1-.377.086H93.7a.788.788,0,0,1-.377-.086L89.918,6.39h37.833ZM40.611,116.261v.271H35.887v-31.4h4.724Zm103.058-79.01-3.409,5.683a.77.77,0,0,1-.377.086H109.621a.775.775,0,0,1-.377-.086l-3.407-5.683ZM129.52,97.434c-6.382,6.606-19.337,18.539-34.4,24.247a29.037,29.037,0,0,1-12.672,1.749c-16.509-1.4-29.452-4.551-35.949-8.707V86.995h2.071A50.821,50.821,0,0,0,62.918,84.93l24.371-7.167a3.787,3.787,0,0,1,2.891,6.954l-5.547,3.044a4.326,4.326,0,0,0,.786,7.921l6.22,1.95a17.255,17.255,0,0,0,11.509-.431l20.7-8.234a5.212,5.212,0,0,1,5.674,8.467Zm60.632-4.474a.289.289,0,0,1-.288.288H136.869a11.075,11.075,0,0,0-2.586-6.569v0a11.085,11.085,0,0,0-12.616-3.185l-20.7,8.235a11.357,11.357,0,0,1-7.568.284l-2.716-.852,2.328-1.277a9.679,9.679,0,0,0-7.388-17.77L61.255,79.278a44.854,44.854,0,0,1-11.606,1.807V68.567a.287.287,0,0,1,.288-.287H94.114l5.259,8.772a6.248,6.248,0,0,0,5.4,2.889h30.263a6.246,6.246,0,0,0,5.394-2.889l5.26-8.772h44.177a.287.287,0,0,1,.288.287V92.96ZM100.984,68.28h37.833l-3.409,5.683a.77.77,0,0,1-.377.086H104.768a.775.775,0,0,1-.377-.086ZM195,61.932a.287.287,0,0,1-.287.287H54.79a.287.287,0,0,1-.288-.287V37.539a.289.289,0,0,1,.288-.288H98.967l5.259,8.773a6.25,6.25,0,0,0,5.4,2.888h30.263a6.25,6.25,0,0,0,5.4-2.888l5.259-8.773h44.177a.287.287,0,0,1,.288.287Zm0,0" transform="translate(859.617 438.914)" fill="#fff"/>
    </g>
  </g>
</svg>
