<svg id="pasta" xmlns="http://www.w3.org/2000/svg" width="39.918" height="39.918" viewBox="0 0 39.918 39.918">
  <g id="Group_142" data-name="Group 142" transform="translate(0 31.935)">
    <g id="Group_141" data-name="Group 141">
      <path id="Path_118" data-name="Path 118" d="M39.253,409.6H.665a.665.665,0,0,0-.665.665,7.327,7.327,0,0,0,7.318,7.318H32.6a7.327,7.327,0,0,0,7.318-7.318A.665.665,0,0,0,39.253,409.6ZM32.6,416.253H7.318a6,6,0,0,1-5.951-5.322H38.551A6,6,0,0,1,32.6,416.253Z" transform="translate(0 -409.6)" fill="#707070"/>
    </g>
  </g>
  <g id="Group_144" data-name="Group 144" transform="translate(12.862 21.955)">
    <g id="Group_143" data-name="Group 143">
      <path id="Path_119" data-name="Path 119" d="M172.065,281.6h-.009a10.584,10.584,0,0,0-7.09,2.719l.89.989a9.26,9.26,0,0,1,6.2-2.377h.007a8.388,8.388,0,0,1,8.031,4.9l1.236-.494C179.936,283.853,176.3,281.6,172.065,281.6Z" transform="translate(-164.967 -281.6)" fill="#707070"/>
    </g>
  </g>
  <g id="Group_146" data-name="Group 146" transform="translate(13.805 24.624)">
    <g id="Group_145" data-name="Group 145">
      <path id="Path_120" data-name="Path 120" d="M188.307,317.66a7.994,7.994,0,0,0-11.24,1.071l1.026.847a6.652,6.652,0,0,1,10.572.411l1.09-.764A8.057,8.057,0,0,0,188.307,317.66Z" transform="translate(-177.067 -315.835)" fill="#707070"/>
    </g>
  </g>
  <g id="Group_148" data-name="Group 148" transform="translate(16.157 27.28)">
    <g id="Group_147" data-name="Group 147">
      <path id="Path_121" data-name="Path 121" d="M214.759,351.414a5.329,5.329,0,0,0-7.527.076l.951.931a3.992,3.992,0,0,1,6.843,2.794h1.331A5.349,5.349,0,0,0,214.759,351.414Z" transform="translate(-207.232 -349.895)" fill="#707070"/>
    </g>
  </g>
  <g id="Group_150" data-name="Group 150" transform="translate(26.612 24.616)">
    <g id="Group_149" data-name="Group 149">
      <path id="Path_122" data-name="Path 122" d="M342.029,315.733h-.694v1.331H342a7.387,7.387,0,0,1,7.318,6.708l1.325-.11A8.694,8.694,0,0,0,342.029,315.733Z" transform="translate(-341.334 -315.733)" fill="#707070"/>
    </g>
  </g>
  <g id="Group_152" data-name="Group 152" transform="translate(22.79 27.28)">
    <g id="Group_151" data-name="Group 151">
      <path id="Path_123" data-name="Path 123" d="M300.765,351.42a5.989,5.989,0,0,0-8.455.471l.991.887a4.657,4.657,0,0,1,8.092,2.521l1.321-.168A5.992,5.992,0,0,0,300.765,351.42Z" transform="translate(-292.31 -349.895)" fill="#707070"/>
    </g>
  </g>
  <g id="Group_154" data-name="Group 154" transform="translate(24.025 29.933)">
    <g id="Group_153" data-name="Group 153">
      <path id="Path_124" data-name="Path 124" d="M312.195,384.024a3.33,3.33,0,0,0-4.048,2.4l1.289.33a2,2,0,0,1,3.867,0l1.289-.33A3.327,3.327,0,0,0,312.195,384.024Z" transform="translate(-308.147 -383.919)" fill="#707070"/>
    </g>
  </g>
  <g id="Group_156" data-name="Group 156" transform="translate(3.994 24.602)">
    <g id="Group_155" data-name="Group 155">
      <path id="Path_125" data-name="Path 125" d="M60.56,315.575a8.649,8.649,0,0,0-9.326,7.915l1.326.109a7.317,7.317,0,0,1,7.891-6.7,7.355,7.355,0,0,1,3.086.97l.67-1.15A8.7,8.7,0,0,0,60.56,315.575Z" transform="translate(-51.234 -315.546)" fill="#707070"/>
    </g>
  </g>
  <g id="Group_158" data-name="Group 158" transform="translate(6.698 27.263)">
    <g id="Group_157" data-name="Group 157">
      <path id="Path_126" data-name="Path 126" d="M92.589,349.721a6,6,0,0,0-6.675,5.211l1.321.162a4.657,4.657,0,0,1,9.244,0l1.322-.162A5.979,5.979,0,0,0,92.589,349.721Z" transform="translate(-85.914 -349.675)" fill="#707070"/>
    </g>
  </g>
  <g id="Group_160" data-name="Group 160" transform="translate(9.422 29.944)">
    <g id="Group_159" data-name="Group 159">
      <path id="Path_127" data-name="Path 127" d="M124.908,384.181a3.326,3.326,0,0,0-4.06,2.377l1.287.337a2,2,0,0,1,3.863,0l1.287-.337A3.329,3.329,0,0,0,124.908,384.181Z" transform="translate(-120.848 -384.072)" fill="#707070"/>
    </g>
  </g>
  <g id="Group_162" data-name="Group 162" transform="translate(17.298 29.939)">
    <g id="Group_161" data-name="Group 161">
      <path id="Path_128" data-name="Path 128" d="M224.528,384a2.664,2.664,0,0,0-2.661,2.661H223.2a1.331,1.331,0,0,1,2.661,0h1.331A2.664,2.664,0,0,0,224.528,384Z" transform="translate(-221.867 -384)" fill="#707070"/>
    </g>
  </g>
  <g id="Group_164" data-name="Group 164" transform="translate(6.653 2.661)">
    <g id="Group_163" data-name="Group 163">
      <rect id="Rectangle_45" data-name="Rectangle 45" width="5.322" height="1.331" fill="#707070"/>
    </g>
  </g>
  <g id="Group_166" data-name="Group 166" transform="translate(7.984 5.322)">
    <g id="Group_165" data-name="Group 165">
      <rect id="Rectangle_46" data-name="Rectangle 46" width="3.992" height="1.331" fill="#707070"/>
    </g>
  </g>
  <g id="Group_168" data-name="Group 168" transform="translate(2.661)">
    <g id="Group_167" data-name="Group 167">
      <path id="Path_129" data-name="Path 129" d="M36.66,14.307a4.039,4.039,0,0,1,0-4,5.376,5.376,0,0,0,0-5.318,4.039,4.039,0,0,1,0-4,.665.665,0,0,0-.577-1H34.133V1.331h.931a5.379,5.379,0,0,0,.44,4.322,4.039,4.039,0,0,1,0,4,5.376,5.376,0,0,0,0,5.318,4.039,4.039,0,0,1,0,4,5.344,5.344,0,0,0-.027,5.265A10.269,10.269,0,0,1,35.99,25.6l1.276-.376a11.517,11.517,0,0,0-.606-1.6,4.039,4.039,0,0,1,0-4A5.376,5.376,0,0,0,36.66,14.307Z" transform="translate(-34.133)" fill="#707070"/>
    </g>
  </g>
  <g id="Group_170" data-name="Group 170" transform="translate(6.084)">
    <g id="Group_169" data-name="Group 169">
      <path id="Path_130" data-name="Path 130" d="M111.866,4.85a3.547,3.547,0,0,0-3.631-3.433l-19.386.57L87.835.973A3.3,3.3,0,0,0,85.485,0H79.314a.665.665,0,0,0-.577.335,5.376,5.376,0,0,0,0,5.318,4.039,4.039,0,0,1,0,4,5.376,5.376,0,0,0,0,5.318,4.039,4.039,0,0,1,0,4,5.376,5.376,0,0,0,0,5.318,4.01,4.01,0,0,1,.24.5l1.235-.5a5.269,5.269,0,0,0-.319-.661,4.039,4.039,0,0,1,0-4,5.376,5.376,0,0,0,0-5.318,4.039,4.039,0,0,1,0-4,5.3,5.3,0,0,0,.44-1h5.152a3.3,3.3,0,0,0,2.351-.973l1.007-1.007,19.287,1.134c.069,0,.166,0,.206.006a3.537,3.537,0,0,0,3.533-3.531Zm-3.532,2.293a.589.589,0,0,0-.126,0L88.621,5.989a.656.656,0,0,0-.51.194L86.894,7.4a1.983,1.983,0,0,1-1.41.583h-4.9a5.367,5.367,0,0,0-.693-2.992,4.043,4.043,0,0,1-.171-3.661h5.764a1.981,1.981,0,0,1,1.41.584l1.218,1.218a.651.651,0,0,0,.49.194l19.672-.58a2.2,2.2,0,1,1,.061,4.4Z" transform="translate(-78.033)" fill="#707070"/>
    </g>
  </g>
  <g id="Group_172" data-name="Group 172" transform="translate(8.744 8.536)">
    <g id="Group_171" data-name="Group 171">
      <path id="Path_131" data-name="Path 131" d="M114.016,115.254a4.04,4.04,0,0,1,0-4,5.332,5.332,0,0,0,.578-1.482l-1.3-.293a4.015,4.015,0,0,1-.434,1.114,5.376,5.376,0,0,0,0,5.318,4.04,4.04,0,0,1,0,4,5.374,5.374,0,0,0-.182,4.966l1.2-.572a4.041,4.041,0,0,1,.136-3.735A5.376,5.376,0,0,0,114.016,115.254Z" transform="translate(-112.157 -109.483)" fill="#707070"/>
    </g>
  </g>
  <g id="Group_174" data-name="Group 174" transform="translate(2.661 2.661)">
    <g id="Group_173" data-name="Group 173">
      <rect id="Rectangle_47" data-name="Rectangle 47" width="1.331" height="1.331" fill="#707070"/>
    </g>
  </g>
  <g id="Group_176" data-name="Group 176" transform="translate(2.661 5.322)">
    <g id="Group_175" data-name="Group 175">
      <rect id="Rectangle_48" data-name="Rectangle 48" width="1.996" height="1.331" fill="#707070"/>
    </g>
  </g>
  <g id="Group_178" data-name="Group 178" transform="translate(2.661 7.984)">
    <g id="Group_177" data-name="Group 177">
      <rect id="Rectangle_49" data-name="Rectangle 49" width="2.661" height="1.331" fill="#707070"/>
    </g>
  </g>
</svg>
