<svg xmlns="http://www.w3.org/2000/svg" width="40.797" height="40.015" viewBox="0 0 40.797 40.015">
  <path id="salad" d="M39.474,30.178h-.581a4.447,4.447,0,0,0-.957-.707,3.5,3.5,0,0,1-1.121-.9,2.375,2.375,0,0,1-.023-.852,2.7,2.7,0,0,0-.351-1.954,2.448,2.448,0,0,0-1.631-.688,2.362,2.362,0,0,1-1.023-.307,2.644,2.644,0,0,1-.474-1.089,2.7,2.7,0,0,0-.9-1.623,3,3,0,0,0-2.084-.251,2.537,2.537,0,0,1-.947.014,3.04,3.04,0,0,1-1-1.065l-.049-.071A1.559,1.559,0,0,0,26,20.42a13.028,13.028,0,0,0-1.493,1.5,2.7,2.7,0,0,0-2.122-2.072l.158-5.362a.6.6,0,1,0-1.2-.035l-.172,5.827a.7.7,0,0,0,.7.719,1.5,1.5,0,0,1,1.5,1.5v1.055a9.686,9.686,0,0,0-.613,1.3c-.146.012-.291.028-.433.051v-.645a.6.6,0,1,0-1.2,0v.982a5.419,5.419,0,0,0-1.047.574V24.258a.6.6,0,1,0-1.2,0v2.291a2.2,2.2,0,0,0-.59-.289,1.9,1.9,0,0,0-.457-.081V22.5a1.5,1.5,0,0,1,1.5-1.5h.034a.7.7,0,0,0,.7-.72l-.111-3.572V16.7L19.511,2.326a1.1,1.1,0,1,1,2.195,0l-.312,9.661a.6.6,0,0,0,1.2.039L22.9,2.36a2.295,2.295,0,1,0-4.587,0l.42,13.481a3.018,3.018,0,0,0-.389-.06,3.133,3.133,0,0,0-2.771,1.4,3,3,0,0,0-.437,1.555,1.88,1.88,0,0,1-.044.374,1.842,1.842,0,0,1-.423-.14,2.1,2.1,0,0,0-1.5-.185c-1.09.354-1.668,1.831-1.793,3.254-.436.212-.656.292-.862.19s-.3-.36-.442-.8a2.818,2.818,0,0,0-1.186-1.757,3.092,3.092,0,0,0-2.627-.1,3.129,3.129,0,0,0-1.808,2.521,3,3,0,0,0,.335,1.579,1.923,1.923,0,0,1,.135.352,1.835,1.835,0,0,1-.438.071,2.105,2.105,0,0,0-1.417.532,2.768,2.768,0,0,0-.449,2.522.6.6,0,1,0,1.173-.236,1.81,1.81,0,0,1,.131-1.449c.118-.12.331-.147.67-.178a1.537,1.537,0,0,0,1.392-.7,1.494,1.494,0,0,0-.1-1.4,1.872,1.872,0,0,1-.234-.985,1.926,1.926,0,0,1,1.1-1.529,1.9,1.9,0,0,1,1.531.033c.371.223.492.559.66,1.091A2.223,2.223,0,0,0,9.987,23.3a2.115,2.115,0,0,0,1.958-.21c.084-.041.168-.082.252-.12.326-.146.463-.148.57-.106.444.175.584,1.31.7,2.222.163,1.323.332,2.691,1.4,3.109a1.434,1.434,0,0,0,.532.1,2.75,2.75,0,0,0,1.379-.519,5.162,5.162,0,0,1,.535-.3.6.6,0,0,0,.252-.088.712.712,0,0,1,.387.007,1.2,1.2,0,0,1,.46.292,5.383,5.383,0,0,0-.642,2.481H12.341a9.1,9.1,0,0,1-3.735-5.588.6.6,0,1,0-1.17.252,10.367,10.367,0,0,0,2.34,4.647q.317.36.667.689H5.893a4.872,4.872,0,0,1-1.236-1.262.6.6,0,0,0-.987.676,6.628,6.628,0,0,0,.453.586h-2.8A1.324,1.324,0,0,0,0,31.5v1.564a1.324,1.324,0,0,0,1.323,1.323h.32a2.392,2.392,0,0,1,2.293,1.732L4.3,37.413a3.593,3.593,0,0,0,3.445,2.6H33.061a3.583,3.583,0,0,0,3.462-2.665l.314-1.19a2.384,2.384,0,0,1,2.3-1.773h.332A1.325,1.325,0,0,0,40.8,33.064V31.5a1.324,1.324,0,0,0-1.323-1.323ZM15.3,27.085c-.4-.158-.545-1.305-.649-2.142-.167-1.353-.34-2.752-1.445-3.189a1.518,1.518,0,0,0-.573-.106c.179-1,.6-1.625.906-1.725.16-.052.362.023.675.153a1.538,1.538,0,0,0,1.559.021,1.491,1.491,0,0,0,.558-1.29,1.873,1.873,0,0,1,.25-.981,1.924,1.924,0,0,1,1.68-.847,2.248,2.248,0,0,1,.512.118l.086,2.749a2.7,2.7,0,0,0-2.216,2.65v3.983c-.174.089-.338.188-.489.28-.412.25-.676.4-.853.327Zm11.489-5.763.015-.013a.362.362,0,0,1,.543.06l.048.068a3.956,3.956,0,0,0,1.489,1.471A2.988,2.988,0,0,0,30.471,23a2.221,2.221,0,0,1,1.278.057,2.241,2.241,0,0,1,.414.96,3.446,3.446,0,0,0,.808,1.633,3.057,3.057,0,0,0,1.645.612,2.2,2.2,0,0,1,.889.253,2.028,2.028,0,0,1,.094,1.124,2.67,2.67,0,0,0,.181,1.538,3.252,3.252,0,0,0,1.039,1.007h-3.34a5.431,5.431,0,0,0-7.86-4.772,5.4,5.4,0,0,0-1.584-.508,10.153,10.153,0,0,1,2.753-3.576Zm1.832,8.855a5.388,5.388,0,0,0-.347-1.833,1.932,1.932,0,0,1,1.68,1.833Zm2.53,0a3.122,3.122,0,0,0-3.507-3.023,5.478,5.478,0,0,0-.835-.94,4.234,4.234,0,0,1,5.473,3.963Zm-7.958-4.148a4.235,4.235,0,0,1,4.232,4.148H26.345a3.127,3.127,0,0,0-6.253,0H18.961A4.235,4.235,0,0,1,23.193,26.029Zm1.956,4.148H21.289a1.931,1.931,0,0,1,3.859,0ZM39.142,33.19H7.231a.6.6,0,1,0,0,1.2H36.471a3.568,3.568,0,0,0-.791,1.468l-.314,1.19a2.384,2.384,0,0,1-2.3,1.774H7.749a2.392,2.392,0,0,1-2.293-1.732l-.367-1.294a3.593,3.593,0,0,0-3.445-2.6h-.32a.127.127,0,0,1-.127-.126V31.5a.126.126,0,0,1,.127-.126h38.15a.126.126,0,0,1,.127.126v1.564a.127.127,0,0,1-.127.126Zm0,0" transform="translate(0 0)" fill="#707070"/>
</svg>
