<svg xmlns="http://www.w3.org/2000/svg" width="127.722" height="129.477" viewBox="0 0 127.722 129.477">
  <g id="password" transform="translate(-3.469)">
    <g id="Group_318" data-name="Group 318" transform="translate(3.469)">
      <g id="Group_317" data-name="Group 317">
        <path id="Path_265" data-name="Path 265" d="M120.9,10.288A35.127,35.127,0,0,0,66.457,54.022L5.684,114.793A7.576,7.576,0,1,0,16.4,125.507l6.528-6.529,8.279,8.279a7.576,7.576,0,0,0,10.714-10.714l-4.383-4.383,4.87-4.87,4.383,4.383A7.576,7.576,0,1,0,57.5,100.96l-8.279-8.279L77.169,64.736A35.127,35.127,0,0,0,120.9,10.288Zm-2.922,46.751a31,31,0,0,1-39.869,3.349,2.066,2.066,0,0,0-2.66.222L44.841,91.22a2.067,2.067,0,0,0,0,2.922l9.74,9.74a3.444,3.444,0,1,1-4.87,4.87l-5.844-5.844a2.066,2.066,0,0,0-2.922,0L33.153,110.7a2.066,2.066,0,0,0,0,2.922L39,119.466a3.443,3.443,0,1,1-4.87,4.87l-9.74-9.74a2.067,2.067,0,0,0-2.922,0l-7.989,7.99a3.444,3.444,0,0,1-4.87-4.87L70.583,55.739a2.066,2.066,0,0,0,.222-2.66,30.994,30.994,0,1,1,47.178,3.959Z" transform="translate(-3.469)" fill="#2e266f"/>
      </g>
    </g>
    <g id="Group_320" data-name="Group 320" transform="translate(71.974 11.019)">
      <g id="Group_319" data-name="Group 319">
        <path id="Path_266" data-name="Path 266" d="M320.561,66.52a2.065,2.065,0,0,0-2.149,1.98,19.91,19.91,0,1,1-1.123-7.492,2.066,2.066,0,0,0,3.9-1.377,24.108,24.108,0,0,0-39.77-9,24.1,24.1,0,1,0,41.126,18.034A2.067,2.067,0,0,0,320.561,66.52Z" transform="translate(-274.366 -43.575)" fill="#2e266f"/>
      </g>
    </g>
  </g>
</svg>
