<svg xmlns="http://www.w3.org/2000/svg" width="87.299" height="129.516" viewBox="0 0 87.299 129.516">
  <g id="patient" transform="translate(0 0)">
    <path id="Path_247" data-name="Path 247" d="M195.249,355.747a2.392,2.392,0,0,0,2.042,0c5.1-2.421,10-7.029,10-12.964a6.473,6.473,0,0,0-11.029-4.56,6.473,6.473,0,0,0-11.031,4.583c.007,6.059,5.182,10.659,10.023,12.944Zm-1.237-14.266a2.722,2.722,0,0,0,2.314,1.271,2.681,2.681,0,0,0,2.169-1.266,2.669,2.669,0,0,1,5,1.3c0,4.089-3.68,7.358-7.23,9.231-3.6-1.858-7.237-5.157-7.241-9.216a2.672,2.672,0,0,1,4.99-1.318Zm0,0" transform="translate(-138.372 -251.246)" fill="#2e266f"/>
    <path id="Path_248" data-name="Path 248" d="M182.555,405.016a1.9,1.9,0,0,0,1.9,1.9h34.38a4.848,4.848,0,0,0,4.843-4.842V373.226a1.9,1.9,0,0,0-3.8,0v9.143h-9.885a4.847,4.847,0,0,0-4.842,4.843v15.907h-20.7a1.9,1.9,0,0,0-1.9,1.9Zm26.392-17.8a1.049,1.049,0,0,1,1.047-1.048h9.886V402.07a1.05,1.05,0,0,1-1.048,1.048h-9.885Zm0,0" transform="translate(-136.376 -277.397)" fill="#2e266f"/>
    <path id="Path_249" data-name="Path 249" d="M87.3,85.15c0-11.217-9.606-15.3-10.014-15.463l-.037-.015L54.566,60.887V55.568A17.777,17.777,0,0,0,61.3,43.808c4.17-.564,7.613-3.907,7.613-8a7.551,7.551,0,0,0-1.956-5.02V23.513a23.513,23.513,0,1,0-47.026,0v7.435A7.268,7.268,0,0,0,17.976,35.8c0,4.083,3.425,7.438,7.612,8a17.585,17.585,0,0,0,7.12,12.04v5.039c-.023.009-22.672,8.788-22.694,8.8C9.6,69.854,0,73.932,0,85.15v39.524a4.848,4.848,0,0,0,4.843,4.842h34.38a1.9,1.9,0,1,0,0-3.794h-20.7V109.814a4.848,4.848,0,0,0-4.843-4.843H3.794V85.15A13.145,13.145,0,0,1,11.444,73.2l15.78-6.118C29.875,72.744,37.43,75.6,43.636,75.6S57.4,72.749,60.049,67.081l15.8,6.12A13.246,13.246,0,0,1,83.5,85.15v1.825a1.9,1.9,0,0,0,3.794,0V85.15Zm-83.5,23.616H13.68a1.049,1.049,0,0,1,1.047,1.048v15.907H4.842a1.049,1.049,0,0,1-1.047-1.047ZM65.122,35.8c0,1.975-1.711,3.61-3.668,4.117V31.693A4.584,4.584,0,0,1,65.122,35.8ZM25.438,39.921c-1.959-.508-3.668-2.145-3.668-4.118,0-1.891,1.824-3.42,3.668-4Zm.081-12.034a9.919,9.919,0,0,0-1.792.5v-4.87a19.719,19.719,0,1,1,39.437,0v4.733a9.76,9.76,0,0,0-1.71-.427,4.565,4.565,0,0,0-.078-1.123c-.248-.982-1.265-1.893-5.721-6.68A3.381,3.381,0,0,0,51.17,19.3a36.57,36.57,0,0,1-22.112,5.953,3.372,3.372,0,0,0-3.538,2.628Zm3.713,13.645V29.072a40.521,40.521,0,0,0,23.712-6.4c2.728,2.93,4.235,4.5,4.714,5.085V41.532A14,14,0,0,1,43.695,55.514h-.034A14.074,14.074,0,0,1,29.233,41.532Zm21.539,16.3v3.649a9.721,9.721,0,0,1-14.27,0v-3.53a19.393,19.393,0,0,0,7.174,1.36,17.817,17.817,0,0,0,7.1-1.479ZM33.28,68.594a7.792,7.792,0,0,1-2.5-2.886l3.3-1.279a13.525,13.525,0,0,0,19.131,0l3.3,1.277c-2.71,5.343-14.314,9.046-23.22,2.888Zm0,0" fill="#2e266f"/>
  </g>
</svg>
