<svg xmlns="http://www.w3.org/2000/svg" width="100" height="100" viewBox="0 0 100 100">
  <g id="Group_359" data-name="Group 359" transform="translate(-25 -26)">
    <circle id="Ellipse_15" data-name="Ellipse 15" cx="40" cy="40" r="40" transform="translate(35 35)" fill="#fff"/>
    <g id="happy_face" data-name="happy face" transform="translate(25 26)">
      <g id="Outline">
        <path id="Path_163" data-name="Path 163" d="M23.49,10.508a1.538,1.538,0,0,0,.814-.23,1.562,1.562,0,1,0-1.629-2.666l0,0a1.563,1.563,0,0,0,.818,2.895Z" transform="translate(0 0)" fill="#707070"/>
        <path id="Path_164" data-name="Path 164" d="M98.98,37.408a44.623,44.623,0,0,0-2.926-8.814,46.166,46.166,0,0,0-4.623-7.969,48,48,0,0,0-6.113-6.932,49.837,49.837,0,0,0-7.4-5.713A51.092,51.092,0,0,0,69.43,3.67,52.336,52.336,0,0,0,60.057.949,53.508,53.508,0,0,0,50,0h0A53.451,53.451,0,0,0,38.734,1.2,51.855,51.855,0,0,0,28.367,4.6,1.563,1.563,0,0,0,29.01,7.59a1.543,1.543,0,0,0,.641-.139l.006,0A49.208,49.208,0,0,1,50,3.125a48.309,48.309,0,0,1,33.184,12.85,42.076,42.076,0,0,1,13.691,30.9C96.883,58.627,91.729,71.383,83.088,81c-9.2,10.238-20.943,15.877-33.078,15.877h-.02c-12.135,0-23.881-5.639-33.078-15.877C8.271,71.383,3.117,58.627,3.125,46.875A42.6,42.6,0,0,1,19.369,13.758a1.563,1.563,0,0,0-1.961-2.434A48.5,48.5,0,0,0,10.2,18.5a46.466,46.466,0,0,0-5.486,8.482A44.246,44.246,0,0,0,0,46.875a48.246,48.246,0,0,0,1.018,9.717,54.129,54.129,0,0,0,2.9,9.488,58.442,58.442,0,0,0,4.59,8.937,59.374,59.374,0,0,0,6.074,8.066,56.053,56.053,0,0,0,7.375,6.873A51.009,51.009,0,0,0,30.453,95.3a45.676,45.676,0,0,0,9.412,3.465,42.223,42.223,0,0,0,20.27,0A45.676,45.676,0,0,0,69.547,95.3a51.008,51.008,0,0,0,8.492-5.344,56.053,56.053,0,0,0,7.375-6.873,59.374,59.374,0,0,0,6.074-8.066,58.441,58.441,0,0,0,4.59-8.937,54.129,54.129,0,0,0,2.9-9.488A48.246,48.246,0,0,0,100,46.875a44.468,44.468,0,0,0-1.019-9.466Z" transform="translate(0 0)" fill="#707070"/>
        <path id="Path_165" data-name="Path 165" d="M25,31.25a1.563,1.563,0,0,0,1.563-1.562,4.688,4.688,0,0,1,9.375,0,1.563,1.563,0,0,0,3.125,0,7.813,7.813,0,0,0-15.625,0A1.563,1.563,0,0,0,25,31.25Z" transform="translate(0 0)" fill="#707070"/>
        <path id="Path_166" data-name="Path 166" d="M64.063,29.688a4.688,4.688,0,0,1,9.375,0,1.563,1.563,0,0,0,3.125,0,7.813,7.813,0,0,0-15.625,0,1.563,1.563,0,0,0,3.125,0Z" transform="translate(0 0)" fill="#707070"/>
        <path id="Path_167" data-name="Path 167" d="M14.063,41.406a1.563,1.563,0,0,0,1.563,1.563,9.917,9.917,0,0,0,4.883-1.207c.762,5.308,3.763,10.2,8.646,14A33.985,33.985,0,0,0,50,62.5a33.989,33.989,0,0,0,20.847-6.736c4.883-3.8,7.885-8.694,8.646-14a9.917,9.917,0,0,0,4.882,1.207,1.563,1.563,0,1,0,0-3.125,6.427,6.427,0,0,1-6.31-4.336,1.563,1.563,0,0,0-3,.859,8.885,8.885,0,0,0,1.5,2.858C76.445,50.352,64.576,59.375,50,59.375s-26.445-9.023-26.56-20.15a8.885,8.885,0,0,0,1.5-2.858,1.562,1.562,0,1,0-3-.869,6.428,6.428,0,0,1-6.313,4.346,1.563,1.563,0,0,0-1.562,1.563Z" transform="translate(0 0)" fill="#707070"/>
      </g>
    </g>
  </g>
</svg>
