<svg xmlns="http://www.w3.org/2000/svg" width="40.067" height="40.058" viewBox="0 0 40.067 40.058">
  <path id="Path_143" data-name="Path 143" d="M38.078,3.856c-.01-.007-.016-.017-.027-.023-.113-.061-.231-.113-.348-.165l-.067-.032a4.646,4.646,0,0,0-.552-.192h-.007a4.715,4.715,0,1,0-8.314,4.1L22.486,13.82c-.349-.8-.868-1.629-1.551-1.658a.839.839,0,0,0-.795.467,1.612,1.612,0,0,0-.164.713,2.8,2.8,0,0,1-1.006,2.011,3.086,3.086,0,0,1-2.338.7C12.691,15.6,8.38,17.3,5.081,20.6-.14,25.813-1.057,33.389,3.035,37.483a9.094,9.094,0,0,0,6.573,2.571,12.058,12.058,0,0,0,1.536-.1,15.4,15.4,0,0,0,8.783-4.515c3.3-3.3,5-7.614,4.542-11.55a3.078,3.078,0,0,1,.7-2.338,2.82,2.82,0,0,1,2.044-1.009c1.127-.05,1.151-.805,1.144-.957-.024-.563-.686-1.123-1.658-1.552l6.278-6.278a4.714,4.714,0,1,0,5.1-7.9ZM24.148,20.689a4.422,4.422,0,0,0-1.008,3.349c.408,3.532-1.147,7.44-4.159,10.453a14.054,14.054,0,0,1-8.008,4.134,8.159,8.159,0,0,1-6.993-2.09c-3.572-3.57-2.655-10.3,2.044-15a13.549,13.549,0,0,1,9.323-4.224,9.945,9.945,0,0,1,1.129.067,4.421,4.421,0,0,0,3.353-1.008A4.136,4.136,0,0,0,21.188,14.2a7.411,7.411,0,0,1,.394,1.065c.04.138.081.293.12.463l.007.025c.041.182.079.384.111.6.006.038.01.078.016.116.023.172.042.353.056.541,0,.062.009.124.011.186.011.234.017.475.006.726a.666.666,0,0,0,.2.5.694.694,0,0,0,.5.2c.246-.011.481-.005.71.006.078,0,.155.009.232.015q.237.018.456.047c.067.009.134.015.2.025.2.031.382.067.551.1.059.013.113.029.172.043.115.029.229.057.328.086a7.216,7.216,0,0,1,1.069.393,4.145,4.145,0,0,0-2.173,1.359ZM38.2,10.371a3.38,3.38,0,0,1-4.78,0,.668.668,0,0,0-.944,0L25.286,17.56l-.14-.031-.1-.021c-.121-.028-.246-.052-.379-.077l-.053-.009c-.134-.024-.272-.046-.417-.067l-.052-.006c-.138-.018-.278-.034-.425-.047-.032,0-.067,0-.1-.006-.126-.009-.25-.02-.381-.024-.007-.2-.02-.383-.037-.567a.615.615,0,0,0-.008-.063c-.016-.158-.034-.312-.056-.46,0-.031-.01-.061-.015-.091-.021-.134-.043-.267-.067-.389-.006-.033-.013-.067-.02-.1q-.035-.171-.074-.329c0-.013-.006-.029-.009-.042l6.75-6.751a4.674,4.674,0,0,0,2,.868.73.73,0,0,0,.118.01.668.668,0,0,0,.116-1.325,3.37,3.37,0,1,1,2.986-5.713,3.344,3.344,0,0,1,.661.954,4.721,4.721,0,0,0-1.364.267A.668.668,0,0,0,34.671,4.8a3.391,3.391,0,0,1,1.947-.086c.07.017.141.033.21.054a3.374,3.374,0,0,1,1.37,5.605Zm0,0" transform="translate(-0.477 0.001)" fill="#707070"/>
</svg>
