<svg id="Group_362" data-name="Group 362" xmlns="http://www.w3.org/2000/svg" width="27.22" height="40.83" viewBox="0 0 27.22 40.83">
  <path id="Path_205" data-name="Path 205" d="M98.943,0A13.611,13.611,0,0,0,86.967,20.078L98.2,40.391a.851.851,0,0,0,1.489,0l11.236-20.32A13.612,13.612,0,0,0,98.943,0ZM109.43,19.254,98.943,38.221,88.46,19.262a11.909,11.909,0,1,1,20.97-.007Z" transform="translate(-85.333)" fill="#acacac"/>
  <path id="Path_206" data-name="Path 206" d="M177.472,85.333a6.8,6.8,0,1,0,6.8,6.8A6.813,6.813,0,0,0,177.472,85.333Zm0,11.909a5.1,5.1,0,1,1,5.1-5.1A5.109,5.109,0,0,1,177.472,97.242Z" transform="translate(-163.862 -78.528)" fill="#acacac"/>
</svg>
