<svg xmlns="http://www.w3.org/2000/svg" width="40.353" height="26.903" viewBox="0 0 40.353 26.903">
  <path id="Union_2" data-name="Union 2" d="M-5912.128-4734.1a3.356,3.356,0,0,1-2.8-1.5,6.372,6.372,0,0,1-1.073-3.544v-.843a.839.839,0,0,1,.84-.84h1.724a17.658,17.658,0,0,1,15.3-16.646,2.523,2.523,0,0,1-.213-1.009,2.525,2.525,0,0,1,2.522-2.522,2.525,2.525,0,0,1,2.521,2.522,2.491,2.491,0,0,1-.214,1.009,17.659,17.659,0,0,1,15.3,16.646h1.724a.839.839,0,0,1,.84.84v.843a6.368,6.368,0,0,1-1.074,3.544,3.355,3.355,0,0,1-2.8,1.5Zm-2.19-5.042a4.7,4.7,0,0,0,.79,2.612,1.683,1.683,0,0,0,1.4.75h32.609a1.68,1.68,0,0,0,1.4-.75,4.694,4.694,0,0,0,.792-2.612h-36.99Zm2.564-1.684h31.86a15.978,15.978,0,0,0-15.929-15.132A15.98,15.98,0,0,0-5911.754-4740.823Zm15.089-17.655a.842.842,0,0,0,.842.84.842.842,0,0,0,.84-.84.842.842,0,0,0-.84-.84A.842.842,0,0,0-5896.665-4758.478Zm-11.232,12.5a.841.841,0,0,1-.306-1.149,14.265,14.265,0,0,1,6.12-5.7.838.838,0,0,1,1.124.386.841.841,0,0,1-.388,1.124,12.627,12.627,0,0,0-5.4,5.036.839.839,0,0,1-.729.42A.844.844,0,0,1-5907.9-4745.98Z" transform="translate(5916 4761)" fill="#707070"/>
</svg>
