<svg xmlns="http://www.w3.org/2000/svg" width="40.167" height="26.778" viewBox="0 0 40.167 26.778">
  <g id="dish_1_" data-name="dish (1)" transform="translate(0 -85.333)">
    <g id="Group_127" data-name="Group 127" transform="translate(0 85.333)">
      <g id="Group_126" data-name="Group 126" transform="translate(0 0)">
        <path id="Path_109" data-name="Path 109" d="M103.7,187.942a14.206,14.206,0,0,0-6.091,5.678.837.837,0,1,0,1.448.839,12.554,12.554,0,0,1,5.377-5.013.837.837,0,0,0-.734-1.5Z" transform="translate(-89.849 -179.813)" fill="#fff"/>
        <path id="Path_110" data-name="Path 110" d="M39.33,105.417H37.614A17.576,17.576,0,0,0,22.381,88.848a2.51,2.51,0,1,0-4.595,0A17.576,17.576,0,0,0,2.553,105.417H.837a.836.836,0,0,0-.837.837v.839a6.341,6.341,0,0,0,1.069,3.529,3.34,3.34,0,0,0,2.785,1.491H36.313A3.342,3.342,0,0,0,39.1,110.62a6.344,6.344,0,0,0,1.068-3.528v-.839A.836.836,0,0,0,39.33,105.417ZM20.083,87.007a.837.837,0,1,1-.837.837A.837.837,0,0,1,20.083,87.007Zm0,3.347a15.906,15.906,0,0,1,15.857,15.063H4.226A15.906,15.906,0,0,1,20.083,90.354Zm18.41,16.738a4.672,4.672,0,0,1-.788,2.6,1.671,1.671,0,0,1-1.393.745H3.854a1.671,1.671,0,0,1-1.393-.746,4.675,4.675,0,0,1-.787-2.6v0h36.82Z" transform="translate(0 -85.333)" fill="#fff"/>
      </g>
    </g>
  </g>
</svg>
