<svg xmlns="http://www.w3.org/2000/svg" width="39.991" height="39.995" viewBox="0 0 39.991 39.995">
  <g id="place_1_" data-name="place (1)" transform="translate(-0.027)">
    <g id="Group_252" data-name="Group 252" transform="translate(8.521)">
      <g id="Group_251" data-name="Group 251">
        <path id="Path_198" data-name="Path 198" d="M120.258,0a11.492,11.492,0,0,0-8.923,18.733q.019.029.04.056l8.267,10.591a.781.781,0,0,0,1.232,0l8.307-10.647.009-.011A11.491,11.491,0,0,0,120.258,0Zm7.7,17.759-.028.037-7.672,9.834-7.595-9.73a.784.784,0,0,0-.064-.089,9.93,9.93,0,1,1,15.359-.052Z" transform="translate(-108.767)" fill="#acacac"/>
      </g>
    </g>
    <g id="Group_254" data-name="Group 254" transform="translate(12.983 4.632)">
      <g id="Group_253" data-name="Group 253">
        <path id="Path_199" data-name="Path 199" d="M179.655,64.329a.781.781,0,1,0-1.5.442,5.467,5.467,0,1,1-3.686-3.69.781.781,0,1,0,.443-1.5,7.03,7.03,0,1,0,4.741,4.745Z" transform="translate(-165.884 -59.293)" fill="#acacac"/>
      </g>
    </g>
    <g id="Group_256" data-name="Group 256" transform="translate(23.65 6.463)">
      <g id="Group_255" data-name="Group 255">
        <path id="Path_200" data-name="Path 200" d="M303.784,82.973l-.014-.014a.781.781,0,1,0-1.1,1.1l.014.014a.781.781,0,1,0,1.1-1.1Z" transform="translate(-302.436 -82.73)" fill="#acacac"/>
      </g>
    </g>
    <g id="Group_258" data-name="Group 258" transform="translate(0.027 22.356)">
      <g id="Group_257" data-name="Group 257">
        <path id="Path_201" data-name="Path 201" d="M32.022,287.682a.781.781,0,0,0-.488,1.484c4.335,1.426,6.922,3.564,6.922,5.717,0,1.821-1.878,3.663-5.152,5.054a35.048,35.048,0,0,1-13.281,2.329,35.048,35.048,0,0,1-13.281-2.329c-3.274-1.391-5.152-3.233-5.152-5.054,0-1.525,1.315-3.074,3.7-4.362a28.381,28.381,0,0,1,10.062-2.775.781.781,0,1,0-.168-1.553,29.946,29.946,0,0,0-10.635,2.953c-2.96,1.6-4.524,3.58-4.524,5.736,0,2.514,2.168,4.82,6.1,6.492a36.626,36.626,0,0,0,13.892,2.453,36.624,36.624,0,0,0,13.892-2.453c3.936-1.672,6.1-3.978,6.1-6.492C40.018,291.979,37.1,289.354,32.022,287.682Z" transform="translate(-0.027 -286.189)" fill="#acacac"/>
      </g>
    </g>
    <g id="Group_260" data-name="Group 260" transform="translate(27.485 22.892)">
      <g id="Group_259" data-name="Group 259">
        <path id="Path_202" data-name="Path 202" d="M352.494,293.069l-.027-.005a.781.781,0,1,0-.309,1.531l.027.005a.781.781,0,0,0,.309-1.531Z" transform="translate(-351.531 -293.048)" fill="#acacac"/>
      </g>
    </g>
    <g id="Group_262" data-name="Group 262" transform="translate(12.569 25.699)">
      <g id="Group_261" data-name="Group 261">
        <path id="Path_203" data-name="Path 203" d="M162.126,329.609a.781.781,0,0,0-.919-.613l-.054.013a.781.781,0,1,0,.973.6Z" transform="translate(-160.577 -328.982)" fill="#acacac"/>
      </g>
    </g>
    <g id="Group_264" data-name="Group 264" transform="translate(8.16 25.053)">
      <g id="Group_263" data-name="Group 263">
        <path id="Path_204" data-name="Path 204" d="M118.612,320.718a.781.781,0,0,0-.122,1.557c5.1.4,7.816,1.891,7.816,2.814,0,.445-.71,1.2-2.711,1.869a28.183,28.183,0,0,1-15.178,0c-2-.667-2.711-1.423-2.711-1.869,0-.407.552-.92,1.477-1.373a.781.781,0,1,0-.687-1.4c-1.944.951-2.352,2.035-2.352,2.776,0,2.936,5.968,4.472,11.862,4.472s11.862-1.536,11.862-4.472C127.868,322.4,122.882,321.052,118.612,320.718Z" transform="translate(-104.143 -320.716)" fill="#acacac"/>
      </g>
    </g>
  </g>
</svg>
