<svg xmlns="http://www.w3.org/2000/svg" xmlns:xlink="http://www.w3.org/1999/xlink" width="100" height="100" viewBox="0 0 100 100">
  <defs>
    <clipPath id="clip-path">
      <circle id="Ellipse_13" data-name="Ellipse 13" cx="50" cy="50" r="50" fill="#707070"/>
    </clipPath>
  </defs>
  <g id="Group_360" data-name="Group 360" transform="translate(0 -44.937)">
    <circle id="Ellipse_17" data-name="Ellipse 17" cx="40" cy="40" r="40" transform="translate(9.5 54.937)" fill="#fff"/>
    <g id="unhappy" transform="translate(0 44.937)" clip-path="url(#clip-path)">
      <g id="Unamused_Face" data-name="Unamused Face" transform="translate(0.016 0)">
        <g id="Outline">
          <path id="Path_168" data-name="Path 168" d="M98.952,39.911A49.988,49.988,0,0,0,24.769,6.816a1.562,1.562,0,0,0,1.578,2.7,46.922,46.922,0,1,1-9.536,7.375A1.562,1.562,0,0,0,14.6,14.681a49.991,49.991,0,1,0,84.354,25.23Z" transform="translate(0.001 0.013)" fill="#707070"/>
          <path id="Path_169" data-name="Path 169" d="M20.388,13.218a1.548,1.548,0,0,0,.955-.326l.023-.018a1.564,1.564,0,1,0-.978.344Z" transform="translate(0.001 0.013)" fill="#707070"/>
          <path id="Path_170" data-name="Path 170" d="M24.995,43.914a1.558,1.558,0,0,0,.969-.337,15.512,15.512,0,0,1,9.592-2.96,4.686,4.686,0,1,0,7.777,1.221,1.558,1.558,0,0,0-.46-2.442c-10.149-5.075-18.505,1.459-18.857,1.739a1.562,1.562,0,0,0,.979,2.779Zm14.055-1.74a1.562,1.562,0,1,1-1.562,1.562A1.562,1.562,0,0,1,39.05,42.174Z" transform="translate(0.001 0.013)" fill="#707070"/>
          <path id="Path_171" data-name="Path 171" d="M74.112,39.4c-10.149-5.075-18.505,1.459-18.857,1.739A1.562,1.562,0,0,0,57.2,43.577a15.512,15.512,0,0,1,9.592-2.96,4.686,4.686,0,1,0,7.777,1.221,1.558,1.558,0,0,0-.46-2.442ZM70.29,45.3a1.562,1.562,0,1,1,1.562-1.562A1.562,1.562,0,0,1,70.29,45.3Z" transform="translate(0.001 0.013)" fill="#707070"/>
          <path id="Path_172" data-name="Path 172" d="M34.41,61.3A1.56,1.56,0,0,0,36.3,62.433c.123-.031,12.447-3.078,19.928-3.078,5.41,0,6.192,1.558,6.255,1.716a1.562,1.562,0,0,0,1.555,1.408h.023A1.562,1.562,0,0,0,65.6,60.895c-.007-.477-.33-4.663-9.372-4.663-7.865,0-20.164,3.041-20.684,3.17A1.562,1.562,0,0,0,34.41,61.3Z" transform="translate(0.001 0.013)" fill="#707070"/>
        </g>
      </g>
    </g>
  </g>
</svg>
