<svg xmlns="http://www.w3.org/2000/svg" xmlns:xlink="http://www.w3.org/1999/xlink" width="220" height="342" viewBox="0 0 220 342">
  <defs>
    <clipPath id="clip-path">
      <rect width="20" height="270" fill="none"/>
    </clipPath>
    <clipPath id="clip-path-2">
      <rect width="20" height="105" fill="none"/>
    </clipPath>
    <clipPath id="clip-path-3">
      <rect width="20" height="261" fill="none"/>
    </clipPath>
    <clipPath id="clip-path-4">
      <rect width="20" height="222" fill="none"/>
    </clipPath>
    <clipPath id="clip-path-5">
      <rect width="20" height="186" fill="none"/>
    </clipPath>
  </defs>
  <g id="Group_22" data-name="Group 22" transform="translate(-978 -950)">
    <g id="Repeat_Grid_4" data-name="Repeat Grid 4" transform="translate(978 990)" clip-path="url(#clip-path)">
      <g transform="translate(-754 -1080)">
        <rect id="Rectangle_18" data-name="Rectangle 18" width="20" height="20" transform="translate(754 1080)" fill="#fff"/>
      </g>
      <g transform="translate(-754 -1040)">
        <rect id="Rectangle_18-2" data-name="Rectangle 18" width="20" height="20" transform="translate(754 1080)" fill="#fff"/>
      </g>
      <g transform="translate(-754 -1000)">
        <rect id="Rectangle_18-3" data-name="Rectangle 18" width="20" height="20" transform="translate(754 1080)" fill="#fff"/>
      </g>
      <g transform="translate(-754 -960)">
        <rect id="Rectangle_18-4" data-name="Rectangle 18" width="20" height="20" transform="translate(754 1080)" fill="#fff"/>
      </g>
      <g transform="translate(-754 -920)">
        <rect id="Rectangle_18-5" data-name="Rectangle 18" width="20" height="20" transform="translate(754 1080)" fill="#fff"/>
      </g>
      <g transform="translate(-754 -880)">
        <rect id="Rectangle_18-6" data-name="Rectangle 18" width="20" height="20" transform="translate(754 1080)" fill="#fff"/>
      </g>
      <g transform="translate(-754 -840)">
        <rect id="Rectangle_18-7" data-name="Rectangle 18" width="20" height="20" transform="translate(754 1080)" fill="#fff"/>
      </g>
    </g>
    <g id="Repeat_Grid_5" data-name="Repeat Grid 5" transform="translate(1018 1030)" clip-path="url(#clip-path-2)">
      <g transform="translate(-754 -1080)">
        <rect id="Rectangle_18-8" data-name="Rectangle 18" width="20" height="20" transform="translate(754 1080)" fill="#fff"/>
      </g>
      <g transform="translate(-754 -1040)">
        <rect id="Rectangle_18-9" data-name="Rectangle 18" width="20" height="20" transform="translate(754 1080)" fill="#fff"/>
      </g>
      <g transform="translate(-754 -1000)">
        <rect id="Rectangle_18-10" data-name="Rectangle 18" width="20" height="20" transform="translate(754 1080)" fill="#fff"/>
      </g>
    </g>
    <g id="Repeat_Grid_6" data-name="Repeat Grid 6" transform="translate(1058 950)" clip-path="url(#clip-path-3)">
      <g transform="translate(-754 -1080)">
        <rect id="Rectangle_18-11" data-name="Rectangle 18" width="20" height="20" transform="translate(754 1080)" fill="#fff"/>
      </g>
      <g transform="translate(-754 -1040)">
        <rect id="Rectangle_18-12" data-name="Rectangle 18" width="20" height="20" transform="translate(754 1080)" fill="#fff"/>
      </g>
      <g transform="translate(-754 -1000)">
        <rect id="Rectangle_18-13" data-name="Rectangle 18" width="20" height="20" transform="translate(754 1080)" fill="#fff"/>
      </g>
      <g transform="translate(-754 -960)">
        <rect id="Rectangle_18-14" data-name="Rectangle 18" width="20" height="20" transform="translate(754 1080)" fill="#fff"/>
      </g>
      <g transform="translate(-754 -920)">
        <rect id="Rectangle_18-15" data-name="Rectangle 18" width="20" height="20" transform="translate(754 1080)" fill="#fff"/>
      </g>
      <g transform="translate(-754 -880)">
        <rect id="Rectangle_18-16" data-name="Rectangle 18" width="20" height="20" transform="translate(754 1080)" fill="#fff"/>
      </g>
      <g transform="translate(-754 -840)">
        <rect id="Rectangle_18-17" data-name="Rectangle 18" width="20" height="20" transform="translate(754 1080)" fill="#fff"/>
      </g>
    </g>
    <g id="Repeat_Grid_7" data-name="Repeat Grid 7" transform="translate(1098 1070)" clip-path="url(#clip-path-4)">
      <g transform="translate(-754 -1080)">
        <rect id="Rectangle_18-18" data-name="Rectangle 18" width="20" height="20" transform="translate(754 1080)" fill="#fff"/>
      </g>
      <g transform="translate(-754 -1040)">
        <rect id="Rectangle_18-19" data-name="Rectangle 18" width="20" height="20" transform="translate(754 1080)" fill="#fff"/>
      </g>
      <g transform="translate(-754 -1000)">
        <rect id="Rectangle_18-20" data-name="Rectangle 18" width="20" height="20" transform="translate(754 1080)" fill="#fff"/>
      </g>
      <g transform="translate(-754 -960)">
        <rect id="Rectangle_18-21" data-name="Rectangle 18" width="20" height="20" transform="translate(754 1080)" fill="#fff"/>
      </g>
      <g transform="translate(-754 -920)">
        <rect id="Rectangle_18-22" data-name="Rectangle 18" width="20" height="20" transform="translate(754 1080)" fill="#fff"/>
      </g>
      <g transform="translate(-754 -880)">
        <rect id="Rectangle_18-23" data-name="Rectangle 18" width="20" height="20" transform="translate(754 1080)" fill="#fff"/>
      </g>
    </g>
    <g id="Repeat_Grid_8" data-name="Repeat Grid 8" transform="translate(1138 990)" clip-path="url(#clip-path-5)">
      <g transform="translate(-754 -1080)">
        <rect id="Rectangle_18-24" data-name="Rectangle 18" width="20" height="20" transform="translate(754 1080)" fill="#fff"/>
      </g>
      <g transform="translate(-754 -1040)">
        <rect id="Rectangle_18-25" data-name="Rectangle 18" width="20" height="20" transform="translate(754 1080)" fill="#fff"/>
      </g>
      <g transform="translate(-754 -1000)">
        <rect id="Rectangle_18-26" data-name="Rectangle 18" width="20" height="20" transform="translate(754 1080)" fill="#fff"/>
      </g>
      <g transform="translate(-754 -960)">
        <rect id="Rectangle_18-27" data-name="Rectangle 18" width="20" height="20" transform="translate(754 1080)" fill="#fff"/>
      </g>
      <g transform="translate(-754 -920)">
        <rect id="Rectangle_18-28" data-name="Rectangle 18" width="20" height="20" transform="translate(754 1080)" fill="#fff"/>
      </g>
    </g>
    <g id="Repeat_Grid_9" data-name="Repeat Grid 9" transform="translate(1178 990)" clip-path="url(#clip-path)">
      <g transform="translate(-754 -1080)">
        <rect id="Rectangle_18-29" data-name="Rectangle 18" width="20" height="20" transform="translate(754 1080)" fill="#fff"/>
      </g>
      <g transform="translate(-754 -1040)">
        <rect id="Rectangle_18-30" data-name="Rectangle 18" width="20" height="20" transform="translate(754 1080)" fill="#fff"/>
      </g>
      <g transform="translate(-754 -1000)">
        <rect id="Rectangle_18-31" data-name="Rectangle 18" width="20" height="20" transform="translate(754 1080)" fill="#fff"/>
      </g>
      <g transform="translate(-754 -960)">
        <rect id="Rectangle_18-32" data-name="Rectangle 18" width="20" height="20" transform="translate(754 1080)" fill="#fff"/>
      </g>
      <g transform="translate(-754 -920)">
        <rect id="Rectangle_18-33" data-name="Rectangle 18" width="20" height="20" transform="translate(754 1080)" fill="#fff"/>
      </g>
      <g transform="translate(-754 -880)">
        <rect id="Rectangle_18-34" data-name="Rectangle 18" width="20" height="20" transform="translate(754 1080)" fill="#fff"/>
      </g>
      <g transform="translate(-754 -840)">
        <rect id="Rectangle_18-35" data-name="Rectangle 18" width="20" height="20" transform="translate(754 1080)" fill="#fff"/>
      </g>
    </g>
  </g>
</svg>
