<svg xmlns="http://www.w3.org/2000/svg" width="30.09" height="40.361" viewBox="0 0 30.09 40.361">
  <g id="coke" transform="translate(-65.142)">
    <g id="Group_188" data-name="Group 188" transform="translate(65.142 0)">
      <g id="Group_187" data-name="Group 187" transform="translate(0 0)">
        <path id="Path_146" data-name="Path 146" d="M79.533,23.874a3.729,3.729,0,0,0,.045-.429v0a.022.022,0,0,1,0,0c0-.058,0-.116,0-.173V15.733q0-.371-.036-.74s0,0,0-.007a7.817,7.817,0,0,0-.984-3.109L75.958,7.295h0l-.478-.84a8.427,8.427,0,0,1-.862-2.172A1.25,1.25,0,0,0,75.453,3.1V1.249A1.251,1.251,0,0,0,74.2,0H70.522a1.251,1.251,0,0,0-1.249,1.249V3.1a1.251,1.251,0,0,0,.835,1.177,8.424,8.424,0,0,1-.862,2.172l-.478.84-2.606,4.583a7.817,7.817,0,0,0-.984,3.109v.007q-.035.368-.036.74v7.533c0,.057,0,.115,0,.173,0,0,0,0,0,0v0a3.789,3.789,0,0,0,.046.434L65.9,27.9a6.9,6.9,0,0,1-.3,3.408,8.046,8.046,0,0,0-.459,2.682v.533a8.086,8.086,0,0,0,1.008,3.9l.351.634a2.515,2.515,0,0,0,2.2,1.3H70A1.621,1.621,0,0,0,71.3,39.7a.427.427,0,0,1,.344-.175h1.433a.428.428,0,0,1,.344.175,1.621,1.621,0,0,0,1.307.665h1.295a2.515,2.515,0,0,0,2.2-1.3l.351-.634a8.087,8.087,0,0,0,1.008-3.9v-.533a8.046,8.046,0,0,0-.459-2.682,6.89,6.89,0,0,1-.3-3.4ZM70.522,1.19H74.2a.059.059,0,0,1,.059.059V3.1a.059.059,0,0,1-.059.059H70.522a.059.059,0,0,1-.059-.059V1.249h0A.059.059,0,0,1,70.522,1.19Zm.791,3.164h2.1a9.613,9.613,0,0,0,1,2.639h-4.11A9.611,9.611,0,0,0,71.312,4.354Zm-4.98,11.379c0-.03,0-.059,0-.089h1.74a.6.6,0,1,0,0-1.19H66.458a6.62,6.62,0,0,1,.739-1.989l2.435-4.282h5.463l2.435,4.282a6.62,6.62,0,0,1,.739,1.989H70.843a.6.6,0,1,0,0,1.19h7.549c0,.03,0,.059,0,.089v2.121a3.011,3.011,0,0,1-1.266-.63,4.061,4.061,0,0,0-5.112,0,2.882,2.882,0,0,1-3.722,0,4,4,0,0,0-1.96-.867Zm0,5.139a3.011,3.011,0,0,1,1.266.63,4.06,4.06,0,0,0,5.111,0,2.882,2.882,0,0,1,3.723,0,4,4,0,0,0,1.961.867v.451H66.332ZM78.393,34.525h0a6.9,6.9,0,0,1-.859,3.328l-.351.634a1.325,1.325,0,0,1-1.159.683H74.73A.427.427,0,0,1,74.386,39a1.621,1.621,0,0,0-1.307-.665H71.646a1.621,1.621,0,0,0-1.307.665A.428.428,0,0,1,70,39.17H68.7a1.325,1.325,0,0,1-1.159-.683l-.351-.634a6.893,6.893,0,0,1-.859-3.328v-.533a6.86,6.86,0,0,1,.391-2.286,8.094,8.094,0,0,0,.35-4l-.649-3.693H78.3l-.65,3.7a8.089,8.089,0,0,0,.351,4,6.859,6.859,0,0,1,.391,2.286Zm0-13.36h0a3.011,3.011,0,0,1-1.266-.63,4.061,4.061,0,0,0-5.112,0,2.882,2.882,0,0,1-3.722,0,4,4,0,0,0-1.96-.867V17.562a3.011,3.011,0,0,1,1.266.63,4.06,4.06,0,0,0,5.111,0,2.882,2.882,0,0,1,3.723,0,4,4,0,0,0,1.961.867Z" transform="translate(-65.142 0)" fill="#707070"/>
      </g>
    </g>
    <g id="Group_190" data-name="Group 190" transform="translate(82.943 19.797)">
      <g id="Group_189" data-name="Group 189" transform="translate(0)">
        <path id="Path_147" data-name="Path 147" d="M303.2,251.99a.931.931,0,0,0-.932-.851H291.947a.931.931,0,0,0-.932.851,25.5,25.5,0,0,0,.773,7.694l.03.131c.021.091.042.182.064.275s.043.181.066.272l.031.124c.032.128.064.258.1.389a21.167,21.167,0,0,1,.373,9.042,1.506,1.506,0,0,0,1.48,1.786h6.361a1.506,1.506,0,0,0,1.48-1.786,21.167,21.167,0,0,1,.373-9.042c.034-.131.066-.261.1-.389l.03-.122q.034-.14.067-.277c.021-.089.042-.178.062-.266l.032-.137A25.493,25.493,0,0,0,303.2,251.99ZM300.532,270.4a.311.311,0,0,1-.243.114h-6.361a.316.316,0,0,1-.31-.375c.042-.223.085-.475.125-.755,1.018.055,2.169.084,3.365.084s2.347-.029,3.365-.084c.041.28.083.533.125.755A.314.314,0,0,1,300.532,270.4Zm-4.368-15.992h5.861c-.021.348-.053.738-.1,1.167l0,.033c0,.034-.008.07-.012.1a38.254,38.254,0,0,1-.83,4.5c-.03.12-.059.24-.091.362a22.855,22.855,0,0,0-.651,7.62c-.979.051-2.082.078-3.23.078s-2.25-.027-3.23-.078a22.857,22.857,0,0,0-.65-7.62c-.032-.123-.061-.242-.091-.362a38.284,38.284,0,0,1-.829-4.5c0-.036-.009-.073-.012-.109l0-.029c-.046-.43-.078-.82-.1-1.169h1.2a.6.6,0,1,0,0-1.19h-1.243c0-.3.01-.6.03-.887h9.855c.02.288.03.585.03.887h-5.9a.6.6,0,1,0,0,1.19Z" transform="translate(-290.965 -251.139)" fill="#707070"/>
      </g>
    </g>
  </g>
</svg>
