<svg xmlns="http://www.w3.org/2000/svg" width="31.378" height="40.61" viewBox="0 0 31.378 40.61">
  <g id="filter" transform="translate(0)">
    <g id="Group_85" data-name="Group 85" transform="translate(0.666 7.138)">
      <g id="Group_84" data-name="Group 84">
        <path id="Path_55" data-name="Path 55" d="M97.118,96.234a1.583,1.583,0,0,0-1.4-.841H91.212a4.52,4.52,0,0,0-8.9,0H77.747a3.49,3.49,0,1,0-5.846,0H68.179a1.586,1.586,0,0,0-1.316,2.472l10.644,15.828v8.985a.793.793,0,0,0,1.11.727l7.3-3.178a.793.793,0,0,0,.476-.727v-5.808L97.034,97.865A1.583,1.583,0,0,0,97.118,96.234ZM86.762,93.252a2.939,2.939,0,0,1,2.825,2.142h-5.65A2.939,2.939,0,0,1,86.762,93.252ZM74.824,91.586a1.9,1.9,0,1,1-1.9,1.9A1.906,1.906,0,0,1,74.824,91.586Zm10.115,21.422a.793.793,0,0,0-.135.443v5.53l-5.711,2.487v-7.223h2.865a.793.793,0,1,0,0-1.586H78.722L70.74,100.787H86.762a.793.793,0,1,0,0-1.586H69.673L68.18,96.98H95.717Z" transform="translate(-66.593 -90)" fill="#2e266f"/>
      </g>
    </g>
    <g id="Group_87" data-name="Group 87" transform="translate(15.239)">
      <g id="Group_86" data-name="Group 86">
        <path id="Path_56" data-name="Path 56" d="M253.814,0a3.49,3.49,0,1,0,3.49,3.49A3.494,3.494,0,0,0,253.814,0Zm0,5.393a1.9,1.9,0,1,1,1.9-1.9A1.906,1.906,0,0,1,253.814,5.393Z" transform="translate(-250.324)" fill="#2e266f"/>
      </g>
    </g>
    <g id="Group_89" data-name="Group 89" transform="translate(26.412 3.834)">
      <g id="Group_88" data-name="Group 88">
        <path id="Path_57" data-name="Path 57" d="M391.99,48.333a.793.793,0,0,0-.793.793v4.508a.793.793,0,1,0,1.586,0V49.126A.793.793,0,0,0,391.99,48.333Z" transform="translate(-391.197 -48.333)" fill="#2e266f"/>
      </g>
    </g>
    <g id="Group_91" data-name="Group 91" transform="translate(26.412 1.229)">
      <g id="Group_90" data-name="Group 90">
        <path id="Path_58" data-name="Path 58" d="M392.551,15.732a.793.793,0,1,0,.232.561A.8.8,0,0,0,392.551,15.732Z" transform="translate(-391.197 -15.5)" fill="#2e266f"/>
      </g>
    </g>
    <g id="Group_93" data-name="Group 93" transform="translate(10.801 1.012)">
      <g id="Group_92" data-name="Group 92">
        <path id="Path_59" data-name="Path 59" d="M195.168,12.755a.793.793,0,0,0-.793.793V16.8a.793.793,0,1,0,1.586,0V13.548A.793.793,0,0,0,195.168,12.755Z" transform="translate(-194.375 -12.755)" fill="#2e266f"/>
      </g>
    </g>
    <g id="Group_95" data-name="Group 95">
      <g id="Group_94" data-name="Group 94">
        <path id="Path_60" data-name="Path 60" d="M58.99,0A.793.793,0,0,0,58.2.793V5.962a.793.793,0,0,0,1.586,0V.793A.793.793,0,0,0,58.99,0Z" transform="translate(-58.197 0)" fill="#2e266f"/>
      </g>
    </g>
    <g id="Group_97" data-name="Group 97" transform="translate(0 8.143)">
      <g id="Group_96" data-name="Group 96">
        <path id="Path_61" data-name="Path 61" d="M59.551,102.9a.793.793,0,1,0,.232.561A.8.8,0,0,0,59.551,102.9Z" transform="translate(-58.197 -102.67)" fill="#2e266f"/>
      </g>
    </g>
    <g id="Group_99" data-name="Group 99" transform="translate(23.569 16.339)">
      <g id="Group_98" data-name="Group 98">
        <path id="Path_62" data-name="Path 62" d="M356.7,206.232a.793.793,0,1,0,.232.561A.8.8,0,0,0,356.7,206.232Z" transform="translate(-355.347 -206)" fill="#2e266f"/>
      </g>
    </g>
  </g>
</svg>
