<svg xmlns="http://www.w3.org/2000/svg" xmlns:xlink="http://www.w3.org/1999/xlink" width="129" height="129" viewBox="0 0 129 129">
  <defs>
    <clipPath id="clip-path">
      <rect id="Rectangle_22" data-name="Rectangle 22" width="129" height="129" transform="translate(290 5667)" fill="#ff2d58"/>
    </clipPath>
  </defs>
  <g id="Mask_Group_2" data-name="Mask Group 2" transform="translate(-290 -5667)" clip-path="url(#clip-path)">
    <g id="food_1_" data-name="food (1)" transform="translate(290 5667)">
      <g id="Group_54" data-name="Group 54">
        <g id="Group_53" data-name="Group 53">
          <path id="Path_18" data-name="Path 18" d="M91.349,43.477l-1.38-4.543a9.869,9.869,0,0,0-18.688,0L69.9,43.477A25.518,25.518,0,0,0,69.189,55.3a11.122,11.122,0,0,0,5.728,7.751L73.371,97.61a6.809,6.809,0,0,0,1.72,5.293,7.51,7.51,0,0,0,10.61.475q.248-.227.475-.475a6.717,6.717,0,0,0,1.72-5.149L86.342,63.049A11.12,11.12,0,0,0,92.061,55.3,25.518,25.518,0,0,0,91.349,43.477ZM87.825,54.554a6.817,6.817,0,0,1-4.461,5.136A2.15,2.15,0,0,0,81.973,61.8l1.634,36.294a2.487,2.487,0,0,1-.645,1.948,3.322,3.322,0,0,1-4.674,0,2.581,2.581,0,0,1-.632-2.09L79.277,61.8a2.15,2.15,0,0,0-1.391-2.109,6.817,6.817,0,0,1-4.461-5.136,21.2,21.2,0,0,1,.591-9.817l1.38-4.545a5.575,5.575,0,0,1,10.458,0l1.38,4.545A21.231,21.231,0,0,1,87.825,54.554Z" fill="#ff2d58"/>
        </g>
      </g>
      <g id="Group_56" data-name="Group 56">
        <g id="Group_55" data-name="Group 55">
          <path id="Path_19" data-name="Path 19" d="M58.05,32.25A2.15,2.15,0,0,0,55.9,34.4V52.86l-5.82,5.82a2.15,2.15,0,0,0-.63,1.628l1.881,37.625a2.929,2.929,0,0,1-.813,2.191,3.027,3.027,0,0,1-4.281.019l-.019-.019a2.928,2.928,0,0,1-.813-2.191L47.3,60.308a2.151,2.151,0,0,0-.628-1.628L40.85,52.86V34.4a2.15,2.15,0,1,0-4.3,0V53.75a2.15,2.15,0,0,0,.63,1.52l5.775,5.777L41.121,97.724a7.263,7.263,0,0,0,14.508.707q.017-.353,0-.707L53.8,61.047,59.57,55.27a2.15,2.15,0,0,0,.63-1.52V34.4A2.15,2.15,0,0,0,58.05,32.25Z" fill="#ff2d58"/>
        </g>
      </g>
      <g id="Group_58" data-name="Group 58">
        <g id="Group_57" data-name="Group 57">
          <path id="Path_20" data-name="Path 20" d="M45.15,32.25A2.15,2.15,0,0,0,43,34.4V51.6a2.15,2.15,0,0,0,4.3,0V34.4A2.15,2.15,0,0,0,45.15,32.25Z" fill="#ff2d58"/>
        </g>
      </g>
      <g id="Group_60" data-name="Group 60">
        <g id="Group_59" data-name="Group 59">
          <path id="Path_21" data-name="Path 21" d="M51.6,32.25a2.15,2.15,0,0,0-2.15,2.15V51.6a2.15,2.15,0,0,0,4.3,0V34.4A2.15,2.15,0,0,0,51.6,32.25Z" fill="#ff2d58"/>
        </g>
      </g>
      <g id="Group_62" data-name="Group 62">
        <g id="Group_61" data-name="Group 61">
          <path id="Path_22" data-name="Path 22" d="M64.5,0A64.5,64.5,0,1,0,129,64.5,64.5,64.5,0,0,0,64.5,0Zm0,124.7a60.2,60.2,0,1,1,60.2-60.2A60.2,60.2,0,0,1,64.5,124.7Z" fill="#ff2d58"/>
        </g>
      </g>
      <g id="Group_64" data-name="Group 64">
        <g id="Group_63" data-name="Group 63">
          <path id="Path_23" data-name="Path 23" d="M71.479,104.859a2.15,2.15,0,0,0-2.349-1.931l-.083.01.009,0a39.494,39.494,0,0,1-9.112,0,2.151,2.151,0,1,0-.5,4.272,43.549,43.549,0,0,0,10.1,0A2.15,2.15,0,0,0,71.479,104.859Z" fill="#ff2d58"/>
        </g>
      </g>
      <g id="Group_66" data-name="Group 66">
        <g id="Group_65" data-name="Group 65">
          <path id="Path_24" data-name="Path 24" d="M97.4,36.8a2.15,2.15,0,0,0-3.029-.266l-.009.008a2.15,2.15,0,0,0-.258,3.029,38.7,38.7,0,0,1-2.281,52.346,2.15,2.15,0,0,0,3.036,3.047A43,43,0,0,0,97.4,36.8Z" fill="#ff2d58"/>
        </g>
      </g>
      <g id="Group_69" data-name="Group 69">
        <g id="Group_68" data-name="Group 68">
          <g id="Group_67" data-name="Group 67">
            <path id="Path_25" data-name="Path 25" d="M50.093,28.419h0Z" fill="#ff2d58"/>
            <path id="Path_26" data-name="Path 26" d="M74.642,22.7a43.381,43.381,0,0,0-25.308,1.554,2.148,2.148,0,1,0,1.507,4.023,39.058,39.058,0,0,1,22.79-1.4,2.15,2.15,0,1,0,1.01-4.18Z" fill="#ff2d58"/>
          </g>
        </g>
      </g>
      <g id="Group_71" data-name="Group 71">
        <g id="Group_70" data-name="Group 70">
          <path id="Path_27" data-name="Path 27" d="M37.085,91.805A38.7,38.7,0,0,1,33.2,41.736a2.15,2.15,0,1,0-3.437-2.584l-.037.051a43,43,0,0,0,4.315,55.646,2.153,2.153,0,0,0,3.047-3.044Z" fill="#ff2d58"/>
        </g>
      </g>
    </g>
  </g>
</svg>
