<svg xmlns="http://www.w3.org/2000/svg" xmlns:xlink="http://www.w3.org/1999/xlink" width="129" height="129" viewBox="0 0 129 129">
  <defs>
    <clipPath id="clip-path">
      <rect id="Rectangle_21" data-name="Rectangle 21" width="129" height="129" transform="translate(290 5667)" fill="#ff2d58"/>
    </clipPath>
  </defs>
  <g id="Mask_Group_1" data-name="Mask Group 1" transform="translate(-290 -5667)" clip-path="url(#clip-path)">
    <g id="place" transform="translate(290 5667)">
      <g id="Group_40" data-name="Group 40">
        <g id="Group_39" data-name="Group 39">
          <path id="Path_11" data-name="Path 11" d="M64.468,0A37.065,37.065,0,0,0,35.689,60.421q.06.093.128.18L62.482,94.763a2.519,2.519,0,0,0,3.972,0l26.792-34.34.027-.036A37.063,37.063,0,0,0,64.468,0ZM89.305,57.28c-.032.039-.062.079-.091.119L64.467,89.118l-24.5-31.383a2.53,2.53,0,0,0-.205-.287,32.026,32.026,0,1,1,49.539-.167Z" fill="#ff2d58"/>
        </g>
      </g>
      <g id="Group_42" data-name="Group 42">
        <g id="Group_41" data-name="Group 41">
          <path id="Path_12" data-name="Path 12" d="M86.213,31.181a2.519,2.519,0,0,0-4.833,1.426,17.634,17.634,0,1,1-11.889-11.9,2.519,2.519,0,0,0,1.43-4.831A22.674,22.674,0,1,0,86.213,31.181Z" fill="#ff2d58"/>
        </g>
      </g>
      <g id="Group_44" data-name="Group 44">
        <g id="Group_43" data-name="Group 43">
          <path id="Path_13" data-name="Path 13" d="M80.545,21.627l-.045-.045a2.519,2.519,0,0,0-3.563,3.563l.045.045a2.519,2.519,0,1,0,3.563-3.563Z" fill="#ff2d58"/>
        </g>
      </g>
      <g id="Group_46" data-name="Group 46">
        <g id="Group_45" data-name="Group 45">
          <path id="Path_14" data-name="Path 14" d="M103.2,76.923a2.519,2.519,0,0,0-1.575,4.786c13.981,4.6,22.327,11.494,22.327,18.439,0,5.873-6.057,11.815-16.618,16.3-11.4,4.844-26.614,7.512-42.837,7.512s-31.436-2.668-42.837-7.512C11.1,111.962,5.045,106.02,5.045,100.148c0-4.918,4.242-9.914,11.945-14.068,8.138-4.389,19.664-7.567,32.453-8.95a2.519,2.519,0,0,0-.542-5.009c-13.422,1.451-25.6,4.833-34.3,9.524C5.052,86.793.007,93.191.007,100.148c0,8.109,6.991,15.545,19.686,20.939C31.7,126.189,47.615,129,64.5,129s32.8-2.811,44.807-7.913c12.694-5.394,19.686-12.83,19.686-20.939C128.993,90.781,119.593,82.316,103.2,76.923Z" fill="#ff2d58"/>
        </g>
      </g>
      <g id="Group_48" data-name="Group 48">
        <g id="Group_47" data-name="Group 47">
          <path id="Path_15" data-name="Path 15" d="M91.675,73.9l-.088-.018a2.519,2.519,0,0,0-1,4.939l.088.018a2.519,2.519,0,1,0,1-4.939Z" fill="#ff2d58"/>
        </g>
      </g>
      <g id="Group_50" data-name="Group 50">
        <g id="Group_49" data-name="Group 49">
          <path id="Path_16" data-name="Path 16" d="M45.452,84.913a2.52,2.52,0,0,0-2.964-1.976c-.057.011-.117.025-.173.041a2.519,2.519,0,1,0,3.137,1.936Z" fill="#ff2d58"/>
        </g>
      </g>
      <g id="Group_52" data-name="Group 52">
        <g id="Group_51" data-name="Group 51">
          <path id="Path_17" data-name="Path 17" d="M72.906,80.813a2.519,2.519,0,0,0-.393,5.023c16.449,1.287,25.209,6.1,25.209,9.076,0,1.437-2.29,3.877-8.745,6.027C82.476,103.1,73.783,104.3,64.5,104.3s-17.976-1.192-24.477-3.358c-6.455-2.15-8.745-4.59-8.745-6.027,0-1.313,1.781-2.968,4.763-4.427a2.519,2.519,0,1,0-2.215-4.525c-6.271,3.068-7.587,6.562-7.587,8.953,0,9.469,19.247,14.423,38.261,14.423s38.261-4.954,38.261-14.423C102.761,86.23,86.678,81.891,72.906,80.813Z" fill="#ff2d58"/>
        </g>
      </g>
    </g>
  </g>
</svg>
