<svg xmlns="http://www.w3.org/2000/svg" width="39.911" height="39.912" viewBox="0 0 39.911 39.912">
  <g id="money" transform="translate(-0.007)">
    <g id="Group_246" data-name="Group 246" transform="translate(5.307 35.235)">
      <g id="Group_245" data-name="Group 245">
        <path id="Path_195" data-name="Path 195" d="M69.334,452.229a.779.779,0,1,0,.228.551A.785.785,0,0,0,69.334,452.229Z" transform="translate(-68.003 -452.001)" fill="#acacac"/>
      </g>
    </g>
    <g id="Group_248" data-name="Group 248" transform="translate(35.277 14.032)">
      <g id="Group_247" data-name="Group 247">
        <path id="Path_196" data-name="Path 196" d="M453.785,180.236a.777.777,0,1,0,.229.551A.784.784,0,0,0,453.785,180.236Z" transform="translate(-452.454 -180.008)" fill="#acacac"/>
      </g>
    </g>
    <g id="Group_250" data-name="Group 250" transform="translate(0.007)">
      <g id="Group_249" data-name="Group 249">
        <path id="Path_197" data-name="Path 197" d="M39.69.228A.78.78,0,0,0,39.138,0H19.962a.78.78,0,0,0-.779.78V3.01L11.794,4.99a.779.779,0,0,0-.551.955l3.83,14.292-3.313,3.313a2.338,2.338,0,0,0-1.93-1.021H2.346A2.341,2.341,0,0,0,.007,24.867V37.573a2.341,2.341,0,0,0,2.339,2.339H9.829a2.342,2.342,0,0,0,2.27-1.776l.927.808a3.927,3.927,0,0,0,2.582.968H39.138a.78.78,0,0,0,.78-.78V.78A.78.78,0,0,0,39.69.228ZM10.608,37.573a.78.78,0,0,1-.78.78H2.345a.78.78,0,0,1-.78-.78V24.867a.78.78,0,0,1,.78-.78H5.308v8.98a.78.78,0,0,0,1.559,0v-8.98H9.829a.78.78,0,0,1,.78.78V37.573ZM12.95,6.294l6.233-1.67V7.512l-.522.14a.779.779,0,0,0-.551.955,2.1,2.1,0,0,1-1.484,2.571.78.78,0,0,0-.551.956l3.039,11.252H17.548l-.806-3.154a.778.778,0,0,0-.131-.273Zm6.233,4.793v6.578L17.761,12.4A3.652,3.652,0,0,0,19.183,11.087Zm11.2,27.266H15.607a2.369,2.369,0,0,1-1.557-.583l-1.882-1.642V25.346l3.4-3.4.617,2.415a.779.779,0,0,0,.755.586H32.269a1.091,1.091,0,1,1,0,2.183H24.416a.78.78,0,1,0,0,1.559H34.709a1.091,1.091,0,0,1,0,2.183H24.416a.78.78,0,1,0,0,1.559h8.625a1.091,1.091,0,1,1,0,2.183H24.416a.78.78,0,1,0,0,1.559h5.966a1.091,1.091,0,1,1,0,2.182Zm7.977,0H32.8a2.641,2.641,0,0,0,0-2.183h.245a2.649,2.649,0,0,0,2.369-3.837A2.648,2.648,0,0,0,36.836,28.2V18.32a.78.78,0,1,0-1.559,0v8.87a2.651,2.651,0,0,0-.568-.062h-.026a2.649,2.649,0,0,0-2.414-3.742H31.016a3.731,3.731,0,1,0-2.931,0H23.824V8.564a3.67,3.67,0,0,0,2.795-2.795h5.864a3.67,3.67,0,0,0,2.795,2.795v2.424a.78.78,0,1,0,1.559,0V7.868a.78.78,0,0,0-.78-.78,2.1,2.1,0,0,1-2.1-2.1.78.78,0,0,0-.78-.78H25.922a.78.78,0,0,0-.78.78,2.1,2.1,0,0,1-2.1,2.1.78.78,0,0,0-.78.78V23.386H20.742V1.56H38.359ZM29.55,22.128a2.172,2.172,0,1,1,2.172-2.172A2.174,2.174,0,0,1,29.55,22.128Z" transform="translate(-0.007)" fill="#acacac"/>
      </g>
    </g>
  </g>
</svg>
