<svg xmlns="http://www.w3.org/2000/svg" width="130.101" height="123.865" viewBox="0 0 130.101 123.865">
  <g id="bill_1_" data-name="bill (1)" transform="translate(0 -0.39)">
    <path id="Path_240" data-name="Path 240" d="M354.434,47.664c.057,0,.113.008.171.008a2.107,2.107,0,0,0,.291-.022,4.711,4.711,0,0,1,4.615,4.7,2.108,2.108,0,1,0,4.216,0,8.938,8.938,0,0,0-7.014-8.716V41.612a2.108,2.108,0,1,0-4.216,0v2.121A8.924,8.924,0,0,0,354.8,61.278a4.709,4.709,0,1,1-4.709,4.71,2.108,2.108,0,0,0-4.216,0,8.939,8.939,0,0,0,6.619,8.621v2.31a2.108,2.108,0,1,0,4.216,0V74.705a8.924,8.924,0,0,0-1.91-17.641,4.707,4.707,0,0,1-.368-9.4Zm0,0" transform="translate(-254.746 -28.808)" fill="#2e266f"/>
    <path id="Path_241" data-name="Path 241" d="M100.176.39A30.243,30.243,0,0,0,72,20.181H19.681a2.2,2.2,0,0,0-2.108,2.2l-.5,73.943H2.163A2.073,2.073,0,0,0,0,98.335v9.383a16.557,16.557,0,0,0,15.809,16.49v.046H80.887v-.062c.527.02.744.062,1.078.062h.045A16.556,16.556,0,0,0,98.541,107.7V60.257c.527.029,1.085.044,1.63.044A29.955,29.955,0,0,0,100.176.39ZM16.61,120.039H16.6A12.4,12.4,0,0,1,4.215,107.7v-7.155H65.342v7.125a16.535,16.535,0,0,0,4.881,11.717c.221.221.5.392.728.656ZM94.325,107.7a12.341,12.341,0,0,1-12.317,12.342h-.04a12.432,12.432,0,0,1-12.41-12.37V98.335a1.945,1.945,0,0,0-2.012-2.009H21.291l.484-71.93H70.827a31.671,31.671,0,0,0-.577,5.854,29.723,29.723,0,0,0,2.544,12.062H52.885a2.108,2.108,0,0,0,0,4.216h22.2a29.746,29.746,0,0,0,19.244,13.2Zm5.851-51.611a25.711,25.711,0,1,1,25.711-25.711A25.709,25.709,0,0,1,100.176,56.086Zm0,0" fill="#2e266f"/>
    <path id="Path_242" data-name="Path 242" d="M130.508,212.746a6.536,6.536,0,1,0,6.747,6.532A6.649,6.649,0,0,0,130.508,212.746Zm0,8.849a2.326,2.326,0,1,1,2.532-2.317A2.433,2.433,0,0,1,130.508,221.6Zm0,0" transform="translate(-91.153 -156.405)" fill="#2e266f"/>
    <path id="Path_243" data-name="Path 243" d="M192.719,231.612a2.107,2.107,0,0,0,2.108,2.108h28.1a2.108,2.108,0,1,0,0-4.216h-28.1A2.107,2.107,0,0,0,192.719,231.612Zm0,0" transform="translate(-141.942 -168.747)" fill="#2e266f"/>
    <path id="Path_244" data-name="Path 244" d="M130.508,143.2a6.536,6.536,0,1,0,6.747,6.533A6.65,6.65,0,0,0,130.508,143.2Zm0,8.85a2.326,2.326,0,1,1,2.532-2.317,2.433,2.433,0,0,1-2.532,2.317Zm0,0" transform="translate(-91.153 -105.185)" fill="#2e266f"/>
    <path id="Path_245" data-name="Path 245" d="M130.508,282.281a6.536,6.536,0,1,0,6.747,6.532A6.649,6.649,0,0,0,130.508,282.281Zm0,8.849a2.326,2.326,0,1,1,2.532-2.317A2.432,2.432,0,0,1,130.508,291.13Zm0,0" transform="translate(-91.153 -207.619)" fill="#2e266f"/>
    <path id="Path_246" data-name="Path 246" d="M222.928,299.5h-28.1a2.108,2.108,0,0,0,0,4.216h28.1a2.108,2.108,0,1,0,0-4.216Zm0,0" transform="translate(-141.942 -220.304)" fill="#2e266f"/>
  </g>
</svg>
