<svg xmlns="http://www.w3.org/2000/svg" width="195.478" height="200.518" viewBox="0 0 195.478 200.518">
  <g id="Group_362" data-name="Group 362" transform="translate(-853 -403)">
    <g id="cook" transform="translate(853.002 403)">
      <path id="Path_328" data-name="Path 328" d="M940.825,594.74a3.619,3.619,0,0,1-3.215-2.859,75.138,75.138,0,0,1-1.836-8.109c-2.271-12.112,4.921-25.927,4.921-25.927s.378,15.33,3.785,20.061,7.57,12.3,7.57,12.3l-1.071,4.534Z" transform="translate(-853.002 -403)" fill="#ff2d58"/>
      <path id="Path_329" data-name="Path 329" d="M965.365,589.373c.464-1.126-2.149,5.187,3.528-7.682s-1.7-29.333-1.7-29.333,12.49,16.275,13.248,20.439,3.406,3.975,4.92,0,2.082-15.33,2.082-15.33,9.652,7.949,10.6,12.491,2.839,18.357.946,23.088c0,0-27.854-.625-31.5-.824S965.365,589.373,965.365,589.373Z" transform="translate(-853.002 -403)" fill="#ff2d58"/>
      <path id="Path_330" data-name="Path 330" d="M918.15,489.689s7.069,3.32,19.958,10.8,72.762,24.531,91.472,21.2c-.832-.416,5.4-18.294,5.4-18.294v-4.989S1003.8,480.536,995.9,480.536s-38.252-10.395-55.715-10.811-22.037,0-22.037,0l-42.41-10.8s-5.412,8.731,10.388,15.384a122.684,122.684,0,0,0,29.527,8.31l2.495-4.574Z" transform="translate(-853.002 -403)" fill="#ff2d58"/>
      <path id="Path_331" data-name="Path 331" d="M1018.658,456.035l12.869-10.409-9.084-11.355-12.68,8.9Z" transform="translate(-853.002 -403)" fill="#ff2d58"/>
      <path id="Path_332" data-name="Path 332" d="M983.079,425.188l2.271-3.785s-6.813-7-3.407-13.437,19.682,4.92,19.682,4.92l-1.325,5.488-6.624,5.867.757,11.923H983.079Z" transform="translate(-853.002 -403)" fill="#ff2d58"/>
      <path id="Path_333" data-name="Path 333" d="M957.919,440.768c-5.4-2-5.907-8.736-2.194-15.106s9.62,1.82,10.294,5.46S963.32,442.77,957.919,440.768Z" transform="translate(-851.451 -403)" fill="#ff2d58"/>
      <path id="Path_293" data-name="Path 293" d="M66.924,133.225,12.741,118.6a9.8,9.8,0,0,0-2.673-.359,10.027,10.027,0,0,0-2.611,19.719L60.479,152.27A36.8,36.8,0,0,0,87.6,187.318l51.637,13.936a36.724,36.724,0,0,0,45.073-25.9l1.3-4.847c1.353-5.013-3.92-10.236-16.6-16.455a237.67,237.67,0,0,0-40.771-14.631c-5.454-1.478-47.827-12.6-61.313-6.2ZM9.212,131.493a3.345,3.345,0,0,1,1.762-6.454L62.6,138.975l-.875,3.226c-.3,1.088-.516,2.182-.71,3.275Zm131.765,63.294L89.342,180.851a30,30,0,0,1-19.985-17.8A136.4,136.4,0,0,0,91.1,173.115a3.419,3.419,0,0,0,1.178.214,3.342,3.342,0,0,0,1.177-6.47c-12.725-4.8-22.26-9.719-26.15-13.511-.038-.038-.091-.047-.131-.083a30.006,30.006,0,0,1,.447-6.795,96.1,96.1,0,0,0,25.559,13.19l1.4.522q1.3.487,2.593.953c5.587,2.035,11.589,4.009,17.852,5.808,2.554.749,4.455,1.273,5.347,1.514q3.341.9,6.63,1.707c.509.127,1,.245,1.518.364q2.673.649,5.3,1.234l1.19.258q2.969.668,5.855,1.213c.137.024.271.054.4.08,6.544,1.265,12.7,2.19,18.244,2.735l.175.016c1.106.106,2.219.217,3.272.29.635.047,1.216.07,1.824.1h.176c1.671.093,3.3.157,4.776.157a43.833,43.833,0,0,0,7.293-.542,30.078,30.078,0,0,1-36.06,18.715Zm10.083-26.569c-1.7-.259-3.424-.54-5.2-.858l-.922-.16q-3.417-.627-6.986-1.38l-.591-.127c-2.123-.455-4.288-.95-6.467-1.47l-1.451-.335c-2.417-.587-4.856-1.206-7.312-1.872s-4.876-1.356-7.265-2.068c-.478-.142-.94-.286-1.41-.426-2.146-.648-4.262-1.309-6.323-2l-.6-.194q-3.449-1.136-6.707-2.319l-.919-.334q-2.506-.923-4.876-1.862c-.362-.14-.729-.284-1.084-.427a268.99,268.99,0,0,1,30.055,6.4A267.723,267.723,0,0,1,152.2,168.4Zm27.907.491a18.745,18.745,0,0,1-7.929,1.208,211.868,211.868,0,0,0-46.29-17.593A208.939,208.939,0,0,0,75.9,144.2a18.931,18.931,0,0,1-6.25-5.033c3.708-2.289,24.592-2.005,56.841,6.707s50.433,19,52.479,22.836Zm0,0" transform="translate(0 -68.844)" fill="#fff"/>
      <path id="Path_294" data-name="Path 294" d="M253.9,246.684q-3.229-.952-6.327-1.935a3.342,3.342,0,1,0-2.025,6.369q3.165,1,6.467,1.979a3.474,3.474,0,0,0,.942.137,3.342,3.342,0,0,0,.943-6.55Zm0,0" transform="translate(-141.619 -142.414)" fill="#fff"/>
      <path id="Path_295" data-name="Path 295" d="M300.08,259.258c-2.1-.472-4.254-.976-6.429-1.514a3.342,3.342,0,0,0-1.607,6.486q3.341.828,6.584,1.552a3.434,3.434,0,0,0,.731.08,3.342,3.342,0,0,0,.721-6.6Zm0,0" transform="translate(-168.599 -150.023)" fill="#fff"/>
      <path id="Path_296" data-name="Path 296" d="M283.727,11.7a11.7,11.7,0,0,0,6.684,10.52v11.2a3.342,3.342,0,0,0,3.342,3.342h13.368a3.342,3.342,0,0,0,3.342-3.342v-11.2A11.67,11.67,0,0,0,305.45,0H295.424a11.7,11.7,0,0,0-11.7,11.7Zm13.368,18.381V23.394h6.684v6.684ZM310.463,11.7a5.012,5.012,0,0,1-5.013,5.013H295.424a5.013,5.013,0,1,1,0-10.026H305.45A5.012,5.012,0,0,1,310.463,11.7Zm0,0" transform="translate(-165.203)" fill="#fff"/>
      <path id="Path_297" data-name="Path 297" d="M393.811,80.355a3.364,3.364,0,0,0-.734-2.453L382.519,64.949a3.341,3.341,0,0,0-2.252-1.209,3.241,3.241,0,0,0-2.449.731l-12.95,10.558a3.339,3.339,0,0,0-.481,4.7l10.556,12.953a3.347,3.347,0,0,0,2.25,1.214,2.844,2.844,0,0,0,.333,0,3.346,3.346,0,0,0,2.113-.752L392.592,82.59A3.336,3.336,0,0,0,393.811,80.355Zm-15.8,5.514L371.664,78.1l7.767-6.349,6.349,7.772Zm0,0" transform="translate(-211.729 -37.1)" fill="#fff"/>
      <path id="Path_298" data-name="Path 298" d="M246.463,53.368a13.368,13.368,0,1,0-13.368,13.368A13.367,13.367,0,0,0,246.463,53.368Zm-13.368,6.684a6.684,6.684,0,1,1,6.684-6.684A6.684,6.684,0,0,1,233.095,60.052Zm0,0" transform="translate(-127.938 -23.29)" fill="#fff"/>
      <path id="Path_299" data-name="Path 299" d="M243.727,120h6.684v6.684h-6.684Zm0,0" transform="translate(-141.912 -69.87)" fill="#fff"/>
      <path id="Path_300" data-name="Path 300" d="M315.727,104h6.684v6.684h-6.684Zm0,0" transform="translate(-183.834 -60.554)" fill="#fff"/>
      <path id="Path_301" data-name="Path 301" d="M315.727,136h6.684v10.026h-6.684Zm0,0" transform="translate(-183.834 -79.187)" fill="#fff"/>
      <path id="Path_302" data-name="Path 302" d="M403.727,144h6.684v6.684h-6.684Zm0,0" transform="translate(-235.073 -83.845)" fill="#fff"/>
      <path id="Path_303" data-name="Path 303" d="M403.727,176h6.684v6.684h-6.684Zm0,0" transform="translate(-235.073 -102.477)" fill="#fff"/>
      <path id="Path_304" data-name="Path 304" d="M155.094,361.479l7.43-13.366,5.842,3.247-7.43,13.366Zm0,0" transform="translate(-90.305 -202.69)" fill="#fff"/>
      <path id="Path_305" data-name="Path 305" d="M138.608,419.817l3.171-1.056-3.167,1.056,3.2,9.592,6.349-2.112-3.2-9.592a21.762,21.762,0,0,1,1.62-17.418l-5.842-3.249A28.466,28.466,0,0,0,138.608,419.817Zm0,0" transform="translate(-79.864 -231.177)" fill="#fff"/>
      <path id="Path_306" data-name="Path 306" d="M246.786,384.551l3.192-9.592a28.452,28.452,0,0,0-2.115-22.779L236.5,331.742a3.342,3.342,0,0,0-6.253,1.624v18.381c0,.6-.028,1.2-.077,1.8a33.406,33.406,0,0,0-2.988-7.309l-13.629-24.526a3.342,3.342,0,0,0-6.263,1.624V345.4a26.889,26.889,0,0,1-5.347,16.041,33.233,33.233,0,0,0-3.221,5.307c-.418-.667-.842-1.336-1.317-1.958a21.941,21.941,0,0,1-4.344-13.033V333.366a3.342,3.342,0,0,0-6.263-1.62l-11.364,20.445a28.45,28.45,0,0,0-2.121,22.772l3.208,9.592a3.341,3.341,0,0,0,3.166,2.283h63.928a3.34,3.34,0,0,0,3.171-2.286Zm-67.136-11.7a21.793,21.793,0,0,1,1.62-17.411l5.1-9.177v5.481a28.71,28.71,0,0,0,5.68,17.044,20.666,20.666,0,0,1,3.606,7.637,33.76,33.76,0,0,0-.335,3.719H182.093Zm22.328,7.3a26.915,26.915,0,0,1,5.313-14.7,33.6,33.6,0,0,0,6.684-20.052v-9.164l7.353,13.255a26.8,26.8,0,0,1,2.777,18.493,3.341,3.341,0,0,0,6.114,2.436l.335-.581a9.882,9.882,0,0,1,.669-1.046,28.6,28.6,0,0,0,5.68-17.044v-5.484l5.117,9.161a21.783,21.783,0,0,1,1.617,17.421l-2.433,7.309Zm0,0" transform="translate(-100.069 -186.319)" fill="#fff"/>
      <path id="Path_307" data-name="Path 307" d="M346.141,351.359l5.844-3.246,4.484,8.071-5.842,3.247Zm0,0" transform="translate(-201.543 -202.69)" fill="#fff"/>
      <path id="Path_308" data-name="Path 308" d="M374.251,388.189l-3.53-6.349-5.842,3.246,3.53,6.349a21.752,21.752,0,0,1,2.733,11.251l6.684.216a28.415,28.415,0,0,0-3.575-14.713Zm0,0" transform="translate(-212.454 -222.328)" fill="#fff"/>
      <path id="Path_309" data-name="Path 309" d="M369.555,460.155l2.229-6.682,6.338,2.115-2.231,6.682Zm0,0" transform="translate(-215.176 -264.036)" fill="#fff"/>
      <path id="Path_310" data-name="Path 310" d="M180.715,323.11l3.342-6.684,5.977,2.99-3.34,6.684Zm0,0" transform="translate(-105.223 -184.24)" fill="#fff"/>
      <path id="Path_311" data-name="Path 311" d="M450.358,96.491a14.908,14.908,0,0,0,1.859-18.766l-1.441-2.159-5.561,3.7,1.441,2.165a8.208,8.208,0,0,1-1.023,10.329Zm0,0" transform="translate(-259.229 -43.999)" fill="#fff"/>
    </g>
  </g>
</svg>
