<svg xmlns="http://www.w3.org/2000/svg" xmlns:xlink="http://www.w3.org/1999/xlink" width="129" height="129" viewBox="0 0 129 129">
  <defs>
    <clipPath id="clip-path">
      <rect id="Rectangle_23" data-name="Rectangle 23" width="129" height="129" transform="translate(290 5667)" fill="#ff2d58"/>
    </clipPath>
  </defs>
  <g id="Mask_Group_3" data-name="Mask Group 3" transform="translate(-290 -5667)" clip-path="url(#clip-path)">
    <g id="surface1" transform="translate(290 5667)">
      <path id="Path_28" data-name="Path 28" d="M107.5,22.777V10.75A10.764,10.764,0,0,0,96.75,0h-86A10.764,10.764,0,0,0,0,10.75v47.3A10.729,10.729,0,0,0,9.641,68.689l8.082,20.979a10.753,10.753,0,0,0,13.9,6.167L82.087,76.394a31.08,31.08,0,0,0,2.678,27.6L86,105.965V126.85A2.149,2.149,0,0,0,88.15,129h38.7a2.149,2.149,0,0,0,2.15-2.15V55.881a28.137,28.137,0,0,0-8.237-19.818Zm0,12.858,6.525,16.939a6.45,6.45,0,0,1-3.7,8.336l-3.73,1.441a10.752,10.752,0,0,0,.907-4.3ZM4.3,58.05V10.75A6.451,6.451,0,0,1,10.75,4.3h86a6.451,6.451,0,0,1,6.45,6.45V24.415h-.019l.019.049V58.05a6.539,6.539,0,0,1-.146,1.114L83.36,39.468A11.47,11.47,0,0,0,66.8,55.33l8.4,9.17H10.75A6.451,6.451,0,0,1,4.3,58.05ZM31.844,68.8,16.555,74.686,14.293,68.8ZM30.072,91.822a6.45,6.45,0,0,1-8.338-3.7L18.107,78.69,43.772,68.8v-.013h35.37l2.795,3.047ZM124.7,124.7H90.3V107.5h34.4Zm0-21.5H89.343l-.933-1.49a26.81,26.81,0,0,1-.544-27.535,2.149,2.149,0,0,0-.282-2.52L69.966,52.434a7.17,7.17,0,0,1,10.353-9.917L114.58,76.77l3.04-3.04-7.955-7.955,2.206-.86a10.751,10.751,0,0,0,6.164-13.89l-7.277-18.9,6.965,6.979A23.81,23.81,0,0,1,124.7,55.881Zm0,0" fill="#ff2d58"/>
      <path id="Path_29" data-name="Path 29" d="M24.51,30.1a5.59,5.59,0,0,0,5.59-5.59V14.19A5.59,5.59,0,0,0,24.51,8.6H14.19A5.59,5.59,0,0,0,8.6,14.19V24.51a5.59,5.59,0,0,0,5.59,5.59ZM12.9,24.51V21.5h4.3V17.2H12.9V14.19a1.29,1.29,0,0,1,1.29-1.29H24.51a1.29,1.29,0,0,1,1.29,1.29V17.2H21.5v4.3h4.3v3.01a1.29,1.29,0,0,1-1.29,1.29H14.19A1.29,1.29,0,0,1,12.9,24.51Zm0,0" fill="#ff2d58"/>
      <path id="Path_30" data-name="Path 30" d="M10.75,36.55h8.6v4.3h-8.6Zm0,0" fill="#ff2d58"/>
      <path id="Path_31" data-name="Path 31" d="M10.75,49.45h8.6v4.3h-8.6Zm0,0" fill="#ff2d58"/>
      <path id="Path_32" data-name="Path 32" d="M49.45,49.45h8.6v4.3h-8.6Zm0,0" fill="#ff2d58"/>
      <path id="Path_33" data-name="Path 33" d="M23.65,36.55h8.6v4.3h-8.6Zm0,0" fill="#ff2d58"/>
      <path id="Path_34" data-name="Path 34" d="M36.55,36.55h8.6v4.3h-8.6Zm0,0" fill="#ff2d58"/>
      <path id="Path_35" data-name="Path 35" d="M49.45,36.55h8.6v4.3h-8.6Zm0,0" fill="#ff2d58"/>
      <path id="Path_36" data-name="Path 36" d="M90.3,10.75h4.3V17.2H90.3Zm0,0" fill="#ff2d58"/>
      <path id="Path_37" data-name="Path 37" d="M81.7,10.75H86V17.2H81.7Zm0,0" fill="#ff2d58"/>
      <path id="Path_38" data-name="Path 38" d="M73.1,10.75h4.3V17.2H73.1Zm0,0" fill="#ff2d58"/>
      <path id="Path_39" data-name="Path 39" d="M64.5,10.75h4.3V17.2H64.5Zm0,0" fill="#ff2d58"/>
      <path id="Path_40" data-name="Path 40" d="M94.6,111.8h4.3v4.3H94.6Zm0,0" fill="#ff2d58"/>
    </g>
  </g>
</svg>
