<svg xmlns="http://www.w3.org/2000/svg" width="24.822" height="24.824" viewBox="0 0 24.822 24.824">
  <g id="edit" transform="translate(-5 -5.261)">
    <path id="Path_220" data-name="Path 220" d="M130.905,1.376a3.808,3.808,0,0,0-5.385,0l-15.1,15.1a.846.846,0,0,0-.217.373l-1.985,7.167a.846.846,0,0,0,1.041,1.042l7.167-1.986a.846.846,0,0,0,.373-.217l15.1-15.1a3.812,3.812,0,0,0,0-5.385ZM112.267,17.023,124.623,4.667l3.985,3.985L116.252,21.008Zm-.8,1.6,3.183,3.184-4.4,1.22ZM130.7,6.558l-.9.9L125.819,3.47l.9-.9a2.115,2.115,0,0,1,2.991,0l.993.993A2.119,2.119,0,0,1,130.7,6.558Zm0,0" transform="translate(-103.19 5)" fill="#ff2d58"/>
  </g>
</svg>
