<svg xmlns="http://www.w3.org/2000/svg" xmlns:xlink="http://www.w3.org/1999/xlink" width="40" height="40" viewBox="0 0 40 40">
  <defs>
    <clipPath id="clip-path">
      <rect id="Rectangle_39" data-name="Rectangle 39" width="40" height="40" fill="#707070"/>
    </clipPath>
  </defs>
  <g id="Mask_Group_15" data-name="Mask Group 15" clip-path="url(#clip-path)">
    <g id="pizza_1_" data-name="pizza (1)" transform="translate(3.627 0)">
      <path id="Path_99" data-name="Path 99" d="M32.06.653A2.329,2.329,0,0,0,30.336,0,39.32,39.32,0,0,0,.507,15.739a2.349,2.349,0,0,0,.559,3.348L4.212,21.23h0L6.08,22.5v1.63a.781.781,0,0,0,1.563,0V22.09a.782.782,0,0,0-.341-.646L5.747,20.385a32.858,32.858,0,0,1,2.219-2.758,31.1,31.1,0,0,1,2.584-2.569,32.358,32.358,0,0,1,5.826-4.119,31.118,31.118,0,0,1,3.292-1.583l.425-.172a4.249,4.249,0,1,0,7.947-2.031q1.584-.2,3.183-.234V26.56a4.243,4.243,0,0,0,0,8.03v3.154l-3.672-2.5a.781.781,0,0,0-1.221.646V37.7a.717.717,0,1,1-1.435,0V33.845a.786.786,0,0,0-.05-.276,4.246,4.246,0,1,0-6.882-4.861L16.9,27.988a.781.781,0,0,0-1.221.645v3a.717.717,0,0,1-1.435,0V26.591a.782.782,0,0,0-.341-.646L10.3,23.487a.781.781,0,0,0-1.221.645V34.575a.717.717,0,1,1-1.435,0V30.383a.781.781,0,0,0-1.563,0v4.191a2.28,2.28,0,0,0,4.56,0V25.61L12.685,27v4.634a2.28,2.28,0,0,0,4.56,0V30.111l.647.441h0L23.244,34.2l.087.06V37.7a2.28,2.28,0,1,0,4.56,0v-.334l3.672,2.5a.789.789,0,0,0,1.221-.646V2.35a2.33,2.33,0,0,0-.724-1.7Zm-12.8,28.941a2.658,2.658,0,0,1,1.383-1.353,2.685,2.685,0,0,1,2.991,4.334L20.744,30.6ZM1.613,17.275a.781.781,0,0,1,.146-.6A37.755,37.755,0,0,1,30.4,1.563h.034a.787.787,0,0,1,.786.787V5.355a33.913,33.913,0,0,0-3.735.293c-.353.048-.707.1-1.058.155a33.729,33.729,0,0,0-5.567,1.419,35.059,35.059,0,0,0-3.743,1.569,32.262,32.262,0,0,0-3.582,2.031,35.1,35.1,0,0,0-3.251,2.4,34.3,34.3,0,0,0-2.968,2.8A33.4,33.4,0,0,0,4.749,19.1q-.149.2-.3.4L1.946,17.8a.78.78,0,0,1-.333-.521Zm25.22-7.043a2.685,2.685,0,0,1-5.1-1.649,31.289,31.289,0,0,1,3.579-.975c.331-.069.662-.134.994-.194a2.686,2.686,0,0,1,.524,2.818Zm3.3,21.4a2.685,2.685,0,0,1,1.087-3.365v4.607a2.678,2.678,0,0,1-1.087-1.243Zm0,0" transform="translate(-0.039 0)" fill="#707070"/>
      <path id="Path_100" data-name="Path 100" d="M12.943,23.1a4.247,4.247,0,1,0-2.33-2.267A4.244,4.244,0,0,0,12.943,23.1Zm-.922-4.939a2.685,2.685,0,1,1,.028,2.054,2.667,2.667,0,0,1-.028-2.054Zm0,0" transform="translate(-0.039 0)" fill="#707070"/>
      <path id="Path_101" data-name="Path 101" d="M24.516,24.7a4.247,4.247,0,1,0-2.33-2.267,4.238,4.238,0,0,0,2.33,2.267Zm-.922-4.939a2.684,2.684,0,1,1,.028,2.055,2.666,2.666,0,0,1-.028-2.055Zm0,0" transform="translate(-0.039 0)" fill="#707070"/>
      <path id="Path_102" data-name="Path 102" d="M6.862,28.04a.781.781,0,1,0-.765-.623.789.789,0,0,0,.765.623Zm0,0" transform="translate(-0.039 0)" fill="#707070"/>
    </g>
  </g>
</svg>
