<svg xmlns="http://www.w3.org/2000/svg" width="38.365" height="39.983" viewBox="0 0 38.365 39.983">
  <g id="sale" transform="translate(0 0)">
    <g id="Group_270" data-name="Group 270" transform="translate(0 0)">
      <g id="Group_269" data-name="Group 269">
        <path id="Path_227" data-name="Path 227" d="M46.875,20.508a1.172,1.172,0,0,1,0-1.036l1.491-3.051a3.471,3.471,0,0,0-1.5-4.609l-3-1.592a1.172,1.172,0,0,1-.609-.838l-.587-3.345a3.471,3.471,0,0,0-3.921-2.849l-3.362.476a1.172,1.172,0,0,1-.985-.32L31.965.984a3.471,3.471,0,0,0-4.846,0L24.678,3.345a1.172,1.172,0,0,1-.985.32L20.331,3.19A3.471,3.471,0,0,0,16.41,6.038l-.587,3.344a1.172,1.172,0,0,1-.609.838l-3,1.592a3.471,3.471,0,0,0-1.5,4.609l1.491,3.051a1.172,1.172,0,0,1,0,1.036l-1.491,3.051a3.471,3.471,0,0,0,1.5,4.609l3,1.592a1.172,1.172,0,0,1,.609.838l.587,3.345a3.469,3.469,0,0,0,3.422,2.884,3.566,3.566,0,0,0,.5-.035l3.362-.476a1.171,1.171,0,0,1,.985.32L27.118,39a3.471,3.471,0,0,0,4.846,0l2.441-2.361a1.173,1.173,0,0,1,.985-.32l3.362.476a3.471,3.471,0,0,0,3.921-2.849L43.26,30.6a1.172,1.172,0,0,1,.609-.838l3-1.592a3.471,3.471,0,0,0,1.5-4.609Zm-1.087,5.623-3,1.592a3.463,3.463,0,0,0-1.8,2.477L40.4,33.543a1.174,1.174,0,0,1-1.327.964l-3.362-.476a3.462,3.462,0,0,0-2.911.946l-2.441,2.361a1.174,1.174,0,0,1-1.64,0l-2.44-2.361A3.46,3.46,0,0,0,23.866,34a3.54,3.54,0,0,0-.5.035l-3.362.476a1.175,1.175,0,0,1-1.327-.964L18.095,30.2a3.463,3.463,0,0,0-1.8-2.476l-3-1.592a1.174,1.174,0,0,1-.507-1.559L14.28,21.52a3.463,3.463,0,0,0,0-3.061l-1.491-3.051a1.174,1.174,0,0,1,.507-1.559l3-1.592a3.463,3.463,0,0,0,1.8-2.477l.587-3.345a1.174,1.174,0,0,1,1.327-.964l3.362.476A3.463,3.463,0,0,0,26.281,5l2.441-2.361a1.174,1.174,0,0,1,1.64,0L32.8,5a3.463,3.463,0,0,0,2.911.946l3.362-.476a1.174,1.174,0,0,1,1.327.964l.587,3.345a3.463,3.463,0,0,0,1.8,2.476l3,1.592a1.174,1.174,0,0,1,.507,1.559L44.8,18.459a3.463,3.463,0,0,0,0,3.061l1.491,3.051A1.174,1.174,0,0,1,45.787,26.131Z" transform="translate(-10.359 0.002)" fill="#2e266f"/>
      </g>
    </g>
    <g id="Group_272" data-name="Group 272" transform="translate(10.42 11.229)">
      <g id="Group_271" data-name="Group 271">
        <path id="Path_228" data-name="Path 228" d="M160.979,144.129a1.153,1.153,0,0,0-1.631,0l-15.219,15.219a1.153,1.153,0,1,0,1.631,1.631l15.219-15.219A1.153,1.153,0,0,0,160.979,144.129Z" transform="translate(-143.792 -143.792)" fill="#2e266f"/>
      </g>
    </g>
    <g id="Group_274" data-name="Group 274" transform="translate(10.343 9.614)">
      <g id="Group_273" data-name="Group 273">
        <path id="Path_229" data-name="Path 229" d="M147.03,123.116a4.228,4.228,0,1,0,4.228,4.228A4.233,4.233,0,0,0,147.03,123.116Zm0,6.15a1.922,1.922,0,1,1,1.922-1.922A1.924,1.924,0,0,1,147.03,129.266Z" transform="translate(-142.802 -123.116)" fill="#2e266f"/>
      </g>
    </g>
    <g id="Group_276" data-name="Group 276" transform="translate(19.567 21.913)">
      <g id="Group_275" data-name="Group 275">
        <path id="Path_230" data-name="Path 230" d="M265.15,280.61a4.228,4.228,0,1,0,4.228,4.228A4.233,4.233,0,0,0,265.15,280.61Zm0,6.15a1.922,1.922,0,1,1,1.922-1.922A1.924,1.924,0,0,1,265.15,286.759Z" transform="translate(-260.922 -280.61)" fill="#2e266f"/>
      </g>
    </g>
  </g>
</svg>
