<svg xmlns="http://www.w3.org/2000/svg" width="39.956" height="23.208" viewBox="0 0 39.956 23.208">
  <path id="Path_117" data-name="Path 117" d="M39.866,119.153a5.656,5.656,0,0,0-1.043-2.392,5.657,5.657,0,0,0,1.133-3.4,5.7,5.7,0,0,0-6.667-5.614l-.011,0-1.653.291H31.6l-2.2.389-6.524,1.149-1.1.194-.006,0L10.71,111.726a.624.624,0,0,0-.089.022L4.7,112.788a5.684,5.684,0,0,0-3.571,9,5.312,5.312,0,0,0-.432.666c-.01.018-.017.038-.027.057l0,.009a5.59,5.59,0,0,0-.579,3.649,5.682,5.682,0,0,0,6.578,4.615l.012,0,28.572-5.038a5.668,5.668,0,0,0,4.7-5.592,5.145,5.145,0,0,0-.069-.859A1.275,1.275,0,0,0,39.866,119.153Zm-10.446-9.2q.023-.089.049-.179l.259-.046,1.159-.2c-.056.253-.119.511-.189.771a10.048,10.048,0,0,1-1.718,3.858A10.111,10.111,0,0,1,29.421,109.948Zm-6.995,1.062.767-.135.661-.116c-.04.171-.086.353-.136.547A10.07,10.07,0,0,1,22,115.159,9.935,9.935,0,0,1,22.426,111.01Zm-7.024,1.24L16.836,112q-.035.14-.075.285a10.048,10.048,0,0,1-1.718,3.858A9.669,9.669,0,0,1,15.4,112.249Zm-6.9,1.52c.028-.107.057-.211.088-.315L10,113.205c-.065.309-.139.614-.22.914a10.038,10.038,0,0,1-1.72,3.851A10,10,0,0,1,8.5,113.769Zm26.521,10.667L6.448,129.474a4.378,4.378,0,0,1-5.121-4.3c0-.1.012-.192.018-.288a5.672,5.672,0,0,0,4.881,2.8,5.735,5.735,0,0,0,1-.089l1.7-.3a8.243,8.243,0,0,0,2.038.255,7.066,7.066,0,0,0,4.408-1.393l3.7-.654a8.475,8.475,0,0,0,1.843.209,7.113,7.113,0,0,0,4.27-1.285l4.218-.748a8.029,8.029,0,0,0,4.291-.75l2.1-.373a5.65,5.65,0,0,0,2.648-1.231A4.331,4.331,0,0,1,35.022,124.436ZM6.756,126.319A4.366,4.366,0,0,1,1.983,122.9c.027-.044.053-.088.082-.131.118.1.237.194.364.283a5.629,5.629,0,0,0,2.926,1A3.229,3.229,0,0,0,6.756,126.319Zm-.076-2.328,7.939-1.4a1.706,1.706,0,0,1,.667,1.231,1.67,1.67,0,0,1-.633,1.221,5.6,5.6,0,0,1-3.681,1.181,6.882,6.882,0,0,1-1.855-.242h0C7.739,125.6,6.8,124.819,6.68,123.991Zm10.134.567-.342.06a2.678,2.678,0,0,0,.08-.272C16.64,124.417,16.719,124.491,16.814,124.558Zm-.167-2.324,8.016-1.413c.037.036.072.077.107.116a2.923,2.923,0,0,0,.425.748,1.435,1.435,0,0,1,.047.305,1.78,1.78,0,0,1-.737,1.3,6.506,6.506,0,0,1-5.265.894h0C17.807,123.835,16.813,123.069,16.647,122.234Zm9.735-1.181a2.812,2.812,0,0,0-.239-.493l8.075-1.424a1.427,1.427,0,0,1,.315.863,2.158,2.158,0,0,1-1.333,1.707,6.823,6.823,0,0,1-3.75.646h0A4.9,4.9,0,0,1,26.382,121.053Zm.168,1.787-.139.025c.011-.029.019-.059.028-.089Zm9.022-1.59-.039.007A2.659,2.659,0,0,0,35.861,120a2.626,2.626,0,0,0-.26-1.122,5.667,5.667,0,0,0,2.295-1.14,4.371,4.371,0,0,1,.632,1.5A4.332,4.332,0,0,1,35.572,121.251Zm-.513-3.611-.037.007L6.448,122.684A4.361,4.361,0,0,1,4.912,114.1l.022,0,2.215-.389c-.455,1.8-.75,4.112-.16,5.128a1.127,1.127,0,0,0,.688.557,1.025,1.025,0,0,0,.272.036,1.2,1.2,0,0,0,.605-.172c1.068-.613,2.018-2.965,2.507-4.792.133-.492.24-1,.334-1.511l2.59-.456c-.374,1.724-.535,3.609-.012,4.508a1.127,1.127,0,0,0,.688.555,1.037,1.037,0,0,0,.272.036,1.214,1.214,0,0,0,.61-.174c1.065-.614,1.991-2.881,2.5-4.8.083-.306.151-.6.212-.882L21,111.261c-.338,1.488-.932,4.9.622,5.324a1.039,1.039,0,0,0,.266.035c1.731,0,2.972-4.442,3.114-4.975.112-.426.2-.8.266-1.136l2.769-.488c-.45,1.843-.7,4.007-.125,4.993a1.127,1.127,0,0,0,.688.555,1.036,1.036,0,0,0,.272.036,1.214,1.214,0,0,0,.61-.174c1.065-.613,1.991-2.881,2.5-4.8.125-.464.222-.917.305-1.361l1.221-.215a4.355,4.355,0,0,1,5.049,3.525l0,.011A4.342,4.342,0,0,1,35.059,117.64Z" transform="translate(0 -107.662)" fill="#707070"/>
</svg>
