<svg xmlns="http://www.w3.org/2000/svg" xmlns:xlink="http://www.w3.org/1999/xlink" width="40" height="40" viewBox="0 0 40 40">
  <defs>
    <clipPath id="clip-path">
      <rect id="Rectangle_40" data-name="Rectangle 40" width="40" height="40" fill="#707070"/>
    </clipPath>
  </defs>
  <g id="Mask_Group_16" data-name="Mask Group 16" clip-path="url(#clip-path)">
    <g id="fork" transform="translate(0 0.112)">
      <path id="Path_103" data-name="Path 103" d="M29.734,15.941l2.35-.149H32.1a5.534,5.534,0,0,0,4.125-2.408l1.858-2.726a11,11,0,0,0,1.764-8.07A2.482,2.482,0,0,0,37.514.522a11,11,0,0,0-7.8,2.719L27.23,5.412a5.534,5.534,0,0,0-1.9,4.384s0,.008,0,.013l.134,2.351a3.309,3.309,0,0,1-.92,2.479L5.146,34.571a2.819,2.819,0,0,0-.755,2.093,3.241,3.241,0,0,0,3.285,3.151q.129,0,.258-.01a2.82,2.82,0,0,0,1.99-1L27.381,17.153a3.31,3.31,0,0,1,2.352-1.212Zm-3.284.458L8.993,38.044a1.632,1.632,0,0,1-1.155.565,2.048,2.048,0,0,1-2.249-1.994A1.629,1.629,0,0,1,6.008,35.4l19.4-19.931a4.513,4.513,0,0,0,1.257-3.382l-.134-2.345a4.341,4.341,0,0,1,1.487-3.432L30.5,4.144A9.81,9.81,0,0,1,37.457,1.72a1.284,1.284,0,0,1,1.2,1.067,9.806,9.806,0,0,1-1.572,7.195L35.23,12.708A4.341,4.341,0,0,1,32,14.6l-2.344.148A4.514,4.514,0,0,0,26.449,16.4Zm0,0" transform="translate(0 -0.039)" fill="#707070"/>
      <path id="Path_104" data-name="Path 104" d="M38.892,34.42,25.883,22.571a.6.6,0,1,0-.808.887L38.081,35.3a1.632,1.632,0,0,1,.494,1.187,2.048,2.048,0,0,1-2.125,2.125,1.63,1.63,0,0,1-1.183-.491L23.675,25.4a.6.6,0,1,0-.887.808l11.6,12.73a2.819,2.819,0,0,0,2.044.88h.063a3.246,3.246,0,0,0,3.284-3.348,2.822,2.822,0,0,0-.882-2.047Zm0,0" transform="translate(0 -0.039)" fill="#707070"/>
      <path id="Path_105" data-name="Path 105" d="M7.235,15.827a5.552,5.552,0,0,0,3.631,1.468h.013l2.355.007a3.307,3.307,0,0,1,2.419,1.067l1.037,1.139a.6.6,0,1,0,.887-.807l-1.039-1.14a4.512,4.512,0,0,0-3.3-1.458L10.889,16.1A4.357,4.357,0,0,1,8.075,14.97L1.251,6.858a.207.207,0,0,1,.3-.28L7.767,12.79a1.576,1.576,0,0,0,2.227,0l.73-.73h0l1.3-1.3h0l.73-.73a1.577,1.577,0,0,0,0-2.227L6.539,1.595a.207.207,0,0,1,.28-.3l8.112,6.824a4.355,4.355,0,0,1,1.126,2.814l.007,2.349a4.516,4.516,0,0,0,1.459,3.3l1.111,1.012a.6.6,0,1,0,.808-.887l-1.11-1.011a3.31,3.31,0,0,1-1.069-2.421l-.007-2.355s0-.009,0-.013a5.552,5.552,0,0,0-1.468-3.631.6.6,0,0,0-.055-.053L7.591.372a1.406,1.406,0,0,0-1.9,2.07L11.9,8.654a.376.376,0,0,1,0,.531l-.306.306L4.674,2.569a.6.6,0,0,0-.848.848l6.923,6.923-.449.448L3.377,3.865a.6.6,0,0,0-.848.848l6.923,6.923-.306.306a.376.376,0,0,1-.531,0L2.4,5.73a1.406,1.406,0,0,0-2.07,1.9l6.85,8.142a.558.558,0,0,0,.052.055Zm0,0" transform="translate(0 -0.039)" fill="#707070"/>
    </g>
  </g>
</svg>
