<svg xmlns="http://www.w3.org/2000/svg" xmlns:xlink="http://www.w3.org/1999/xlink" width="50" height="50" viewBox="0 0 50 50">
  <defs>
    <clipPath id="clip-path">
      <rect id="Rectangle_27" data-name="Rectangle 27" width="50" height="50" fill="#acacac"/>
    </clipPath>
  </defs>
  <g id="Mask_Group_6" data-name="Mask Group 6" clip-path="url(#clip-path)">
    <path id="telegram" d="M49.228,1.158A3.246,3.246,0,0,0,46.652,0a5.053,5.053,0,0,0-1.8.358L2.53,16.514C.284,17.371-.019,18.658,0,19.348S.4,21.306,2.686,22.035l.041.012,8.779,2.512,4.748,13.576a4.1,4.1,0,0,0,3.793,3,4.488,4.488,0,0,0,3.035-1.292l5.43-5,7.876,6.342,0,0,.075.06.021.016A4.547,4.547,0,0,0,39.251,42.3h0a3.88,3.88,0,0,0,3.7-3.439L49.886,4.621a4.09,4.09,0,0,0-.658-3.463ZM14.444,24.082l16.938-8.653L20.835,26.636a1.462,1.462,0,0,0-.356.653l-2.034,8.237ZM21.1,37.689c-.07.064-.141.122-.211.175l1.887-7.642L26.2,32.986ZM47.014,4.04,40.08,38.282c-.067.328-.28,1.09-.828,1.09a1.707,1.707,0,0,1-.959-.416l-8.925-7.186,0,0-5.31-4.276L39.3,11.285a1.465,1.465,0,0,0-1.733-2.308L12.486,21.792l-8.9-2.546L45.9,3.095a2.148,2.148,0,0,1,.753-.165c.09,0,.249.011.308.084a1.4,1.4,0,0,1,.054,1.027Zm0,0" transform="translate(-0.078 3.849)" fill="#acacac"/>
  </g>
</svg>
