<svg id="transfer" xmlns="http://www.w3.org/2000/svg" width="108.66" height="130.376" viewBox="0 0 108.66 130.376">
  <path id="Path_267" data-name="Path 267" d="M80.4,91.263a2.173,2.173,0,0,0-2.173,2.173v6.519H10.865a2.173,2.173,0,1,0,0,4.346H78.226v15.211a6.519,6.519,0,0,1-6.519,6.519H10.865a6.519,6.519,0,0,1-6.519-6.519V10.865a6.519,6.519,0,0,1,6.519-6.519H71.707a6.519,6.519,0,0,1,6.519,6.519V23.9a2.173,2.173,0,1,0,4.346,0V10.865A10.865,10.865,0,0,0,71.707,0H10.865A10.865,10.865,0,0,0,0,10.865V119.511a10.865,10.865,0,0,0,10.865,10.865H71.707a10.865,10.865,0,0,0,10.865-10.865V93.436A2.173,2.173,0,0,0,80.4,91.263Zm0,0" fill="#2e266f"/>
  <path id="Path_268" data-name="Path 268" d="M125.729,404.346a2.173,2.173,0,1,0,0-4.346H108.346A4.346,4.346,0,0,0,104,404.346v4.346a4.346,4.346,0,0,0,4.346,4.346h17.383a2.173,2.173,0,1,0,0-4.346H108.346v-4.346Zm0,0" transform="translate(-75.752 -291.353)" fill="#2e266f"/>
  <path id="Path_269" data-name="Path 269" d="M272.692,174.421a4.346,4.346,0,0,1-4.346-4.346,2.173,2.173,0,1,0-4.346,0,8.691,8.691,0,0,0,6.519,8.387v2.477a2.173,2.173,0,0,0,4.346,0v-2.477a8.692,8.692,0,0,0-2.173-17.079,4.346,4.346,0,1,1,4.346-4.346,2.173,2.173,0,1,0,4.346,0,8.691,8.691,0,0,0-6.519-8.387v-2.477a2.173,2.173,0,0,0-4.346,0v2.477a8.692,8.692,0,0,0,2.173,17.079,4.346,4.346,0,0,1,0,8.692Zm0,0" transform="translate(-192.293 -104.887)" fill="#2e266f"/>
  <path id="Path_270" data-name="Path 270" d="M220.214,112a28.248,28.248,0,0,0-26.64,37.678,2.178,2.178,0,1,0,4.106-1.456,23.663,23.663,0,0,1-1.369-7.974,23.9,23.9,0,1,1,7,16.9,2.173,2.173,0,0,0-3.064,3.064A28.248,28.248,0,1,0,220.215,112Zm0,0" transform="translate(-139.816 -81.579)" fill="#2e266f"/>
  <path id="Path_271" data-name="Path 271" d="M77.072,128.712H92.282a2.173,2.173,0,0,0,0-4.346H79.245v-2.173a2.17,2.17,0,0,0-3.52-1.694L64.86,129.191a2.173,2.173,0,0,0,0,3.389l10.865,8.692a2.172,2.172,0,0,0,1.347.479,1.975,1.975,0,0,0,.935-.217,2.172,2.172,0,0,0,1.238-1.955V137.4H92.282a2.173,2.173,0,1,0,0-4.346H77.072a2.174,2.174,0,0,0-2.173,2l-5.215-4.172,5.215-4.172a2.174,2.174,0,0,0,2.173,2Zm0,0" transform="translate(-46.651 -87.426)" fill="#2e266f"/>
  <path id="Path_272" data-name="Path 272" d="M80.449,237.532a1.976,1.976,0,0,0,.935.217,2.172,2.172,0,0,0,1.347-.479L93.6,228.579a2.173,2.173,0,0,0,0-3.389L82.731,216.5a2.17,2.17,0,0,0-3.52,1.694v2.173H66.173a2.173,2.173,0,1,0,0,4.346H81.384a2.174,2.174,0,0,0,2.173-2l5.215,4.172-5.215,4.172a2.174,2.174,0,0,0-2.173-2H66.173a2.173,2.173,0,1,0,0,4.346H79.211v2.173A2.172,2.172,0,0,0,80.449,237.532Zm0,0" transform="translate(-46.617 -157.351)" fill="#2e266f"/>
  <path id="Path_273" data-name="Path 273" d="M52.346,42.173A2.173,2.173,0,1,1,50.173,40,2.173,2.173,0,0,1,52.346,42.173Zm0,0" transform="translate(-34.962 -29.135)" fill="#2e266f"/>
  <path id="Path_274" data-name="Path 274" d="M84.346,42.173A2.173,2.173,0,1,1,82.173,40,2.173,2.173,0,0,1,84.346,42.173Zm0,0" transform="translate(-58.271 -29.135)" fill="#2e266f"/>
  <path id="Path_275" data-name="Path 275" d="M177.383,98.173A2.173,2.173,0,0,0,175.211,96H162.173a2.173,2.173,0,0,0,0,4.346h13.038A2.173,2.173,0,0,0,177.383,98.173Zm0,0" transform="translate(-116.541 -69.925)" fill="#2e266f"/>
  <path id="Path_276" data-name="Path 276" d="M138.173,324.346h15.211a2.173,2.173,0,1,0,0-4.346H138.173a2.173,2.173,0,1,0,0,4.346Zm0,0" transform="translate(-99.06 -233.083)" fill="#2e266f"/>
</svg>
