<svg xmlns="http://www.w3.org/2000/svg" width="40.41" height="32.818" viewBox="0 0 40.41 32.818">
  <g id="Group_361" data-name="Group 361" transform="translate(0 -48.096)">
    <g id="Group_224" data-name="Group 224" transform="translate(0 48.096)">
      <g id="Group_223" data-name="Group 223">
        <path id="Path_186" data-name="Path 186" d="M38.552,79.73h-.673V62.169a5.494,5.494,0,0,0,2.531-4.623.592.592,0,0,0-.078-.294l-4.7-8.22a1.862,1.862,0,0,0-1.613-.936H6.388a1.861,1.861,0,0,0-1.613.936l-4.7,8.22A.593.593,0,0,0,0,57.545a5.494,5.494,0,0,0,2.531,4.623V79.73H1.857a.592.592,0,1,0,0,1.184h36.7a.592.592,0,1,0,0-1.184ZM1.225,58.137h1.9a.592.592,0,1,0,0-1.184H1.612L5.8,49.619a.675.675,0,0,1,.585-.339H34.022a.675.675,0,0,1,.585.339L38.8,56.953H37.287a.592.592,0,1,0,0,1.184h1.9a4.311,4.311,0,0,1-8.54,0h4.112a.592.592,0,1,0,0-1.184H5.653a.592.592,0,1,0,0,1.184H9.765a4.311,4.311,0,0,1-8.54,0Zm28.153,0a4.31,4.31,0,0,1-8.539,0Zm-9.806,0a4.31,4.31,0,0,1-8.539,0ZM33.532,79.73H27.123V77.75h6.408Zm0-3.163H27.123V65.729h6.408ZM36.7,79.73h-1.98V65.138a.592.592,0,0,0-.592-.592H26.532a.592.592,0,0,0-.592.592V79.73H3.715V62.743A5.49,5.49,0,0,0,10.4,60.025a5.494,5.494,0,0,0,9.806,0,5.494,5.494,0,0,0,9.806,0A5.49,5.49,0,0,0,36.7,62.743Z" transform="translate(0 -48.096)" fill="#acacac"/>
      </g>
    </g>
    <g id="Group_226" data-name="Group 226" transform="translate(5.694 64.546)">
      <g id="Group_225" data-name="Group 225">
        <path id="Path_187" data-name="Path 187" d="M89.819,256.516H72.737a.592.592,0,0,0-.592.592v12.021a.592.592,0,0,0,.592.592H89.819a.592.592,0,0,0,.592-.592V257.108A.592.592,0,0,0,89.819,256.516Zm-.592,12.021h-15.9V257.7h15.9Z" transform="translate(-72.145 -256.516)" fill="#acacac"/>
      </g>
    </g>
  </g>
</svg>
